<svg width="58" height="57" viewBox="0 0 58 57" fill="none" xmlns="http://www.w3.org/2000/svg">
<mask id="mask0_173_3986" style="mask-type:luminance" maskUnits="userSpaceOnUse" x="0" y="0" width="27" height="38">
<path d="M0 0H26.1082V37.1629H0V0Z" fill="white"/>
</mask>
<g mask="url(#mask0_173_3986)">
<mask id="mask1_173_3986" style="mask-type:luminance" maskUnits="userSpaceOnUse" x="-3" y="-4" width="35" height="42">
<path d="M-2.39325 21.6554L17.9289 -3.97621L31.6342 11.5159L11.312 37.1476L-2.39325 21.6554Z" fill="white"/>
</mask>
<g mask="url(#mask1_173_3986)">
<mask id="mask2_173_3986" style="mask-type:luminance" maskUnits="userSpaceOnUse" x="-3" y="-4" width="35" height="42">
<path d="M-2.39325 21.6554L17.9289 -3.97621L31.6342 11.5159L11.312 37.1476L-2.39325 21.6554Z" fill="white"/>
</mask>
<g mask="url(#mask2_173_3986)">
<path d="M11.2199 37.0435C11.3531 36.7819 11.5515 36.5924 11.7118 36.3614C12.1011 35.7903 12.4468 35.1827 12.7477 34.5396C12.9547 34.1095 13.1376 33.6578 13.3707 33.2535C13.5716 32.905 13.7444 32.5367 13.9489 32.1935C13.9831 32.1348 14.0228 32.082 14.0042 31.9806C13.8921 32.0808 13.8022 32.2037 13.7349 32.3501C13.5309 32.7916 13.2848 33.1959 12.9969 33.5642C12.8688 33.7274 12.7628 33.9086 12.6789 34.1089C12.4387 34.6818 12.084 35.1479 11.6902 35.6242C11.7253 35.4748 11.7826 35.3386 11.862 35.2157C12.071 34.8803 12.2378 34.515 12.4247 34.1635C12.7794 33.4917 13.122 32.8066 13.5199 32.1702C14.1087 31.2266 14.6171 30.2206 15.1632 29.2434C15.4792 28.6777 15.8279 28.1415 16.1373 27.568C16.2901 27.2842 16.4795 27.0203 16.5905 26.715C16.7754 26.2111 17.0321 25.751 17.1918 25.2357C17.2049 25.1937 17.2446 25.1433 17.2049 25.1007C17.1647 25.0587 17.1105 25.0857 17.0753 25.1133C16.9266 25.2321 16.7538 25.2297 16.589 25.2591C16.5247 25.2747 16.4609 25.2705 16.3981 25.2471C16.3353 25.2237 16.281 25.1835 16.2353 25.1265C16.2092 25.0911 16.177 25.0671 16.1388 25.0539C16.1012 25.0408 16.063 25.0408 16.0253 25.0539C15.9585 25.0737 15.8912 25.0821 15.8223 25.0791C15.754 25.0761 15.6872 25.0611 15.6224 25.0348C15.5571 25.0084 15.4968 24.9712 15.441 24.9238C15.3853 24.8764 15.336 24.82 15.2938 24.7558C15.1722 24.5801 15.0054 24.5849 14.8763 24.6232C14.705 24.6748 14.5407 24.661 14.4237 24.5591C14.2559 24.4121 14.0836 24.4019 13.9007 24.4091C13.7947 24.4181 13.6912 24.4025 13.5907 24.3605C13.4902 24.3191 13.4008 24.2549 13.3224 24.1691C13.2611 24.1032 13.1898 24.0792 13.1089 24.0978C12.9924 24.1152 12.8768 24.1386 12.7603 24.1506C12.609 24.1655 12.4644 24.1524 12.3453 24.0126C12.2594 23.9208 12.1594 23.883 12.0454 23.901C11.8419 23.9148 11.647 23.8716 11.4611 23.772C11.338 23.7085 11.2094 23.6695 11.0757 23.6557C10.8999 23.6371 10.7396 23.6053 10.608 23.4289C10.5221 23.3143 10.3749 23.3605 10.2538 23.3671C10.1328 23.3731 10.0489 23.3593 10.0167 23.2046C10.0016 23.1314 9.94738 23.1182 9.89614 23.111C9.82128 23.1026 9.74241 23.099 9.66705 23.0912C9.54949 23.0768 9.46961 23.0054 9.48217 22.8548C9.49473 22.7037 9.45403 22.7139 9.36411 22.7601C9.08427 22.907 8.80344 22.8704 8.52361 22.7505C8.46834 22.7373 8.42715 22.7013 8.40052 22.6413C8.37289 22.5459 8.31863 22.5543 8.25533 22.5531C8.00715 22.5435 7.766 22.4925 7.53038 22.4001C7.27416 22.3054 7.21036 22.1938 7.20333 21.8855C7.20081 21.7619 7.13098 21.7847 7.07522 21.7865C6.79488 21.7937 6.52108 21.7715 6.27491 21.5831C6.26788 21.5753 6.25632 21.5741 6.24728 21.5675C6.05989 21.4362 6.05687 21.4122 6.20709 21.2298C6.23371 21.2022 6.25029 21.168 6.25783 21.1272C6.20206 21.1614 6.14981 21.1902 6.09807 21.2256C5.94484 21.3156 5.85541 21.2436 5.85843 21.0337C5.85541 20.9851 5.85491 20.9365 5.85642 20.8879C5.86948 20.7439 5.81522 20.6569 5.70017 20.6785C5.48766 20.7187 5.27716 20.7763 5.06616 20.8261C4.85465 20.8873 4.64114 20.9011 4.42561 20.8681L4.65721 20.5388C4.61752 20.5388 4.58336 20.5544 4.55372 20.5856C4.22666 20.8225 3.95437 20.8003 3.66851 20.4884C3.5826 20.3912 3.4364 20.369 3.39873 20.2046C3.39571 20.1938 3.36205 20.1866 3.34346 20.189C2.99129 20.2208 2.65117 20.1494 2.30904 20.0691C2.20203 20.0457 2.09603 20.0367 1.98852 20.0235C1.9006 20.0211 1.81569 20.0001 1.73431 19.9593C1.69763 19.9365 1.65644 19.9101 1.66096 19.8531C1.66548 19.7961 1.70768 19.7937 1.73983 19.7769C1.92873 19.6894 2.12919 19.6708 2.32512 19.6252C2.42459 19.603 2.5306 19.6084 2.62555 19.5298C2.5743 19.4326 2.49191 19.4392 2.42007 19.435C1.93376 19.4068 1.44644 19.3846 0.963138 19.3072C0.730029 19.27 0.497925 19.2185 0.266323 19.1681C0.209553 19.1645 0.168859 19.1315 0.144744 19.0697L0.839048 18.9701C0.905865 18.9605 0.972683 18.9575 1.0385 18.9419C1.08874 18.9293 1.17213 18.9521 1.17464 18.8657C1.17716 18.7962 1.10431 18.7686 1.05055 18.747C0.796344 18.6444 0.535604 18.5862 0.267328 18.5718L0.104553 18.564C0.136204 18.4758 0.197495 18.4818 0.24673 18.468C0.675771 18.3457 1.11335 18.3618 1.54943 18.3618C2.511 18.3636 3.47057 18.3229 4.42812 18.2185C4.48992 18.2113 4.59642 18.2335 4.60044 18.1537C4.60496 18.0445 4.51353 17.9851 4.42561 17.9557C4.33317 17.9317 4.24174 17.9329 4.1503 17.9605C3.89107 18.0247 3.63033 17.9581 3.34648 17.9911C3.38114 17.9437 3.42435 17.9227 3.4771 17.9293C3.98049 17.843 4.4874 17.8448 4.99432 17.8358C5.79563 17.8202 6.59694 17.7944 7.39624 17.7224C8.37038 17.6336 9.33798 17.4788 10.3006 17.2995C10.7577 17.2125 11.2229 17.2149 11.6791 17.1297C12.5523 16.9666 13.432 16.9012 14.3106 16.825C14.8738 16.7722 15.4375 16.7554 16.0017 16.7764C16.2891 16.7998 16.5553 16.9018 16.7995 17.0835C17.0753 17.2725 17.3657 17.4213 17.6706 17.5298C18.0484 17.6642 18.4272 17.7998 18.8005 17.9533C18.9437 18.0121 18.9869 17.9569 18.9909 17.8022C19.003 17.4093 19.1326 17.0283 19.1175 16.6402C19.0999 16.1825 19.2858 15.804 19.3737 15.3901C19.4827 14.8724 19.6601 14.3841 19.8173 13.8863C19.9364 13.5071 20.0911 13.1526 20.2208 12.7819C20.3559 12.3908 20.4202 11.9607 20.5262 11.5504C20.5548 11.4388 20.5001 11.3344 20.492 11.2252C20.4654 10.8515 20.4669 10.4784 20.4966 10.1047C20.5106 9.91634 20.5403 9.72499 20.3921 9.56182C20.3187 9.47844 20.3308 9.32008 20.3428 9.19051C20.3865 8.69322 20.3378 8.19653 20.3187 7.70044C20.3067 7.4239 20.2062 7.14496 20.2027 6.85583C20.1951 6.28356 20.277 5.72148 20.368 5.16241C20.3795 5.04483 20.3765 4.92786 20.3574 4.81149C20.3162 4.38738 20.3785 3.97287 20.3991 3.55537C20.4056 3.406 20.4549 3.28063 20.5468 3.17925C20.5825 3.14326 20.6076 3.09947 20.6217 3.04608C20.6352 2.99329 20.6362 2.93991 20.6237 2.88592C20.5679 2.5002 20.5624 2.10669 20.4991 1.72098C20.4509 1.42765 20.5317 1.33947 20.7844 1.39525C20.8693 1.41265 20.8523 1.34306 20.8533 1.29627C20.8593 1.08272 20.8573 0.866771 20.8618 0.652619C20.8653 0.492455 20.8794 0.33529 20.9633 0.199721C21.0206 0.108541 21.0708 0.116939 21.116 0.208119C21.2944 0.572837 21.4712 0.937555 21.6501 1.29987C21.6671 1.32987 21.6762 1.36286 21.6772 1.39945C21.6782 1.43544 21.6707 1.46904 21.6546 1.50023C21.5933 1.6418 21.6817 1.86015 21.8088 1.86135C21.9023 1.86315 21.9213 1.92553 21.9485 1.99392C22.0449 2.23686 22.1349 2.47981 22.2348 2.72455C22.268 2.80734 22.3082 2.88532 22.3554 2.9579C22.3896 3.01069 22.4433 3.11327 22.484 2.9537C22.5006 2.91231 22.5272 2.88592 22.5644 2.87392C22.6101 2.85113 22.6694 2.83133 22.5865 2.76115C22.5544 2.73355 22.585 2.67836 22.6041 2.64537C22.7121 2.43722 22.8056 2.22007 22.8844 1.99392C22.895 1.95493 22.9136 1.92373 22.9412 1.89974C22.9688 1.87515 23 1.86375 23.0341 1.86375C23.118 1.86135 23.1472 1.94173 23.1628 2.02091C23.2225 2.35024 23.2582 2.68316 23.2698 3.01969C23.2949 3.49658 23.3095 3.97467 23.329 4.45157C23.3311 4.50076 23.3311 4.55174 23.3376 4.59793C23.3612 4.78749 23.3873 4.80069 23.5119 4.68791C23.6365 4.57514 23.6943 4.60153 23.7305 4.79409C23.8033 5.17441 23.852 5.54932 23.7722 5.94823C23.5757 6.91701 23.4114 7.89779 23.2311 8.87258C23.1999 8.99315 23.1969 9.11372 23.2235 9.23549C23.3637 9.68719 23.2617 10.1461 23.2693 10.6026C23.2808 11.263 23.0487 11.8563 22.9487 12.4832C22.792 13.4621 22.5905 14.4369 22.6357 15.4447C22.6368 15.4693 22.6357 15.4945 22.6378 15.5185C22.6468 15.6103 22.6217 15.7446 22.7071 15.78C22.7774 15.8094 22.8377 15.708 22.8985 15.6529C23.1427 15.4351 23.3471 15.134 23.6541 15.044C23.8887 14.9762 24.1359 14.906 24.377 15.0434C24.4594 15.0908 24.5272 15.1592 24.5795 15.2491C24.6775 15.4195 24.8005 15.5587 24.9488 15.6661C25.4341 15.9738 25.7887 16.4207 25.948 17.0625C25.9952 17.2539 26.0063 17.4483 25.9812 17.645C25.9751 17.69 25.9721 17.7524 25.9179 17.7554C25.8641 17.759 25.8671 17.7044 25.8495 17.6678C25.7928 17.5292 25.7184 17.4057 25.626 17.2977C25.5722 17.2431 25.5436 17.2203 25.5089 17.3253C25.3863 17.6858 25.1603 17.9335 24.8829 18.1273C24.6729 18.2617 24.5197 18.459 24.4227 18.7188C24.3047 19.0553 24.1359 19.3498 23.9158 19.603C23.7646 19.7733 23.6059 19.9299 23.4853 20.1339C23.435 20.2178 23.3441 20.1698 23.2838 20.2448C23.1612 20.399 23.111 20.5904 23.0648 20.7835C22.9543 21.2388 22.791 21.6659 22.575 22.0636C22.3112 22.5753 21.96 22.9772 21.5214 23.2711C21.2155 23.4715 20.9558 23.76 20.6352 23.9274C20.59 23.946 20.5659 23.9838 20.5634 24.0408C20.5518 24.2141 20.4519 24.3179 20.3589 24.4349C20.2092 24.6244 20.0896 24.8482 19.9053 24.9952C19.8892 25.0084 19.8801 25.0378 19.8646 25.0462C19.528 25.2321 19.332 25.607 19.0713 25.8944C19.0226 25.9525 18.9638 25.9837 18.8949 25.9873C18.6503 25.9867 18.5408 26.1991 18.4287 26.4C18.068 27.0455 17.6731 27.6622 17.2989 28.2968C16.7774 29.1858 16.1685 29.9914 15.6304 30.8648C15.3204 31.3675 14.9939 31.8564 14.6628 32.3393C14.4372 32.6692 14.273 33.0544 14.0228 33.3531C13.8238 33.5936 13.6389 33.8546 13.4164 34.0693C13.1556 34.3225 12.9627 34.6344 12.8371 35.0063C12.7688 35.2031 12.6884 35.3998 12.496 35.4802C12.4639 35.494 12.4438 35.5528 12.4217 35.5906C12.1142 36.1011 11.759 36.5576 11.3556 36.9613C11.3149 37.0075 11.2812 37.0627 11.2199 37.0435Z" fill="#1E1E1E"/>
</g>
</g>
</g>
<path d="M15.9727 29.4407C15.735 29.83 15.507 30.2127 15.2879 30.5882L14.9719 30.3255C15.1925 29.947 15.422 29.5618 15.6612 29.1701L15.9727 29.4407ZM15.0719 30.9619C14.8503 31.3476 14.6383 31.7262 14.4364 32.0975L14.1133 31.8473C14.3173 31.4724 14.5308 31.0909 14.7539 30.7016L15.0719 30.9619ZM14.2243 32.491C14.0164 32.8815 13.8194 33.2642 13.6335 33.6379L13.3025 33.4034C13.4904 33.0249 13.6893 32.6392 13.8993 32.2444L14.2243 32.491ZM13.4351 34.0428C13.2361 34.4543 13.0513 34.8557 12.8805 35.2462L12.5388 35.0332C12.7122 34.6367 12.9 34.23 13.1015 33.8131L13.4351 34.0428ZM12.7137 35.6337C12.5313 36.0674 12.3665 36.4867 12.2198 36.8934L11.8661 36.711C12.0158 36.2965 12.1836 35.8688 12.3695 35.4273L12.7137 35.6337ZM12.0791 37.2947C11.9264 37.7434 11.7968 38.1753 11.6903 38.5892L11.322 38.4542C11.4321 38.0271 11.5652 37.5832 11.7219 37.1219L12.0791 37.2947ZM11.5888 39.0085C11.4838 39.471 11.4095 39.9107 11.3652 40.327L10.9829 40.2688C11.0296 39.8315 11.1075 39.3714 11.2165 38.8886L11.5888 39.0085ZM11.3281 40.7883C11.3024 41.2604 11.32 41.6995 11.3793 42.1056L11 42.1854C10.9352 41.7433 10.9161 41.2676 10.9437 40.7589L11.3281 40.7883ZM11.4592 42.5255C11.5597 42.9544 11.7144 43.3426 11.9224 43.6905L11.6089 43.9574C11.3748 43.5663 11.201 43.1302 11.0884 42.6497L11.4592 42.5255ZM12.1485 44.0252C12.3826 44.3329 12.6669 44.6047 13.001 44.8404L12.8056 45.2363C12.4378 44.9772 12.1239 44.6767 11.8636 44.3341L12.1485 44.0252ZM13.3276 45.0498C13.6401 45.2321 13.9887 45.3881 14.3741 45.5177L14.2696 45.9604C13.8621 45.823 13.4919 45.6574 13.1588 45.4631L13.3276 45.0498ZM14.7303 45.6268C15.0764 45.7234 15.4492 45.8008 15.8481 45.8596L15.8008 46.3155C15.3884 46.2555 15.002 46.1751 14.6423 46.0743L14.7303 45.6268ZM16.2244 45.9076C16.5846 45.9484 16.9644 45.9742 17.3643 45.9856L17.3547 46.4451C16.9463 46.4337 16.5574 46.4073 16.1882 46.3659L16.2244 45.9076ZM17.7441 45.9922C18.1123 45.994 18.4957 45.985 18.8946 45.964L18.9116 46.4235C18.5062 46.4445 18.1164 46.4541 17.7426 46.4517L17.7441 45.9922ZM19.2704 45.9412C19.5994 45.9184 19.938 45.8884 20.2867 45.8506L20.3214 46.3089C19.9682 46.3467 19.6255 46.3773 19.2925 46.4001L19.2704 45.9412Z" fill="#1E1E1E"/>
<path d="M21.5396 54.0563L22.5755 53.3719L22.7619 53.7744L21.726 54.4589L21.5396 54.0563ZM22.8995 53.1524C23.2502 52.9124 23.5843 52.6791 23.9018 52.4511L24.1003 52.8452C23.7807 53.0744 23.4441 53.3101 23.091 53.5513L22.8995 53.1524ZM24.2264 52.216C24.572 51.9622 24.8965 51.7169 25.1995 51.4787L25.4115 51.8626C25.105 52.1032 24.777 52.3521 24.4273 52.6077L24.2264 52.216ZM25.514 51.2274C25.8561 50.9508 26.1671 50.6851 26.4479 50.4296L26.681 50.7955C26.3947 51.0558 26.0782 51.327 25.73 51.6083L25.514 51.2274ZM26.7338 50.1632C27.0654 49.8465 27.3462 49.5484 27.5758 49.2682L27.8511 49.5904C27.6105 49.8837 27.3181 50.1944 26.9744 50.5225L26.7338 50.1632ZM27.8401 48.9233C28.1309 48.5118 28.2932 48.1531 28.3269 47.8483L28.7087 47.9083C28.665 48.3024 28.4736 48.7391 28.1345 49.2196L27.8401 48.9233ZM28.3033 47.5094C28.2234 47.2257 27.9797 46.9851 27.5723 46.789L27.7165 46.3625C28.2339 46.612 28.5509 46.9455 28.6685 47.3631L28.3033 47.5094ZM27.2045 46.639C26.9001 46.5346 26.5379 46.4495 26.1174 46.3835L26.1671 45.9276C26.6072 45.9966 26.988 46.0859 27.311 46.1975L27.2045 46.639ZM25.7491 46.3331C25.4025 46.2911 25.0226 46.2611 24.6092 46.2425L24.6237 45.783C25.0453 45.8022 25.4331 45.8328 25.7878 45.8754L25.7491 46.3331ZM24.2188 46.2287C23.8611 46.2191 23.4813 46.2179 23.0789 46.2239L23.0739 45.7638C23.4808 45.7578 23.8651 45.7596 24.2274 45.7692L24.2188 46.2287ZM22.687 46.2323C22.3233 46.2419 21.943 46.2581 21.5451 46.2797L21.5275 45.8202C21.9279 45.7986 22.3117 45.7824 22.678 45.7728L22.687 46.2323ZM21.1603 46.3025L20.4981 46.3481L20.476 45.8886L21.1382 45.843L21.1603 46.3025Z" fill="#1E1E1E"/>
<path d="M20.4662 41.3044L19.8226 42.4976L19.4991 42.2486L20.1421 41.0555L20.4662 41.3044ZM19.6186 42.8821L19.0198 44.029L18.6927 43.7855L19.2921 42.6385L19.6186 42.8821ZM18.8118 44.4339L18.2175 45.6181L17.8869 45.3811L18.4817 44.197L18.8118 44.4339ZM18.0311 45.9966C17.8271 46.4153 17.6332 46.8214 17.4493 47.2149L17.1132 46.9912C17.2981 46.5946 17.493 46.1861 17.6985 45.765L18.0311 45.9966ZM17.2659 47.612C17.074 48.0301 16.8942 48.4338 16.7269 48.8225L16.3842 48.612C16.5535 48.2197 16.7349 47.8124 16.9278 47.3913L17.2659 47.612ZM16.5505 49.2365C16.3712 49.663 16.2074 50.0709 16.0592 50.4602L15.7085 50.2694C15.8592 49.8747 16.025 49.462 16.2064 49.0307L16.5505 49.2365ZM15.8989 50.8891C15.7362 51.3348 15.595 51.7547 15.4754 52.1482L15.1132 51.9916C15.2358 51.5891 15.38 51.1602 15.5457 50.7049L15.8989 50.8891ZM15.3498 52.5819C15.2182 53.0588 15.1217 53.4919 15.0614 53.8812L14.6826 53.7972C14.7464 53.3875 14.8469 52.9346 14.9836 52.4379L15.3498 52.5819ZM15.0087 54.2963C14.959 54.8194 14.9861 55.2423 15.0901 55.5644L14.7309 55.73C14.6043 55.3377 14.5691 54.8422 14.6264 54.2441L15.0087 54.2963ZM15.2463 55.892C15.4302 56.1637 15.7226 56.3161 16.1235 56.3491L16.0969 56.808C15.5844 56.7654 15.2011 56.5566 14.9469 56.1811L15.2463 55.892ZM16.4857 56.3485C16.8067 56.3251 17.177 56.2435 17.597 56.1049L17.6995 56.5482C17.2539 56.6952 16.8575 56.7822 16.5093 56.8074L16.4857 56.3485ZM17.9351 55.9843C18.2662 55.859 18.6239 55.7018 19.0077 55.5128L19.1544 55.9382C18.7605 56.1319 18.3928 56.2933 18.0517 56.4228L17.9351 55.9843ZM19.3514 55.3389C19.6824 55.1673 20.0311 54.9736 20.3978 54.7588L20.5676 55.1715C20.1954 55.3899 19.8412 55.586 19.5051 55.7606L19.3514 55.3389ZM20.7339 54.5591C20.9947 54.4019 21.264 54.2339 21.5418 54.0558L21.7236 54.4613C21.4433 54.6406 21.171 54.8104 20.9078 54.9694L20.7339 54.5591Z" fill="#1E1E1E"/>
<path d="M38.7506 48.3024L37.8604 47.3888L38.1111 47.0396L39.0018 47.9538L38.7506 48.3024ZM37.5705 47.0972L36.6823 46.2214L36.9279 45.8669L37.8156 46.7427L37.5705 47.0972ZM36.3808 45.9305C36.0794 45.6413 35.7815 45.3606 35.4871 45.0895L35.7227 44.7254C36.0186 44.9989 36.3185 45.2808 36.622 45.5718L36.3808 45.9305ZM35.1786 44.8063C34.8651 44.5208 34.5561 44.2455 34.2517 43.9803L34.4783 43.609C34.7852 43.8759 35.0967 44.1531 35.4122 44.4404L35.1786 44.8063ZM33.9482 43.7188C33.6252 43.4422 33.3072 43.1771 32.9942 42.924L33.2102 42.5436C33.5262 42.7992 33.8468 43.0661 34.1728 43.3451L33.9482 43.7188ZM32.6802 42.6726C32.3506 42.4117 32.0271 42.1633 31.7086 41.9288L31.9111 41.5371C32.2331 41.7746 32.5601 42.0254 32.8932 42.2893L32.6802 42.6726ZM31.3835 41.6918C31.0454 41.4483 30.7134 41.2203 30.3878 41.008L30.5727 40.6043C30.9028 40.8202 31.2394 41.0512 31.5825 41.2977L31.3835 41.6918ZM30.0522 40.7926C29.702 40.5719 29.3599 40.3691 29.0253 40.185L29.1866 39.7675C29.5272 39.9552 29.8759 40.161 30.2321 40.3859L30.0522 40.7926ZM28.6807 40.0002C28.3165 39.8101 27.9623 39.6427 27.6176 39.4969L27.7457 39.0632C28.0994 39.2126 28.4621 39.3842 28.8349 39.5785L28.6807 40.0002ZM27.2665 39.3554C26.8892 39.2102 26.5234 39.092 26.1697 39.0026L26.2501 38.5527C26.6164 38.6457 26.9947 38.7675 27.385 38.9175L27.2665 39.3554ZM25.795 38.9169C25.4061 38.8377 25.0323 38.7945 24.6741 38.7861L24.6817 38.3266C25.059 38.335 25.4518 38.3806 25.8598 38.4634L25.795 38.9169ZM24.3024 38.7909C23.9175 38.8095 23.5518 38.8713 23.2051 38.9768L23.1102 38.5317C23.483 38.4178 23.8753 38.3512 24.2868 38.3314L24.3024 38.7909ZM22.8479 39.104C22.4968 39.2474 22.1662 39.4393 21.8557 39.6799L21.6462 39.2942C21.9828 39.0332 22.342 38.8245 22.7233 38.6691L22.8479 39.104ZM21.5553 39.9336C21.2709 40.1952 21.0052 40.5017 20.758 40.8526L20.4631 40.5569C20.7283 40.1802 21.0142 39.8508 21.3207 39.5695L21.5553 39.9336ZM20.5254 41.2059L20.4596 41.3139L20.1476 41.044L20.2134 40.936L20.5254 41.2059Z" fill="#1E1E1E"/>
<path d="M24.7705 34.778L23.6733 22.5384H25.6788L26.2515 30.2622L26.8243 22.5384H28.7334L29.282 30.2622L29.8306 22.5384H31.8602L30.7369 34.778H28.2792L27.7668 28.8801L27.2764 34.778H24.7705Z" fill="#1E1E1E"/>
<path d="M32.4204 23.6495V21.9122H34.5083V23.6495H32.4204ZM32.4204 34.7782V24.3477H34.5083V34.7782H32.4204Z" fill="#1E1E1E"/>
<path d="M37.7294 34.8932C36.0037 34.8932 35.1411 33.8483 35.1411 31.7572L35.1532 30.9317H37.2411L37.2532 32.1555C37.2532 32.4038 37.2923 32.5916 37.3717 32.7193C37.4521 32.8477 37.5832 32.9113 37.7656 32.9113C38.0439 32.9113 38.1836 32.6414 38.1836 32.1003C38.1836 31.7008 38.1178 31.387 37.9867 31.1597C37.855 30.9311 37.646 30.6888 37.3597 30.4326L36.2504 29.4057C35.8686 29.0554 35.5938 28.693 35.4265 28.3187C35.2602 27.9432 35.1773 27.4129 35.1773 26.7279C35.1773 26.1952 35.2943 25.7417 35.529 25.3674C35.7631 24.9919 36.0756 24.7093 36.4654 24.5204C36.8553 24.3302 37.2883 24.2348 37.7656 24.2348C39.4602 24.2348 40.3077 25.242 40.3077 27.2558V27.4549H38.1474V27.0566C38.1474 26.8089 38.1133 26.5977 38.0449 26.4231C37.9776 26.2474 37.8646 26.1592 37.7053 26.1592C37.5631 26.1592 37.4541 26.209 37.3778 26.308C37.3024 26.4075 37.2652 26.5425 37.2652 26.7135C37.2652 27.0944 37.3883 27.3889 37.635 27.5965L38.9231 28.7218C39.3853 29.1315 39.7395 29.576 39.9862 30.0559C40.2323 30.5346 40.3559 31.1399 40.3559 31.8723C40.3559 32.8405 40.1248 33.5855 39.6626 34.1086C39.2014 34.6317 38.5574 34.8932 37.7294 34.8932Z" fill="#1E1E1E"/>
<path d="M43.4454 34.8932C42.5461 34.8932 41.9021 34.5993 41.5122 34.0102C41.1224 33.42 40.9274 32.5412 40.9274 31.3732V27.1838C40.9274 26.224 41.1575 25.4934 41.6187 24.9907C42.0809 24.4868 42.726 24.2348 43.5539 24.2348C45.2309 24.2348 46.0699 25.218 46.0699 27.1838V27.9396C46.0699 28.6996 46.0624 29.3169 46.0478 29.792H43.0154V31.8147C43.0154 32.1765 43.0465 32.4596 43.1098 32.6641C43.1741 32.8675 43.3098 32.9689 43.5178 32.9689C43.677 32.9689 43.79 32.9125 43.8574 32.7985C43.9242 32.6833 43.9639 32.5526 43.9759 32.405C43.988 32.258 43.994 32.0421 43.994 31.7572V30.747H46.0699V31.3444C46.0699 32.5604 45.873 33.456 45.4791 34.0318C45.0862 34.6065 44.4085 34.8932 43.4454 34.8932ZM43.994 28.5515V27.2126C43.994 26.4627 43.8393 26.0872 43.5298 26.0872C43.1786 26.0872 43.0033 26.4627 43.0033 27.2126V28.5515H43.994Z" fill="#1E1E1E"/>
<path d="M35.555 49.6854V38.1751H34.1383V35.4398H39.3612V38.1751H37.9444V49.6854H35.555Z" fill="#1E1E1E"/>
<path d="M42.9443 49.8173C40.9157 49.8173 39.9019 48.5624 39.9019 46.0526V41.1769C39.9019 40.0269 40.1721 39.1121 40.7137 38.4319C41.2563 37.7522 41.9998 37.4121 42.9443 37.4121C43.8888 37.4121 44.6314 37.7522 45.1729 38.4319C45.7155 39.1121 45.9868 40.0269 45.9868 41.1769V46.0526C45.9868 48.5624 44.9725 49.8173 42.9443 49.8173ZM42.9443 47.5786C43.1383 47.5786 43.2819 47.4965 43.3744 47.3315C43.4678 47.1653 43.515 46.938 43.515 46.65V40.7138C43.515 40.0053 43.3246 39.6508 42.9443 39.6508C42.565 39.6508 42.3756 40.0053 42.3756 40.7138V46.65C42.3756 46.938 42.4218 47.1653 42.5143 47.3315C42.6067 47.4965 42.7499 47.5786 42.9443 47.5786Z" fill="#1E1E1E"/>
<path d="M48.8484 49.8174C48.0888 49.8174 47.5673 49.5475 47.285 49.0064C47.0021 48.4641 46.861 47.6567 46.861 46.5829V37.5442H49.3066V46.0047C49.3066 46.0814 49.3066 46.289 49.3066 46.6261C49.3066 46.9638 49.3498 47.2014 49.4372 47.3388C49.5256 47.4767 49.6623 47.5451 49.8472 47.5451C50.0974 47.5451 50.2551 47.4215 50.3194 47.1732C50.3847 46.9237 50.4179 46.5673 50.4179 46.103V46.0047L50.4299 37.5442H52.8474V49.6854H50.4179V48.3921C50.2501 48.9008 50.0552 49.2655 49.8331 49.4863C49.6105 49.707 49.2825 49.8174 48.8484 49.8174Z" fill="#1E1E1E"/>
<path d="M53.8201 37.5442H56.2516V38.8879C56.3707 38.4128 56.5812 38.0456 56.8826 37.7865C57.1841 37.5262 57.5563 37.3954 58 37.3954V39.8165C57.6583 39.8165 57.281 39.8752 56.8686 39.9916C56.4571 40.1086 56.2516 40.2436 56.2516 40.3971V49.6854H53.8201V37.5442Z" fill="#1E1E1E"/>
</svg>
