<svg width="59" height="59" viewBox="0 0 59 59" fill="none" xmlns="http://www.w3.org/2000/svg">
<circle cx="29.5" cy="29.5" r="29.0959" fill="#1E1E1E" stroke="#F8CA26" stroke-width="0.808219"/>
<path d="M44.452 46.0685V42.3866C44.452 40.4336 43.6857 38.5606 42.3215 37.1796C40.9574 35.7987 39.1072 35.0228 37.1781 35.0228H22.6301C20.7009 35.0228 18.8508 35.7987 17.4866 37.1796C16.1225 38.5606 15.3561 40.4336 15.3561 42.3866V46.0685M37.1781 20.2953C37.1781 24.3622 33.9214 27.6591 29.9041 27.6591C25.8868 27.6591 22.6301 24.3622 22.6301 20.2953C22.6301 16.2284 25.8868 12.9315 29.9041 12.9315C33.9214 12.9315 37.1781 16.2284 37.1781 20.2953Z" stroke="#F8CA26" stroke-width="4.0411" stroke-linecap="round" stroke-linejoin="round"/>
</svg>
