<svg width="288" height="343" viewBox="0 0 288 343" fill="none" xmlns="http://www.w3.org/2000/svg">
<path d="M262.228 227.08C261.126 229.904 260.026 232.643 258.931 235.298L261.185 236.601C262.289 233.926 263.396 231.169 264.505 228.327L262.228 227.08ZM257.835 237.928C256.699 240.632 255.568 243.25 254.439 245.777L256.655 247.166C257.795 244.614 258.936 241.977 260.084 239.251L257.835 237.928ZM253.236 248.441C252.035 251.069 250.835 253.599 249.644 256.025L251.811 257.517C253.019 255.062 254.227 252.51 255.442 249.855L253.236 248.441ZM248.344 258.634C247.014 261.267 245.687 263.774 244.368 266.152L246.466 267.783C247.806 265.369 249.148 262.826 250.496 260.158L248.344 258.634ZM243.05 268.493C241.562 271.084 240.086 273.512 238.614 275.778L240.604 277.587C242.105 275.276 243.611 272.801 245.125 270.162L243.05 268.493ZM237.147 277.987C235.493 280.425 233.846 282.656 232.212 284.674L234.022 286.73C235.709 284.646 237.402 282.355 239.103 279.849L237.147 277.987ZM230.535 286.675C228.664 288.836 226.805 290.719 224.961 292.325L226.451 294.717C228.386 293.028 230.332 291.057 232.287 288.805L230.535 286.675ZM222.881 294.026C220.712 295.682 218.564 296.944 216.441 297.821L217.263 300.626C219.576 299.673 221.903 298.306 224.239 296.521L222.881 294.026ZM214.187 298.603C211.824 299.274 209.484 299.452 207.167 299.145L206.889 302.095C209.495 302.443 212.124 302.242 214.771 301.49L214.187 298.603ZM204.855 298.675C202.646 298.065 200.449 297.005 198.266 295.496L197 298.056C199.401 299.718 201.828 300.888 204.286 301.564L204.855 298.675ZM196.233 293.955C194.374 292.423 192.525 290.566 190.685 288.378L188.907 290.473C190.854 292.785 192.817 294.758 194.799 296.39L196.233 293.955ZM189.036 286.322C187.478 284.295 185.927 282.028 184.382 279.526L182.359 281.277C183.953 283.866 185.561 286.215 187.182 288.321L189.036 286.322ZM182.96 277.143C181.624 274.845 180.296 272.369 178.974 269.712L176.815 271.22C178.164 273.935 179.523 276.471 180.891 278.827L182.96 277.143ZM177.738 267.175C176.562 264.7 175.389 262.091 174.224 259.338L171.981 260.668C173.166 263.464 174.357 266.119 175.553 268.629L177.738 267.175ZM173.141 256.736C172.207 254.448 171.276 252.074 170.35 249.607L168.056 250.814C168.996 253.311 169.937 255.715 170.885 258.03L173.141 256.736Z" fill="#F8CA26"/>
<path d="M127.276 266.963L127.253 257.836L124.744 257.846L124.767 266.973L127.276 266.963ZM127.272 254.963C127.303 251.848 127.356 248.864 127.435 246.01L124.928 245.912C124.849 248.784 124.793 251.792 124.764 254.928L127.272 254.963ZM127.527 243.085C127.64 239.96 127.78 237.003 127.954 234.214L125.452 233.993C125.278 236.813 125.132 239.805 125.023 242.963L127.527 243.085ZM128.155 231.306C128.387 228.133 128.668 225.204 128.995 222.509L126.512 222.09C126.179 224.836 125.891 227.82 125.654 231.049L128.155 231.306ZM129.358 219.747C129.816 216.519 130.346 213.69 130.953 211.264L128.545 210.422C127.91 212.965 127.356 215.91 126.882 219.256L129.358 219.747ZM131.758 208.4C132.797 205.148 133.992 202.927 135.337 201.743L133.841 199.36C132.101 200.893 130.627 203.555 129.413 207.349L131.758 208.4ZM137.027 200.837C138.632 200.483 140.551 201.368 142.778 203.495L144.353 201.183C141.523 198.483 138.929 197.396 136.566 197.917L137.027 200.837ZM144.659 205.5C146.122 207.222 147.676 209.394 149.324 212.018L151.339 210.25C149.614 207.503 147.981 205.22 146.425 203.395L144.659 205.5ZM150.732 214.34C152.031 216.542 153.378 219.006 154.778 221.731L156.921 220.189C155.493 217.411 154.118 214.895 152.79 212.64L150.732 214.34ZM156.082 224.317C157.262 226.696 158.472 229.25 159.719 231.978L161.927 230.566C160.666 227.807 159.438 225.224 158.244 222.815L156.082 224.317ZM160.922 234.644C162.029 237.123 163.158 239.735 164.317 242.483L166.562 241.157C165.395 238.393 164.256 235.757 163.14 233.26L160.922 234.644ZM165.428 245.146L167.311 249.748L169.571 248.453L167.688 243.851L165.428 245.146Z" fill="#F8CA26"/>
<path d="M191.446 234.11L187.802 242.194L190.014 243.59L193.66 235.51L191.446 234.11ZM186.616 244.776L183.049 252.414L185.247 253.851L188.812 246.21L186.616 244.776ZM181.779 255.087L178.021 262.812L180.199 264.293L183.955 256.565L181.779 255.087ZM176.809 265.257C175.46 267.946 174.14 270.529 172.848 273.004L174.98 274.564C176.283 272.073 177.611 269.476 178.967 266.768L176.809 265.257ZM171.537 275.487C170.153 278.093 168.799 280.573 167.478 282.922L169.567 284.567C170.9 282.194 172.266 279.693 173.661 277.07L171.537 275.487ZM166.064 285.41C164.601 287.959 163.176 290.344 161.791 292.566L163.812 294.327C165.215 292.072 166.656 289.658 168.136 287.081L166.064 285.41ZM160.255 294.993C158.648 297.49 157.094 299.761 155.598 301.803L157.493 303.75C159.022 301.659 160.609 299.34 162.253 296.792L160.255 294.993ZM153.93 304.012C152.075 306.397 150.317 308.408 148.653 310.037L150.254 312.324C152.004 310.607 153.844 308.507 155.777 306.025L153.93 304.012ZM146.842 311.697C144.507 313.677 142.405 314.823 140.541 315.135L140.891 318.075C143.162 317.694 145.634 316.374 148.303 314.108L146.842 311.697ZM138.484 315.113C136.606 314.728 134.953 313.238 133.525 310.642L131.422 312.264C133.25 315.581 135.461 317.506 138.056 318.038L138.484 315.113ZM132.379 308.201C131.473 305.965 130.687 303.216 130.016 299.952L127.578 300.655C128.291 304.118 129.133 307.061 130.117 309.484L132.379 308.201ZM129.518 297.296C129.066 294.672 128.681 291.769 128.364 288.591L125.872 288.939C126.198 292.201 126.595 295.185 127.059 297.889L129.518 297.296ZM128.103 285.73C127.871 282.961 127.689 280.004 127.549 276.859L125.044 277.013C125.184 280.206 125.372 283.208 125.606 286.02L128.103 285.73ZM127.435 273.968C127.357 271.718 127.304 269.377 127.272 266.946L124.763 266.996C124.797 269.447 124.852 271.814 124.929 274.087L127.435 273.968Z" fill="#F8CA26"/>
<path d="M100.12 132.974L107.296 136.097L108.165 133.312L100.984 130.187L100.12 132.974ZM109.605 137.133L116.595 140.362L117.505 137.593L110.517 134.368L109.605 137.133ZM118.937 141.477C121.271 142.599 123.553 143.722 125.779 144.853L126.767 142.122C124.525 140.989 122.23 139.855 119.882 138.726L118.937 141.477ZM128.106 146.04C130.461 147.254 132.753 148.469 134.982 149.686L136.033 146.993C133.787 145.765 131.479 144.538 129.109 143.317L128.106 146.04ZM137.19 150.907C139.532 152.214 141.804 153.522 144.003 154.834L145.13 152.184C142.91 150.859 140.622 149.539 138.259 148.22L137.19 150.907ZM146.196 156.158C148.485 157.558 150.694 158.956 152.822 160.364L154.046 157.769C151.893 156.347 149.661 154.933 147.347 153.519L146.196 156.158ZM154.982 161.808C157.214 163.319 159.354 164.839 161.398 166.364L162.735 163.85C160.66 162.306 158.492 160.765 156.229 159.229L154.982 161.808ZM163.488 167.947C165.65 169.611 167.701 171.278 169.64 172.953L171.118 170.554C169.143 168.851 167.057 167.149 164.856 165.458L163.488 167.947ZM171.613 174.693C173.674 176.548 175.595 178.407 177.382 180.27L179.043 178.044C177.21 176.131 175.242 174.228 173.134 172.329L171.613 174.693ZM179.171 182.19C181.059 184.274 182.782 186.366 184.329 188.467L186.218 186.511C184.614 184.337 182.834 182.172 180.881 180.015L179.171 182.19ZM185.926 190.721C187.537 193.091 188.928 195.472 190.103 197.858L192.269 196.363C191.033 193.848 189.57 191.346 187.882 188.859L185.926 190.721ZM191.259 200.377C192.391 203.027 193.256 205.684 193.853 208.35L196.275 207.59C195.636 204.722 194.709 201.87 193.498 199.037L191.259 200.377ZM194.379 211.155C194.81 213.971 194.943 216.8 194.781 219.647L197.284 219.846C197.46 216.759 197.315 213.684 196.847 210.627L194.379 211.155ZM194.525 222.468C194.18 225.205 193.562 227.958 192.674 230.726L195.018 231.782C195.972 228.812 196.635 225.851 197.004 222.903L194.525 222.468ZM191.728 233.403L191.422 234.185L193.697 235.438L194.003 234.655L191.728 233.403Z" fill="#F8CA26"/>
<path d="M153.796 159.191C152.896 158.586 151.884 158.385 150.938 157.951C148.625 156.86 146.406 155.54 144.286 153.992C142.848 152.97 141.46 151.816 139.972 150.945C138.69 150.194 137.474 149.308 136.188 148.585C135.971 148.458 135.744 148.366 135.642 147.969C136.202 148.058 136.722 148.279 137.2 148.634C138.646 149.703 140.18 150.544 141.802 151.162C142.522 151.434 143.194 151.821 143.82 152.326C145.61 153.77 147.628 154.574 149.801 155.323C149.431 154.883 149.005 154.54 148.523 154.295C147.234 153.609 146.044 152.72 144.806 151.926C142.449 150.402 140.113 148.804 137.662 147.505C134.033 145.576 130.584 143.242 127.049 141.096C125.003 139.853 122.891 138.79 120.856 137.505C119.85 136.868 118.747 136.386 117.853 135.577C116.372 134.245 114.709 133.234 113.297 131.804C113.182 131.688 112.959 131.604 113.029 131.363C113.102 131.123 113.337 131.091 113.507 131.106C114.227 131.175 114.832 130.764 115.462 130.484C115.714 130.389 115.933 130.226 116.116 129.998C116.299 129.77 116.424 129.503 116.491 129.198C116.525 129.013 116.599 128.854 116.712 128.719C116.823 128.586 116.958 128.497 117.112 128.455C117.381 128.369 117.632 128.242 117.87 128.071C118.106 127.902 118.317 127.694 118.502 127.451C118.689 127.207 118.84 126.937 118.959 126.641C119.077 126.346 119.158 126.034 119.201 125.712C119.341 124.814 119.937 124.443 120.456 124.277C121.145 124.059 121.701 123.628 121.946 123C122.296 122.095 122.887 121.659 123.544 121.259C123.933 121.043 124.272 120.748 124.557 120.368C124.843 119.989 125.053 119.557 125.188 119.075C125.296 118.701 125.508 118.452 125.824 118.328C126.264 118.118 126.71 117.931 127.14 117.702C127.698 117.403 128.187 117.02 128.377 116.254C128.529 115.733 128.819 115.369 129.251 115.166C129.991 114.741 130.608 114.137 131.099 113.356C131.429 112.848 131.818 112.412 132.267 112.053C132.856 111.579 133.369 111.095 133.543 110.172C133.657 109.572 134.253 109.391 134.69 109.132C135.127 108.872 135.401 108.628 135.259 108.013C135.192 107.722 135.362 107.549 135.53 107.405C135.781 107.201 136.053 107.005 136.306 106.803C136.697 106.479 136.861 106.044 136.569 105.546C136.276 105.047 136.436 104.988 136.829 104.94C138.058 104.803 138.988 104.022 139.778 102.952C139.951 102.777 140.037 102.555 140.032 102.284C139.972 101.886 140.178 101.789 140.399 101.638C141.258 101.027 142.025 100.288 142.704 99.4165C143.451 98.4892 143.493 97.9507 143.01 96.8564C142.816 96.4186 143.099 96.3358 143.299 96.2124C144.3 95.5854 145.229 94.8709 145.787 93.6398C145.799 93.5961 145.838 93.5651 145.859 93.521C146.303 92.6258 146.274 92.5349 145.444 92.2468C145.305 92.2123 145.19 92.1313 145.097 92.0063C145.35 91.9961 145.581 91.9752 145.822 91.9785C146.51 91.9366 146.707 91.477 146.351 90.75C146.282 90.5731 146.204 90.4021 146.118 90.2357C145.835 89.7628 145.883 89.3325 146.325 89.1404C147.14 88.7865 147.978 88.4982 148.804 88.1814C149.65 87.9033 150.426 87.4548 151.132 86.8381L149.773 86.2256C149.913 86.1332 150.059 86.1083 150.215 86.1484C151.759 86.2159 152.682 85.5049 153.177 83.7494C153.32 83.2099 153.799 82.7922 153.661 82.1299C153.654 82.0852 153.761 81.9817 153.831 81.9469C155.125 81.2387 156.207 80.198 157.281 79.1211C157.62 78.7904 157.979 78.5123 158.337 78.2161C158.643 78.0032 158.908 77.7323 159.128 77.4004C159.219 77.2354 159.321 77.0473 159.212 76.8585C159.102 76.6698 158.949 76.7596 158.808 76.7757C157.998 76.909 157.26 77.3103 156.494 77.6067C156.107 77.7605 155.742 78.0259 155.277 77.9721C155.298 77.5132 155.6 77.3446 155.846 77.1628C157.515 75.9329 159.197 74.7217 160.774 73.3269C161.535 72.6546 162.269 71.9343 163.003 71.2194C163.197 71.0748 163.286 70.8648 163.269 70.5927L160.657 71.8597C160.405 71.9816 160.165 72.1265 159.907 72.2251C159.709 72.2979 159.452 72.5716 159.301 72.2755C159.178 72.0381 159.389 71.7721 159.544 71.5716C160.271 70.6216 161.095 69.8117 162.017 69.1373L162.579 68.7313C162.322 68.4967 162.116 68.6602 161.919 68.7265C160.205 69.2968 158.688 70.3714 157.15 71.3858C153.762 73.6289 150.31 75.7185 146.762 77.5812C146.532 77.6998 146.193 78.0251 146.047 77.7555C145.851 77.3844 146.076 76.9641 146.338 76.6568C146.624 76.3579 146.949 76.1494 147.317 76.0331C148.337 75.6545 149.147 74.8152 150.202 74.2702C150.002 74.1852 149.815 74.2123 149.64 74.3581C147.722 75.2271 145.937 76.4126 144.135 77.5604C141.283 79.3699 138.414 81.1438 135.477 82.7515C131.895 84.7072 128.228 86.4171 124.538 88.0293C122.782 88.7887 121.145 89.8793 119.396 90.6427C116.048 92.1035 112.838 93.9213 109.614 95.699C107.541 96.8245 105.525 98.0771 103.57 99.4629C102.595 100.213 101.824 101.189 101.262 102.393C100.6 103.695 99.8209 104.89 98.9241 105.979C97.8129 107.328 96.7001 108.683 95.6364 110.088C95.2282 110.627 94.985 110.534 94.716 110.003C94.0267 108.657 92.9426 107.627 92.3569 106.235C91.6655 104.594 90.3868 103.703 89.3954 102.461C88.1587 100.905 86.7295 99.6102 85.3554 98.2354C84.3114 97.1871 83.1821 96.3077 82.1147 95.3132C80.9943 94.2603 80.0595 92.9063 79.0102 91.7185C78.7256 91.395 78.7469 90.9027 78.5955 90.5024C78.0742 89.134 77.4547 87.8331 76.735 86.5956C76.3754 85.9698 75.9558 85.3698 76.2099 84.4546C76.3314 83.9925 76.0282 83.4669 75.7724 83.042C74.7996 81.4052 74.1539 79.5555 73.4046 77.7768C72.9919 76.782 72.8871 75.5731 72.4236 74.5541C71.5081 72.536 70.2941 70.7615 69.0531 69.0186C68.8188 68.6344 68.6369 68.2185 68.5127 67.7673C67.9598 66.1888 67.0578 64.8846 66.2979 63.473C66.029 62.966 65.649 62.6422 65.1579 62.5017C64.9728 62.4589 64.8122 62.3642 64.6747 62.2103C64.5399 62.0573 64.4485 61.873 64.4039 61.6551C63.9657 60.1769 63.3374 58.7884 62.9257 57.2927C62.613 56.155 62.1826 56.0349 61.3832 56.8178C61.1124 57.0761 61.0581 56.7931 60.9775 56.6319C60.6047 55.8994 60.2563 55.1397 59.8878 54.4016C59.6118 53.8499 59.3035 53.3332 58.7844 53.0544C58.4323 52.8689 58.269 53.0151 58.2596 53.439C58.231 55.1289 58.2076 56.8153 58.1733 58.498C58.1624 58.6426 58.1848 58.779 58.2415 58.9093C58.2972 59.0374 58.3791 59.1373 58.4871 59.209C58.9363 59.5613 58.9839 60.5303 58.5376 60.8302C58.211 61.0539 58.2464 61.3164 58.2633 61.6185C58.323 62.6922 58.4057 63.7508 58.456 64.8389C58.4754 65.2055 58.462 65.5716 58.4149 65.9352C58.3813 66.1992 58.3606 66.6828 57.9544 66.2197C57.8278 66.1136 57.6904 66.0832 57.5396 66.1278C57.3408 66.1544 57.0992 66.2231 57.276 65.7849C57.3439 65.6137 57.145 65.492 57.0234 65.4211C56.2998 64.9447 55.6128 64.4029 54.9623 63.7958C54.861 63.684 54.744 63.6182 54.6071 63.5986C54.4692 63.5769 54.3405 63.6095 54.2201 63.689C53.9202 63.8758 53.9498 64.2246 54.0252 64.5376C54.3564 65.828 54.7787 67.0749 55.2919 68.2782C55.9883 70.0038 56.7239 71.7091 57.4398 73.4218C57.5137 73.5984 57.5976 73.7767 57.6506 73.9534C57.8794 74.671 57.809 74.7779 57.1839 74.6735C56.5588 74.569 56.3985 74.7957 56.5879 75.553C56.957 77.052 57.4023 78.4761 58.3407 79.6848C60.6282 82.6146 62.822 85.6612 65.0627 88.6493C65.3711 88.9984 65.5802 89.4129 65.6867 89.9005C65.9359 91.8057 67.051 93.1727 67.7758 94.7861C68.8223 97.1219 70.6174 98.656 72.0019 100.615C74.1662 103.673 76.4813 106.612 77.9807 110.24C78.0177 110.328 78.0627 110.414 78.0951 110.503C78.2143 110.844 78.524 111.256 78.2811 111.578C78.0814 111.845 77.7019 111.63 77.3967 111.579C76.1771 111.386 74.9603 110.809 73.7296 111.208C72.7906 111.517 71.8033 111.847 71.1789 112.888C70.9664 113.245 70.8397 113.642 70.8036 114.078C70.7385 114.901 70.5335 115.674 70.1875 116.394C68.9825 118.599 68.4672 120.987 68.9621 123.601C69.1106 124.38 69.3915 125.085 69.804 125.714C69.8993 125.858 70.0126 126.069 70.2089 125.953C70.4044 125.84 70.3039 125.657 70.3057 125.488C70.2778 124.871 70.3367 124.266 70.4849 123.674C70.5847 123.358 70.6481 123.212 70.9432 123.498C71.969 124.473 73.1741 124.813 74.4711 124.846C75.4329 124.827 76.2982 125.16 77.0677 125.843C78.0381 126.745 79.1182 127.382 80.311 127.755C81.1247 127.999 81.9424 128.177 82.7033 128.609C83.0188 128.786 83.2605 128.406 83.5965 128.528C84.2826 128.782 84.7748 129.334 85.2558 129.902C86.395 131.237 87.6739 132.35 89.0905 133.238C90.863 134.413 92.7631 135.001 94.7937 135.008C96.2026 134.997 97.5936 135.402 98.9995 135.241C99.1896 135.201 99.3369 135.277 99.4395 135.47C99.7656 136.049 100.289 136.18 100.809 136.372C101.649 136.687 102.439 137.191 103.332 137.276C103.41 137.284 103.49 137.366 103.559 137.359C105.052 137.226 106.36 138.081 107.753 138.479C108.021 138.569 108.279 138.542 108.528 138.394C109.39 137.823 110.126 138.31 110.852 138.752C113.186 140.17 115.594 141.407 117.959 142.755C121.261 144.65 124.735 146.049 128.07 147.851C129.991 148.887 131.947 149.837 133.91 150.755C135.249 151.383 136.462 152.348 137.836 152.81C138.934 153.188 140.015 153.67 141.154 153.903C142.49 154.182 143.684 154.823 144.739 155.831C145.304 156.36 145.911 156.861 146.722 156.695C146.858 156.668 147.026 156.827 147.166 156.907C149.091 157.977 151.095 158.746 153.182 159.219C153.402 159.286 153.611 159.401 153.796 159.191Z" fill="#F8CA26"/>
</svg>
