<svg width="180" height="145" viewBox="0 0 180 145" fill="none" xmlns="http://www.w3.org/2000/svg">
<path fill-rule="evenodd" clip-rule="evenodd" d="M178.112 9.91781C181.434 15.6459 182.441 24.2373 140.056 48.6058C138.855 49.3008 137.623 49.999 136.375 50.7066L116.862 136.031L102.831 144.104L101.283 69.3375C78.5358 80.7531 68.3844 83.6899 53.5383 88.6432L47.2461 124.834L34.7859 132.001L31.1723 94.6938L0.537354 72.9194L12.9944 65.7588L47.1139 78.2327C58.7588 67.9333 66.4329 60.5974 87.8152 46.6223L24.0286 8.17542L38.0626 0.10376L121.4 25.7559C122.772 24.945 124.121 24.17 125.449 23.4029C167.831 -0.967035 174.797 4.20065 178.112 9.91781Z" fill="#3B3B3B"/>
</svg>
