<svg width="143" height="150" viewBox="0 0 143 150" fill="none" xmlns="http://www.w3.org/2000/svg">
<mask id="mask0_108_770" style="mask-type:luminance" maskUnits="userSpaceOnUse" x="0" y="0" width="143" height="150">
<path d="M0.755859 0.792236H142.925V149.486H0.755859V0.792236Z" fill="white"/>
</mask>
<g mask="url(#mask0_108_770)">
<path d="M117.245 15.6703H110.334V5.36225C110.334 2.88166 108.315 0.883545 105.85 0.883545C103.366 0.883545 101.366 2.89959 101.366 5.36225V15.69H39.7405V5.36225C39.7405 2.88166 37.7209 0.883545 35.2564 0.883545C32.7741 0.883545 30.7724 2.89959 30.7724 5.36225V15.69H26.4192C12.2441 15.69 0.755859 27.1639 0.755859 41.3229V123.776C0.755859 137.935 12.2441 149.411 26.4192 149.411H117.245C131.419 149.411 142.907 137.935 142.907 123.776V41.3229C142.925 27.1639 131.419 15.6703 117.245 15.6703ZM101.347 20.4091V29.718C101.347 32.1986 103.366 34.1967 105.831 34.1967C108.315 34.1967 110.315 32.1807 110.315 29.718V20.7606C113.186 22.4269 115.132 25.5353 115.132 29.0885C115.132 34.4012 110.815 38.7131 105.497 38.7131C100.181 38.7131 95.8634 34.4012 95.8634 29.0885C95.8993 25.2573 98.1234 21.9641 101.347 20.4091ZM30.7544 20.5759V29.718C30.7544 32.1986 32.7741 34.1967 35.2385 34.1967C37.7209 34.1967 39.7226 32.1807 39.7226 29.718V20.5759C42.779 22.1848 44.8542 25.3882 44.8542 29.0705C44.8542 34.3833 40.5369 38.6952 35.2188 38.6952C29.9024 38.6952 25.5852 34.3833 25.5852 29.0705C25.621 25.3882 27.716 22.1848 30.7544 20.5759ZM133.939 123.758C133.939 132.956 126.454 140.416 117.263 140.416H26.4192C17.2089 140.416 9.74198 132.938 9.74198 123.758V55.4639H133.939V123.758Z" fill="#3B3B3B"/>
</g>
<path d="M39.8697 81.3191H27.438C26.4372 81.3191 25.6211 80.5048 25.6211 79.5057V67.0866C25.6211 66.0875 26.4372 65.2732 27.438 65.2732H39.8697C40.8706 65.2732 41.6867 66.0875 41.6867 67.0866V79.5057C41.667 80.5048 40.8706 81.3191 39.8697 81.3191Z" fill="#3B3B3B"/>
<path d="M39.8697 106.787H27.438C26.4372 106.787 25.6211 105.973 25.6211 104.972V92.5529C25.6211 91.5538 26.4372 90.7395 27.438 90.7395H39.8697C40.8706 90.7395 41.6867 91.5538 41.6867 92.5529V104.972C41.667 105.991 40.8706 106.787 39.8697 106.787Z" fill="#3B3B3B"/>
<path d="M39.8697 132.273H27.438C26.4372 132.273 25.6211 131.459 25.6211 130.458V118.039C25.6211 117.04 26.4372 116.225 27.438 116.225H39.8697C40.8706 116.225 41.6867 117.04 41.6867 118.039V130.478C41.667 131.459 40.8706 132.273 39.8697 132.273Z" fill="#3B3B3B"/>
<path d="M65.3643 81.3191H52.9326C51.9317 81.3191 51.1174 80.5048 51.1174 79.5057V67.0866C51.1174 66.0875 51.9317 65.2732 52.9326 65.2732H65.3643C66.3651 65.2732 67.1812 66.0875 67.1812 67.0866V79.5057C67.1812 80.5048 66.3651 81.3191 65.3643 81.3191Z" fill="#3B3B3B"/>
<path d="M65.3643 106.787H52.9326C51.9317 106.787 51.1174 105.973 51.1174 104.972V92.5529C51.1174 91.5538 51.9317 90.7395 52.9326 90.7395H65.3643C66.3651 90.7395 67.1812 91.5538 67.1812 92.5529V104.972C67.1812 105.991 66.3651 106.787 65.3643 106.787Z" fill="#3B3B3B"/>
<path d="M65.3643 132.273H52.9326C51.9317 132.273 51.1174 131.459 51.1174 130.458V118.039C51.1174 117.04 51.9317 116.225 52.9326 116.225H65.3643C66.3651 116.225 67.1812 117.04 67.1812 118.039V130.478C67.1812 131.459 66.3651 132.273 65.3643 132.273Z" fill="#3B3B3B"/>
<path d="M90.879 81.3191H78.4455C77.4465 81.3191 76.6304 80.5048 76.6304 79.5057V67.0866C76.6304 66.0875 77.4465 65.2732 78.4455 65.2732H90.879C91.8799 65.2732 92.6942 66.0875 92.6942 67.0866V79.5057C92.6762 80.5048 91.8799 81.3191 90.879 81.3191Z" fill="#3B3B3B"/>
<path d="M90.879 106.787H78.4455C77.4465 106.787 76.6304 105.973 76.6304 104.972V92.5529C76.6304 91.5538 77.4465 90.7395 78.4455 90.7395H90.879C91.8799 90.7395 92.6942 91.5538 92.6942 92.5529V104.972C92.6762 105.991 91.8799 106.787 90.879 106.787Z" fill="#3B3B3B"/>
<path d="M90.879 132.273H78.4455C77.4465 132.273 76.6304 131.459 76.6304 130.458V118.039C76.6304 117.04 77.4465 116.225 78.4455 116.225H90.879C91.8799 116.225 92.6942 117.04 92.6942 118.039V130.478C92.6762 131.459 91.8799 132.273 90.879 132.273Z" fill="#3B3B3B"/>
<path d="M116.394 81.3191H103.96C102.959 81.3191 102.145 80.5048 102.145 79.5057V67.0866C102.145 66.0875 102.959 65.2732 103.96 65.2732H116.394C117.393 65.2732 118.209 66.0875 118.209 67.0866V79.5057C118.191 80.5048 117.375 81.3191 116.394 81.3191Z" fill="#3B3B3B"/>
<path d="M116.394 106.787H103.96C102.959 106.787 102.145 105.973 102.145 104.972V92.5529C102.145 91.5538 102.959 90.7395 103.96 90.7395H116.394C117.393 90.7395 118.209 91.5538 118.209 92.5529V104.972C118.191 105.991 117.375 106.787 116.394 106.787Z" fill="#3B3B3B"/>
</svg>
