<svg width="118" height="149" viewBox="0 0 118 149" fill="none" xmlns="http://www.w3.org/2000/svg">
<path fill-rule="evenodd" clip-rule="evenodd" d="M86.0898 131.901V104.056C86.0898 101.418 83.8964 99.0901 81.1219 99.0901H59.7367C59.4964 99.0201 59.2579 98.986 58.9835 98.986C58.7431 98.986 58.5028 99.0201 58.2625 99.0901H37.0153C34.2068 99.0901 31.9094 101.282 31.9094 104.056V131.901H6.5498V34.1147C6.5498 32.9167 7.50931 31.9231 8.70913 31.9231H109.53C110.73 31.9231 111.69 32.9167 111.69 34.1147V131.901H86.0898ZM61.1769 131.901V103.337H81.1219C81.4986 103.337 81.8411 103.714 81.8411 104.056V131.901H61.1769ZM56.8241 103.337V131.901H36.1599V104.056C36.1599 103.714 36.5024 103.337 37.0153 103.337H56.8241ZM31.9094 54.7682H19.2296C18.0298 54.7682 17.0703 53.8105 17.0703 52.6107V40.3829C17.0703 39.1848 18.0298 38.2253 19.2296 38.2253H31.9094C33.1433 38.2253 34.1028 39.1848 34.1028 40.3829V52.6107C34.1028 53.8105 33.1433 54.7682 31.9094 54.7682ZM21.423 50.5554H29.854V42.5745H21.423V50.5554ZM54.1501 54.7682H41.4703C40.2723 54.7682 39.3128 53.8105 39.3128 52.6107V40.3829C39.3128 39.1848 40.2723 38.2253 41.4703 38.2253H54.1501C55.384 38.2253 56.3435 39.1848 56.3435 40.3829V52.6107C56.3435 53.8105 55.384 54.7682 54.1501 54.7682ZM43.6637 50.5554H52.0948V42.5745H43.6637V50.5554ZM76.5289 54.7682H63.8491C62.6152 54.7682 61.6557 53.8105 61.6557 52.6107V40.3829C61.6557 39.1848 62.6152 38.2253 63.8491 38.2253H76.5289C77.7287 38.2253 78.6882 39.1848 78.6882 40.3829V52.6107C78.586 53.8105 77.6265 54.7682 76.5289 54.7682ZM65.9062 50.5554H74.3355V42.5745H65.9062V50.5554ZM98.8736 54.7682H86.1939C84.994 54.7682 84.0345 53.8105 84.0345 52.6107V40.3829C84.0345 39.1848 84.994 38.2253 86.1939 38.2253H98.8736C100.108 38.2253 101.067 39.1848 101.067 40.3829V52.6107C100.929 53.8105 99.9694 54.7682 98.8736 54.7682ZM88.2492 50.5554H96.7143V42.5745H88.2492V50.5554ZM31.9094 74.5663H19.2296C18.0298 74.5663 17.0703 73.6068 17.0703 72.4087V60.215C17.0703 58.9811 18.0298 58.0234 19.2296 58.0234H31.9094C33.1433 58.0234 34.1028 58.9811 34.1028 60.215V72.545C34.1028 73.6068 33.1433 74.5663 31.9094 74.5663ZM21.423 70.3534H29.854V62.2703H21.423V70.3534ZM54.1501 74.5663H41.4703C40.2723 74.5663 39.3128 73.6068 39.3128 72.4087V60.215C39.3128 58.9811 40.2723 58.0234 41.4703 58.0234H54.1501C55.384 58.0234 56.3435 58.9811 56.3435 60.215V72.545C56.3435 73.6068 55.384 74.5663 54.1501 74.5663ZM43.6637 70.3534H52.0948V62.2703H43.6637V70.3534ZM76.5289 74.5663H63.8491C62.6152 74.5663 61.6557 73.6068 61.6557 72.4087V60.215C61.6557 58.9811 62.6152 58.0234 63.8491 58.0234H76.5289C77.7287 58.0234 78.6882 58.9811 78.6882 60.215V72.545C78.586 73.6068 77.6265 74.5663 76.5289 74.5663ZM65.9062 70.3534H74.3355V62.2703H65.9062V70.3534ZM98.8736 74.5663H86.1939C84.994 74.5663 84.0345 73.6068 84.0345 72.4087V60.215C84.0345 58.9811 84.994 58.0234 86.1939 58.0234H98.8736C100.108 58.0234 101.067 58.9811 101.067 60.215V72.545C100.929 73.6068 99.9694 74.5663 98.8736 74.5663ZM88.2492 70.3534H96.7143V62.2703H88.2492V70.3534ZM31.9094 94.3966H19.2296C18.0298 94.3966 17.0703 93.4389 17.0703 92.205V80.0112C17.0703 78.8132 18.0298 77.8537 19.2296 77.8537H31.9094C33.1433 77.8537 34.1028 78.8132 34.1028 80.0112V92.205C34.1028 93.4389 33.1433 94.3966 31.9094 94.3966ZM21.423 90.1497H29.854V82.0665H21.423V90.1497ZM54.1501 94.3966H41.4703C40.2723 94.3966 39.3128 93.4389 39.3128 92.205V80.0112C39.3128 78.8132 40.2723 77.8537 41.4703 77.8537H54.1501C55.384 77.8537 56.3435 78.8132 56.3435 80.0112V92.205C56.3435 93.4389 55.384 94.3966 54.1501 94.3966ZM43.6637 90.1497H52.0948V82.0665H43.6637V90.1497ZM76.5289 94.3966H63.8491C62.6152 94.3966 61.6557 93.4389 61.6557 92.205V80.0112C61.6557 78.8132 62.6152 77.8537 63.8491 77.8537H76.5289C77.7287 77.8537 78.6882 78.8132 78.6882 80.0112V92.205C78.586 93.4389 77.6265 94.3966 76.5289 94.3966ZM65.9062 90.1497H74.3355V82.0665H65.9062V90.1497ZM98.8736 94.3966H86.1939C84.994 94.3966 84.0345 93.4389 84.0345 92.205V80.0112C84.0345 78.8132 84.994 77.8537 86.1939 77.8537H98.8736C100.108 77.8537 101.067 78.8132 101.067 80.0112V92.205C100.929 93.4389 99.9694 94.3966 98.8736 94.3966ZM88.2492 90.1497H96.7143V82.0665H88.2492V90.1497Z" fill="#3B3B3B"/>
<mask id="mask0_108_756" style="mask-type:luminance" maskUnits="userSpaceOnUse" x="0" y="135" width="118" height="14">
<path d="M0.141846 135.539H117.859V148.93H0.141846V135.539Z" fill="white"/>
</mask>
<g mask="url(#mask0_108_756)">
<path fill-rule="evenodd" clip-rule="evenodd" d="M115.7 148.891H2.30117C1.10135 148.891 0.141846 147.897 0.141846 146.698V138.136C0.141846 136.903 1.10135 135.944 2.30117 135.944H115.7C116.9 135.944 117.859 136.903 117.859 138.136V146.698C117.755 147.897 116.9 148.891 115.7 148.891Z" fill="#3B3B3B"/>
</g>
<path fill-rule="evenodd" clip-rule="evenodd" d="M10.5259 27.8823V25.0379C10.5259 23.8399 11.4854 22.8804 12.7193 22.8804H105.041C106.275 22.8804 107.235 23.8399 107.235 25.0379V27.8823H10.5259Z" fill="#3B3B3B"/>
<mask id="mask1_108_756" style="mask-type:luminance" maskUnits="userSpaceOnUse" x="13" y="0" width="90" height="19">
<path d="M13.9155 0.236206H102.986V18.9205H13.9155V0.236206Z" fill="white"/>
</mask>
<g mask="url(#mask1_108_756)">
<path fill-rule="evenodd" clip-rule="evenodd" d="M14.1577 18.8056V3.90548C14.1577 1.98827 15.8382 0.275513 17.8935 0.275513H99.1122C101.169 0.275513 102.882 1.85017 102.882 3.90548V18.8056H14.1577ZM31.1902 11.7142H29.1349V14.9694C29.1349 16.0652 28.1736 17.0247 26.9756 17.0247C25.7417 17.0247 24.7822 16.0652 24.7822 15.0034V4.24803C24.7822 3.01592 25.7417 2.05642 26.9756 2.05642C28.1736 2.05642 29.1349 3.01592 29.1349 4.24803V7.36507H31.1902V4.24803C31.1902 3.01592 32.1497 2.05642 33.3836 2.05642C34.5835 2.05642 35.543 3.01592 35.543 4.24803V14.9694C35.4389 16.0652 34.4454 17.0247 33.3836 17.0247C32.1497 17.0247 31.1902 16.0652 31.1902 15.0034V11.7142ZM61.6558 17.0247C60.4559 17.0247 59.4964 16.0652 59.4964 15.0034V6.54366H58.8795C57.6814 6.54366 56.6879 5.55009 56.6879 4.35026C56.6879 3.15223 57.7837 2.29675 58.8795 2.29675H64.5683C65.7682 2.29675 66.7277 3.25445 66.7277 4.48836C66.7277 5.68639 65.7682 6.54366 64.5683 6.54366H63.8492V15.0034C63.8492 16.0652 62.8556 17.0247 61.6558 17.0247ZM78.2076 11.8523H74.7122V12.8118H78.2076C79.4415 12.8118 80.401 13.7695 80.401 15.0034C80.401 16.2015 79.4415 17.0247 78.2076 17.0247H72.5546C71.3207 17.0247 70.3612 16.0652 70.3612 15.0034V4.35026C70.3612 3.52885 70.8742 2.87783 71.5593 2.53528C71.7996 2.39897 72.1081 2.33082 72.3825 2.29675H78.2076C79.4415 2.29675 80.401 3.25445 80.401 4.48836C80.401 5.68639 79.4415 6.54366 78.2076 6.54366H74.7122V7.50137H78.2076C79.4415 7.50137 80.401 8.46088 80.401 9.6607C80.401 10.8928 79.4415 11.8523 78.2076 11.8523ZM90.3063 17.0247H86.1939C84.9941 17.0247 84.0346 16.0652 84.0346 15.0034V4.48836C84.0346 3.25445 84.9941 2.29675 86.1939 2.29675C87.3919 2.29675 88.3873 3.25445 88.3873 4.48836V12.9481H90.3063C91.5043 12.9481 92.4638 13.9076 92.4638 15.1057C92.4638 16.3055 91.5043 17.0247 90.3063 17.0247ZM46.7826 17.0247C42.6702 17.0247 39.3128 13.6673 39.3128 9.6607C39.3128 5.55009 42.6702 2.19272 46.7826 2.19272C50.895 2.19272 54.1501 5.55009 54.1501 9.6607C54.1501 13.7695 50.7928 17.0247 46.7826 17.0247ZM46.7826 6.40557C44.9676 6.40557 43.5274 7.84393 43.5274 9.6607C43.5274 11.4757 44.9676 12.8118 46.7826 12.8118C48.5994 12.8118 49.9355 11.3717 49.9355 9.6607C49.9355 7.84393 48.4971 6.40557 46.7826 6.40557Z" fill="#3B3B3B"/>
</g>
</svg>
