<svg width="262" height="205" viewBox="0 0 262 205" fill="none" xmlns="http://www.w3.org/2000/svg">
<path d="M9.2455 0.958695C8.6301 4.74815 8.07036 8.45254 7.5601 12.0693L4.07087 11.3105C4.58321 7.66576 5.1471 3.93785 5.76664 0.124878L9.2455 0.958695ZM7.0684 15.6613C6.57245 19.3634 6.13011 22.9759 5.74548 26.4969L2.24171 25.8583C2.63048 22.3029 3.07492 18.6624 3.5709 14.9279L7.0684 15.6613ZM5.35446 30.2209C4.98612 33.9073 4.68168 37.4941 4.43704 40.9723L0.920751 40.4799C1.16544 36.9584 1.47609 33.3417 1.84653 29.6165L5.35446 30.2209ZM4.1962 44.7297C3.97383 48.538 3.83185 52.2174 3.76822 55.7635L0.239367 55.4713C0.303055 51.8711 0.451261 48.1402 0.675748 44.2824L4.1962 44.7297ZM3.72727 59.2721C3.71674 63.1827 3.80107 66.9199 3.99052 70.4953L0.467532 70.4759C0.276098 66.8312 0.187742 63.0202 0.200409 59.0384L3.72727 59.2721ZM4.21091 74.0078C4.49465 77.9178 4.91033 81.6159 5.45384 85.093L1.97361 85.4807C1.41376 81.8922 0.985851 78.0918 0.691944 74.073L4.21091 74.0078ZM6.057 88.5912C6.77914 92.4236 7.67446 95.9709 8.73679 99.2306L5.40403 100.242C4.29045 96.8167 3.35415 93.1046 2.59515 89.1055L6.057 88.5912ZM10.0107 102.798C11.4163 106.402 13.0631 109.598 14.9388 112.391L12.1029 114.416C10.0588 111.376 8.27439 107.914 6.76004 104.031L10.0107 102.798ZM17.0306 115.209C19.3219 118.016 21.9184 120.315 24.8138 122.114L23.1579 125.281C19.9005 123.259 16.9833 120.676 14.4166 117.531L17.0306 115.209ZM27.8123 123.748C30.7843 125.15 34.0449 126.095 37.59 126.585L37.3431 130.264C33.4421 129.727 29.84 128.68 26.5348 127.118L27.8123 123.748ZM40.9831 126.907C44.1684 127.082 47.5599 126.924 51.1616 126.432L51.8201 130.116C48.0105 130.633 44.4091 130.801 41.0139 130.615L40.9831 126.907ZM54.4547 125.898C57.6224 125.309 60.9426 124.476 64.4133 123.407L65.5864 126.972C62.0004 128.084 58.5588 128.945 55.2656 129.555L54.4547 125.898ZM67.6618 122.343C70.7538 121.286 73.9551 120.043 77.2719 118.618L78.7661 122.068C75.3794 123.525 72.1019 124.797 68.9337 125.884L67.6618 122.343ZM80.4075 117.233C83.432 115.856 86.5431 114.342 89.7407 112.68L91.4532 116.029C88.202 117.716 85.0395 119.259 81.9676 120.652L80.4075 117.233ZM92.7428 111.092C95.3619 109.68 98.0347 108.179 100.763 106.581L102.616 109.855C99.8501 111.47 97.1465 112.99 94.4944 114.417L92.7428 111.092Z" fill="#F8CA26"/>
<path d="M139.111 162.812L145.26 153.816L148.165 156.103L142.016 165.099L139.111 162.812ZM147.164 150.962C149.218 147.855 151.157 144.86 152.98 141.968L155.955 144.146C154.12 147.055 152.168 150.077 150.098 153.202L147.164 150.962ZM154.835 138.995C156.8 135.805 158.62 132.757 160.288 129.844L163.34 131.896C161.651 134.84 159.814 137.928 157.823 141.147L154.835 138.995ZM162.006 126.79C163.864 123.443 165.503 120.295 166.93 117.336L170.093 119.175C168.637 122.19 166.971 125.399 165.08 128.804L162.006 126.79ZM168.362 114.278C169.996 110.673 171.277 107.398 172.2 104.45L175.559 105.804C174.591 108.892 173.258 112.304 171.564 116.039L168.362 114.278ZM173.186 100.89C174.162 96.7344 174.264 93.4568 173.497 91.0658L176.832 90.0699C177.823 93.1628 177.748 97.1298 176.613 101.98L173.186 100.89ZM172.144 88.6371C170.518 86.8308 167.698 85.9637 163.687 86.0448L163.409 82.3318C168.505 82.232 172.244 83.5129 174.637 86.1707L172.144 88.6371ZM160.16 86.3192C157.307 86.6932 154.047 87.428 150.374 88.5255L149.222 84.9508C153.065 83.8016 156.492 83.0278 159.522 82.6371L160.16 86.3192ZM147.184 89.5415C144.199 90.5384 140.983 91.7496 137.53 93.1726L136.077 89.7039C139.598 88.2551 142.881 87.018 145.934 85.9952L147.184 89.5415ZM134.284 94.5439C131.319 95.8232 128.202 97.2483 124.924 98.8122L123.308 95.4131C126.623 93.8321 129.779 92.3944 132.781 91.098L134.284 94.5439ZM121.741 100.354C118.792 101.799 115.731 103.355 112.543 105.018L110.827 101.671C114.035 99.9983 117.125 98.4288 120.094 96.9747L121.741 100.354ZM109.467 106.64L104.196 109.479L102.442 106.149L107.713 103.31L109.467 106.64Z" fill="#F8CA26"/>
<path d="M86.6738 72.1291L85.4821 83.4229L81.9783 82.795L83.1659 71.5031L86.6738 72.1291ZM85.1262 87.0496L84.1429 97.8314L80.6287 97.2569L81.6161 86.4732L85.1262 87.0496ZM83.8238 101.625L83.0048 112.666L79.4844 112.154L80.3075 101.111L83.8238 101.625ZM82.7725 116.182C82.5336 120.062 82.3339 123.812 82.1735 127.429L78.6529 127.036C78.8113 123.392 79.011 119.621 79.2541 115.717L82.7725 116.182ZM82.0295 131.072C81.8873 134.902 81.7947 138.581 81.7538 142.1L78.2249 141.83C78.27 138.276 78.3626 134.565 78.5027 130.708L82.0295 131.072ZM81.7249 145.841C81.7145 149.687 81.768 153.335 81.8856 156.787L78.3586 156.694C78.2431 153.193 78.1896 149.501 78.2001 145.612L81.7249 145.841ZM82.0398 160.579C82.2309 164.504 82.5108 168.157 82.8775 171.532L79.3728 171.736C79 168.283 78.714 164.552 78.5148 160.544L82.0398 160.579ZM83.3323 175.228C83.8854 179.268 84.577 182.85 85.4152 185.97L82.023 186.776C81.1438 183.491 80.4175 179.747 79.8377 175.541L83.3323 175.228ZM86.4034 189.253C87.7858 193.326 89.4555 196.366 91.4102 198.366L89.0326 200.953C86.6524 198.516 84.6684 194.968 83.0912 190.308L86.4034 189.253ZM93.8117 200.21C96.2488 201.534 99.1668 201.562 102.566 200.294L103.918 203.803C99.572 205.422 95.7157 205.318 92.347 203.488L93.8117 200.21ZM105.533 198.921C108.084 197.536 110.839 195.532 113.808 192.916L116.165 195.823C113.015 198.597 110.064 200.74 107.296 202.242L105.533 198.921ZM116.166 190.744C118.451 188.563 120.845 186.044 123.344 183.191L126.002 185.797C123.437 188.724 120.975 191.311 118.622 193.562L116.166 190.744ZM125.565 180.602C127.692 178.077 129.886 175.321 132.158 172.341L134.962 174.766C132.658 177.794 130.426 180.588 128.269 183.154L125.565 180.602ZM134.229 169.588C135.828 167.436 137.46 165.171 139.128 162.799L142.006 165.125C140.322 167.516 138.671 169.805 137.058 171.98L134.229 169.588Z" fill="#F8CA26"/>
<path d="M260.488 55.0831L250.065 51.6571L250.925 48.1169L261.354 51.5455L260.488 55.0831ZM246.691 50.5858L236.414 47.433L237.214 43.8716L247.487 47.0263L246.691 50.5858ZM232.947 46.4097C229.487 45.3998 226.085 44.439 222.744 43.5362L223.429 39.9415C226.79 40.8564 230.213 41.8185 233.696 42.8342L232.947 46.4097ZM219.246 42.5974C215.7 41.6598 212.225 40.7808 208.822 39.9606L209.409 36.3465C212.838 37.1707 216.34 38.0535 219.909 38.997L219.246 42.5974ZM205.44 39.1633C201.846 38.3285 198.332 37.5595 194.9 36.8606L195.369 33.2195C198.834 33.9249 202.375 34.6978 206.002 35.539L205.44 39.1633ZM191.467 36.1788C187.872 35.4846 184.371 34.8612 180.957 34.3213L181.276 30.6468C184.729 31.1957 188.267 31.8237 191.901 32.5269L191.467 36.1788ZM177.482 33.7883C173.877 33.2556 170.375 32.8159 166.98 32.4675L167.114 28.7703C170.559 29.1283 174.108 29.5732 177.764 30.1092L177.482 33.7883ZM163.493 32.1347C159.867 31.8168 156.369 31.6023 152.996 31.4975L152.889 27.7869C156.324 27.8957 159.886 28.1079 163.575 28.4342L163.493 32.1347ZM149.539 31.4261C145.903 31.3887 142.427 31.4826 139.104 31.7009L138.67 27.9952C142.08 27.7695 145.64 27.6745 149.36 27.7109L149.539 31.4261ZM135.741 31.9751C132.152 32.3211 128.75 32.8241 125.545 33.4955L124.664 29.8497C127.984 29.1576 131.502 28.6339 135.214 28.2742L135.741 31.9751ZM122.179 34.2733C118.721 35.1532 115.51 36.2436 112.545 37.5336L111.034 34.0915C114.156 32.7294 117.532 31.5848 121.159 30.6595L122.179 34.2733ZM109.514 38.973C106.424 40.5641 103.638 42.404 101.158 44.4972L98.8561 41.549C101.521 39.2948 104.51 37.3187 107.814 35.6181L109.514 38.973ZM98.665 46.7906C96.2773 49.1816 94.2248 51.8558 92.5032 54.8151L89.4661 52.7406C91.332 49.5311 93.5618 46.6241 96.1555 44.0301L98.665 46.7906ZM90.9091 57.8345C89.4735 60.8512 88.3442 64.1318 87.5192 67.6721L84.09 66.5885C84.975 62.7883 86.191 59.2624 87.74 56.0153L90.9091 57.8345ZM86.8218 71.1752L86.6519 72.2259L83.1709 71.3984L83.3409 70.3478L86.8218 71.1752Z" fill="#F8CA26"/>
</svg>
