<svg width="432" height="432" viewBox="0 0 432 432" fill="none" xmlns="http://www.w3.org/2000/svg">
<path d="M124 307.797L251.547 252.188L307.516 125L179.969 180.609L124 307.797ZM200.328 200.969C200.828 200.469 201.349 199.995 201.896 199.547C202.443 199.094 203.01 198.677 203.599 198.281C204.182 197.891 204.792 197.526 205.411 197.193C206.036 196.859 206.677 196.557 207.328 196.286C207.979 196.016 208.646 195.776 209.323 195.568C210 195.365 210.682 195.193 211.375 195.052C212.068 194.917 212.771 194.813 213.474 194.745C214.177 194.672 214.88 194.635 215.589 194.635C216.297 194.635 217 194.672 217.703 194.74C218.406 194.807 219.104 194.911 219.802 195.052C220.495 195.188 221.177 195.359 221.854 195.563C222.531 195.771 223.198 196.005 223.849 196.276C224.505 196.547 225.141 196.849 225.766 197.182C226.391 197.516 226.995 197.88 227.583 198.271C228.172 198.667 228.74 199.083 229.286 199.531C229.833 199.979 230.354 200.453 230.854 200.953C231.354 201.453 231.828 201.979 232.276 202.526C232.724 203.073 233.146 203.641 233.542 204.224C233.932 204.813 234.297 205.422 234.63 206.042C234.964 206.667 235.266 207.307 235.536 207.958C235.807 208.609 236.042 209.276 236.25 209.953C236.453 210.63 236.625 211.313 236.766 212.005C236.901 212.703 237.005 213.401 237.073 214.104C237.146 214.807 237.177 215.51 237.177 216.219C237.177 216.927 237.146 217.63 237.073 218.333C237.005 219.036 236.901 219.74 236.766 220.432C236.625 221.125 236.453 221.807 236.25 222.484C236.042 223.161 235.807 223.828 235.536 224.479C235.266 225.135 234.964 225.771 234.63 226.396C234.297 227.021 233.932 227.625 233.542 228.214C233.146 228.802 232.724 229.365 232.276 229.911C231.828 230.458 231.354 230.984 230.854 231.484C230.354 231.984 229.833 232.458 229.286 232.906C228.74 233.354 228.172 233.776 227.583 234.167C226.995 234.557 226.391 234.922 225.766 235.255C225.141 235.589 224.505 235.891 223.849 236.161C223.198 236.432 222.531 236.667 221.854 236.875C221.177 237.078 220.495 237.25 219.802 237.385C219.104 237.526 218.406 237.63 217.703 237.698C217 237.766 216.297 237.802 215.589 237.802C214.88 237.802 214.177 237.766 213.474 237.698C212.771 237.625 212.068 237.521 211.375 237.385C210.682 237.245 210 237.073 209.323 236.87C208.646 236.661 207.979 236.427 207.328 236.156C206.677 235.885 206.036 235.578 205.411 235.245C204.792 234.911 204.182 234.552 203.599 234.156C203.01 233.766 202.443 233.344 201.896 232.896C201.349 232.443 200.828 231.969 200.328 231.469C199.828 230.969 199.354 230.448 198.906 229.901C198.458 229.354 198.036 228.786 197.646 228.203C197.255 227.615 196.891 227.01 196.557 226.385C196.229 225.76 195.927 225.125 195.656 224.474C195.385 223.818 195.146 223.156 194.943 222.479C194.74 221.802 194.568 221.12 194.427 220.427C194.292 219.734 194.188 219.036 194.12 218.333C194.052 217.63 194.016 216.927 194.016 216.219C194.016 215.51 194.052 214.807 194.12 214.104C194.188 213.401 194.292 212.703 194.427 212.01C194.568 211.318 194.74 210.635 194.943 209.958C195.146 209.281 195.385 208.62 195.656 207.969C195.927 207.313 196.229 206.677 196.557 206.052C196.891 205.432 197.255 204.823 197.646 204.24C198.036 203.651 198.458 203.083 198.906 202.536C199.354 201.99 199.828 201.469 200.328 200.969Z" fill="#E7E6E6"/>
<mask id="mask0_401_361" style="mask-type:luminance" maskUnits="userSpaceOnUse" x="0" y="0" width="432" height="432">
<path d="M0 0H431.635V431.635H0V0Z" fill="white"/>
</mask>
<g mask="url(#mask0_401_361)">
<path d="M417.245 212.219H431.635C431.578 208.766 431.438 205.313 431.214 201.859C430.99 198.411 430.688 194.969 430.297 191.531C429.906 188.094 429.438 184.672 428.885 181.255C428.333 177.844 427.698 174.448 426.979 171.063C426.26 167.682 425.464 164.318 424.589 160.974C423.708 157.63 422.75 154.307 421.714 151.01C420.677 147.714 419.557 144.443 418.365 141.198C417.167 137.953 415.896 134.74 414.547 131.552C413.198 128.37 411.771 125.219 410.271 122.104C408.771 118.99 407.198 115.917 405.547 112.875C403.896 109.833 402.177 106.839 400.385 103.88C398.594 100.927 396.729 98.0156 394.797 95.1458C392.865 92.2813 390.865 89.4583 388.792 86.6875C386.724 83.9167 384.594 81.1979 382.391 78.5313C380.193 75.8646 377.932 73.25 375.609 70.6875C373.281 68.1302 370.896 65.625 368.453 63.1823C366.01 60.7396 363.505 58.3542 360.948 56.026C358.385 53.7031 355.771 51.4427 353.104 49.2448C350.438 47.0417 347.719 44.9115 344.948 42.8438C342.177 40.7708 339.354 38.7708 336.49 36.8385C333.625 34.9063 330.708 33.0417 327.755 31.25C324.797 29.4583 321.802 27.7396 318.76 26.0885C315.724 24.4375 312.646 22.8646 309.531 21.3646C306.417 19.8646 303.266 18.4375 300.083 17.0885C296.901 15.7396 293.682 14.4688 290.443 13.2708C287.198 12.0781 283.922 10.9583 280.625 9.92187C277.328 8.88542 274.005 7.92708 270.661 7.04687C267.318 6.17187 263.953 5.375 260.573 4.65625C257.188 3.9375 253.792 3.30729 250.38 2.75C246.964 2.19792 243.542 1.72917 240.104 1.33854C236.672 0.947916 233.224 0.645833 229.776 0.421875C226.328 0.197916 222.87 0.0572917 219.417 0V14.3906C219.417 14.8646 219.323 15.3229 219.141 15.7656C218.958 16.2031 218.698 16.5938 218.359 16.9323C218.026 17.2708 217.635 17.5313 217.193 17.7135C216.755 17.8958 216.297 17.9844 215.818 17.9844C215.339 17.9844 214.88 17.8958 214.443 17.7135C214 17.5313 213.609 17.2708 213.276 16.9323C212.938 16.5938 212.677 16.2031 212.495 15.7656C212.313 15.3229 212.219 14.8646 212.219 14.3906V0C208.766 0.0572917 205.307 0.197916 201.859 0.421875C198.406 0.645833 194.964 0.947916 191.531 1.33854C188.094 1.72917 184.672 2.19792 181.255 2.75C177.844 3.30729 174.448 3.9375 171.063 4.65625C167.682 5.375 164.318 6.17187 160.974 7.04687C157.63 7.92708 154.307 8.88542 151.01 9.92187C147.714 10.9583 144.438 12.0781 141.193 13.2708C137.948 14.4688 134.734 15.7396 131.552 17.0885C128.37 18.4375 125.219 19.8646 122.104 21.3646C118.99 22.8646 115.911 24.4375 112.875 26.0885C109.833 27.7396 106.839 29.4583 103.88 31.25C100.922 33.0417 98.0104 34.9063 95.1458 36.8385C92.2813 38.7708 89.4583 40.7708 86.6875 42.8438C83.9167 44.9115 81.1979 47.0417 78.5313 49.2448C75.8646 51.4427 73.25 53.7031 70.6875 56.026C68.1302 58.3542 65.625 60.7396 63.1823 63.1823C60.7396 65.625 58.3542 68.1302 56.026 70.6875C53.7031 73.25 51.4427 75.8646 49.2396 78.5313C47.0417 81.1979 44.9115 83.9167 42.8385 86.6875C40.7708 89.4583 38.7708 92.2813 36.8385 95.1458C34.9063 98.0156 33.0417 100.927 31.25 103.88C29.4583 106.839 27.7396 109.833 26.0885 112.875C24.4375 115.917 22.8646 118.99 21.3646 122.104C19.8646 125.219 18.4375 128.37 17.0885 131.552C15.7396 134.74 14.4687 137.953 13.2708 141.198C12.0781 144.443 10.9583 147.714 9.92187 151.01C8.88542 154.307 7.92708 157.63 7.04687 160.974C6.17187 164.318 5.36979 167.682 4.65625 171.063C3.9375 174.448 3.30208 177.844 2.75 181.255C2.19792 184.672 1.72917 188.094 1.33854 191.531C0.947917 194.969 0.645833 198.411 0.421875 201.859C0.197917 205.313 0.0572917 208.766 0 212.219H14.3854C14.8646 212.219 15.3229 212.313 15.7656 212.495C16.2031 212.677 16.5937 212.938 16.9323 213.276C17.2708 213.609 17.526 214 17.7135 214.443C17.8958 214.88 17.9844 215.339 17.9844 215.818C17.9844 216.297 17.8958 216.755 17.7135 217.193C17.526 217.635 17.2708 218.026 16.9323 218.359C16.5937 218.698 16.2031 218.958 15.7656 219.141C15.3229 219.323 14.8646 219.417 14.3854 219.417H0C0.0572917 222.87 0.197917 226.328 0.421875 229.776C0.645833 233.229 0.947917 236.672 1.33854 240.104C1.72917 243.542 2.19792 246.964 2.75 250.38C3.30208 253.792 3.9375 257.188 4.65625 260.573C5.36979 263.953 6.17187 267.318 7.04687 270.661C7.92708 274.005 8.88542 277.328 9.92187 280.625C10.9583 283.927 12.0781 287.198 13.2708 290.443C14.4687 293.688 15.7396 296.901 17.0885 300.083C18.4375 303.266 19.8646 306.417 21.3646 309.531C22.8646 312.646 24.4375 315.724 26.0885 318.76C27.7396 321.802 29.4583 324.797 31.25 327.755C33.0417 330.714 34.9063 333.625 36.8385 336.49C38.7708 339.359 40.7708 342.177 42.8385 344.948C44.9115 347.719 47.0417 350.438 49.2396 353.104C51.4427 355.776 53.7031 358.385 56.026 360.948C58.3542 363.505 60.7396 366.01 63.1823 368.453C65.625 370.901 68.1302 373.281 70.6875 375.609C73.25 377.932 75.8646 380.193 78.5313 382.396C81.1979 384.594 83.9167 386.724 86.6875 388.797C89.4583 390.865 92.2813 392.865 95.1458 394.797C98.0104 396.729 100.922 398.594 103.88 400.385C106.839 402.177 109.833 403.901 112.875 405.547C115.911 407.198 118.99 408.771 122.104 410.271C125.219 411.771 128.37 413.198 131.552 414.547C134.734 415.896 137.948 417.172 141.193 418.365C144.438 419.557 147.714 420.677 151.01 421.714C154.307 422.75 157.63 423.708 160.974 424.589C164.318 425.469 167.682 426.266 171.063 426.979C174.448 427.698 177.844 428.333 181.255 428.885C184.672 429.438 188.094 429.911 191.531 430.297C194.964 430.688 198.406 430.99 201.859 431.214C205.307 431.438 208.766 431.578 212.219 431.635V417.25C212.219 416.771 212.313 416.313 212.495 415.87C212.677 415.432 212.938 415.042 213.276 414.703C213.609 414.365 214 414.109 214.443 413.927C214.88 413.74 215.339 413.651 215.818 413.651C216.297 413.651 216.755 413.74 217.193 413.927C217.635 414.109 218.026 414.365 218.359 414.703C218.698 415.042 218.958 415.432 219.141 415.87C219.323 416.313 219.417 416.771 219.417 417.25V431.635C222.87 431.578 226.328 431.438 229.776 431.214C233.224 430.99 236.672 430.688 240.104 430.297C243.542 429.911 246.964 429.438 250.38 428.885C253.792 428.333 257.188 427.698 260.573 426.979C263.953 426.266 267.318 425.469 270.661 424.589C274.005 423.708 277.328 422.75 280.625 421.714C283.922 420.677 287.198 419.557 290.443 418.365C293.682 417.172 296.901 415.896 300.083 414.547C303.266 413.198 306.417 411.771 309.531 410.271C312.646 408.771 315.724 407.198 318.76 405.547C321.802 403.901 324.797 402.177 327.755 400.385C330.708 398.594 333.625 396.729 336.49 394.797C339.354 392.865 342.177 390.865 344.948 388.797C347.719 386.724 350.438 384.594 353.104 382.396C355.771 380.193 358.385 377.932 360.948 375.609C363.505 373.281 366.01 370.901 368.453 368.453C370.896 366.01 373.281 363.505 375.609 360.948C377.932 358.385 380.193 355.776 382.391 353.104C384.594 350.438 386.724 347.719 388.792 344.948C390.865 342.177 392.865 339.359 394.797 336.49C396.729 333.625 398.594 330.714 400.385 327.755C402.177 324.797 403.896 321.802 405.547 318.76C407.198 315.724 408.771 312.646 410.271 309.531C411.771 306.417 413.198 303.266 414.547 300.083C415.896 296.901 417.167 293.688 418.365 290.443C419.557 287.198 420.677 283.927 421.714 280.625C422.75 277.328 423.708 274.005 424.589 270.661C425.464 267.318 426.26 263.953 426.979 260.573C427.698 257.188 428.333 253.792 428.885 250.38C429.438 246.964 429.906 243.542 430.297 240.104C430.688 236.672 430.99 233.229 431.214 229.776C431.438 226.328 431.578 222.87 431.635 219.417H417.245C416.771 219.417 416.313 219.323 415.87 219.141C415.432 218.958 415.042 218.698 414.703 218.359C414.365 218.026 414.104 217.635 413.922 217.193C413.74 216.755 413.651 216.297 413.651 215.818C413.651 215.339 413.74 214.88 413.922 214.443C414.104 214 414.365 213.609 414.703 213.276C415.042 212.938 415.432 212.677 415.87 212.495C416.313 212.313 416.771 212.219 417.245 212.219ZM215.818 395.667C212.875 395.667 209.932 395.594 206.995 395.448C204.052 395.307 201.12 395.089 198.188 394.802C195.26 394.51 192.339 394.151 189.427 393.719C186.516 393.286 183.62 392.786 180.729 392.208C177.844 391.635 174.974 390.99 172.12 390.276C169.26 389.563 166.427 388.776 163.609 387.922C160.792 387.068 158 386.146 155.229 385.151C152.458 384.161 149.714 383.104 146.995 381.974C144.271 380.849 141.583 379.656 138.922 378.401C136.26 377.141 133.635 375.818 131.036 374.432C128.443 373.042 125.88 371.594 123.359 370.078C120.833 368.568 118.349 366.99 115.901 365.354C113.453 363.719 111.047 362.026 108.682 360.271C106.318 358.521 104 356.708 101.724 354.844C99.4479 352.974 97.2188 351.052 95.0365 349.078C92.8594 347.099 90.7292 345.073 88.6458 342.99C86.5625 340.906 84.5365 338.776 82.5573 336.599C80.5833 334.417 78.6615 332.188 76.7917 329.911C74.9271 327.635 73.1146 325.318 71.3646 322.953C69.6094 320.589 67.9167 318.182 66.2813 315.734C64.6458 313.286 63.0677 310.802 61.5573 308.276C60.0417 305.755 58.5938 303.193 57.2083 300.599C55.8177 298 54.4948 295.375 53.2344 292.714C51.9792 290.052 50.7865 287.365 49.6615 284.641C48.5313 281.922 47.474 279.177 46.4844 276.406C45.4896 273.635 44.5677 270.844 43.7135 268.026C42.8594 265.208 42.0729 262.375 41.3594 259.516C40.6458 256.661 40 253.792 39.4271 250.906C38.849 248.016 38.349 245.12 37.9167 242.208C37.4844 239.297 37.125 236.375 36.8333 233.448C36.5469 230.516 36.3281 227.583 36.1875 224.641C36.0417 221.703 35.9688 218.76 35.9688 215.818C35.9688 212.875 36.0417 209.932 36.1875 206.995C36.3281 204.052 36.5469 201.12 36.8333 198.188C37.125 195.26 37.4844 192.339 37.9167 189.427C38.349 186.516 38.849 183.62 39.4271 180.729C40 177.844 40.6458 174.974 41.3594 172.12C42.0729 169.266 42.8594 166.427 43.7135 163.609C44.5677 160.797 45.4896 158 46.4844 155.229C47.474 152.458 48.5313 149.714 49.6615 146.995C50.7865 144.276 51.9792 141.583 53.2344 138.922C54.4948 136.26 55.8177 133.635 57.2083 131.036C58.5938 128.443 60.0417 125.88 61.5573 123.359C63.0677 120.833 64.6458 118.349 66.2813 115.901C67.9167 113.453 69.6094 111.047 71.3646 108.682C73.1146 106.318 74.9271 104 76.7917 101.724C78.6615 99.4479 80.5833 97.2188 82.5573 95.0417C84.5365 92.8594 86.5625 90.7292 88.6458 88.6458C90.7292 86.5677 92.8594 84.5365 95.0365 82.5573C97.2188 80.5833 99.4479 78.6615 101.724 76.7917C104 74.9271 106.318 73.1146 108.682 71.3646C111.047 69.6094 113.453 67.9167 115.901 66.2813C118.349 64.6458 120.833 63.0729 123.359 61.5573C125.88 60.0417 128.443 58.5938 131.036 57.2083C133.635 55.8177 136.26 54.4948 138.922 53.2396C141.583 51.9792 144.271 50.7865 146.995 49.6615C149.714 48.5365 152.458 47.474 155.229 46.4844C158 45.4896 160.792 44.5677 163.609 43.7135C166.427 42.8594 169.26 42.0729 172.12 41.3594C174.974 40.6458 177.844 40 180.729 39.4271C183.62 38.8542 186.516 38.349 189.427 37.9167C192.339 37.4844 195.26 37.125 198.188 36.8385C201.12 36.5469 204.052 36.3333 206.995 36.1875C209.932 36.0417 212.875 35.9688 215.818 35.9688C218.76 35.9688 221.703 36.0417 224.641 36.1875C227.583 36.3333 230.516 36.5469 233.448 36.8385C236.375 37.125 239.297 37.4844 242.208 37.9167C245.12 38.349 248.016 38.8542 250.906 39.4271C253.792 40 256.661 40.6458 259.516 41.3594C262.37 42.0729 265.208 42.8594 268.026 43.7135C270.844 44.5677 273.635 45.4896 276.406 46.4844C279.177 47.474 281.922 48.5365 284.641 49.6615C287.359 50.7865 290.052 51.9792 292.714 53.2396C295.375 54.4948 298 55.8177 300.599 57.2083C303.193 58.5938 305.755 60.0417 308.276 61.5573C310.802 63.0729 313.286 64.6458 315.734 66.2813C318.182 67.9167 320.589 69.6094 322.953 71.3646C325.318 73.1146 327.635 74.9271 329.911 76.7917C332.188 78.6615 334.417 80.5833 336.594 82.5573C338.776 84.5365 340.906 86.5677 342.99 88.6458C345.073 90.7292 347.099 92.8594 349.078 95.0417C351.052 97.2188 352.974 99.4479 354.844 101.724C356.708 104 358.521 106.318 360.271 108.682C362.026 111.047 363.719 113.453 365.354 115.901C366.99 118.349 368.563 120.833 370.078 123.359C371.594 125.88 373.042 128.443 374.427 131.036C375.818 133.635 377.141 136.26 378.396 138.922C379.656 141.583 380.849 144.276 381.974 146.995C383.104 149.714 384.161 152.458 385.151 155.229C386.146 158 387.068 160.797 387.922 163.609C388.776 166.427 389.563 169.266 390.276 172.12C390.99 174.974 391.635 177.844 392.208 180.729C392.786 183.62 393.286 186.516 393.719 189.427C394.151 192.339 394.51 195.26 394.802 198.188C395.089 201.12 395.302 204.052 395.448 206.995C395.594 209.932 395.667 212.875 395.667 215.818C395.667 218.76 395.594 221.703 395.448 224.641C395.302 227.583 395.089 230.516 394.802 233.448C394.51 236.375 394.151 239.297 393.719 242.208C393.286 245.12 392.786 248.016 392.208 250.906C391.635 253.792 390.99 256.661 390.276 259.516C389.563 262.375 388.776 265.208 387.922 268.026C387.068 270.844 386.146 273.635 385.151 276.406C384.161 279.177 383.104 281.922 381.974 284.641C380.849 287.365 379.656 290.052 378.396 292.714C377.141 295.375 375.818 298 374.427 300.599C373.042 303.193 371.594 305.755 370.078 308.276C368.563 310.802 366.99 313.286 365.354 315.734C363.719 318.182 362.026 320.589 360.271 322.953C358.521 325.318 356.708 327.635 354.844 329.911C352.974 332.188 351.052 334.417 349.078 336.599C347.099 338.776 345.073 340.906 342.99 342.99C340.906 345.073 338.776 347.099 336.594 349.078C334.417 351.052 332.188 352.974 329.911 354.844C327.635 356.708 325.318 358.521 322.953 360.271C320.589 362.026 318.182 363.719 315.734 365.354C313.286 366.99 310.802 368.568 308.276 370.078C305.755 371.594 303.193 373.042 300.599 374.432C298 375.818 295.375 377.141 292.714 378.401C290.052 379.656 287.359 380.849 284.641 381.974C281.922 383.104 279.177 384.161 276.406 385.151C273.635 386.146 270.844 387.068 268.026 387.922C265.208 388.776 262.37 389.563 259.516 390.276C256.661 390.99 253.792 391.635 250.906 392.208C248.016 392.786 245.12 393.286 242.208 393.719C239.297 394.151 236.375 394.51 233.448 394.802C230.516 395.089 227.583 395.307 224.641 395.448C221.703 395.594 218.76 395.667 215.818 395.667Z" fill="#E7E6E6"/>
</g>
</svg>
