<svg width="123" height="149" viewBox="0 0 123 149" fill="none" xmlns="http://www.w3.org/2000/svg">
<mask id="mask0_108_739" style="mask-type:luminance" maskUnits="userSpaceOnUse" x="31" y="0" width="60" height="28">
<path d="M31.4221 0.193481H90.7869V27.6396H31.4221V0.193481Z" fill="white"/>
</mask>
<g mask="url(#mask0_108_739)">
<path fill-rule="evenodd" clip-rule="evenodd" d="M85.3399 27.5748C87.0692 27.5748 88.6853 26.7227 89.6488 25.2882C90.6213 23.8609 90.8155 22.0507 90.1701 20.4418C90.1701 20.4418 87.0333 12.6096 84.9804 7.47196C83.1342 2.87004 78.6725 -0.153564 73.7057 -0.153564C67.0724 -0.153564 55.0409 -0.153564 48.4077 -0.153564C43.4409 -0.153564 38.9792 2.87004 37.1348 7.47196C35.0801 12.6096 31.9451 20.4418 31.9451 20.4418C31.2997 22.0507 31.4939 23.8609 32.4646 25.2882C33.4281 26.7227 35.046 27.5748 36.7735 27.5748H85.3399Z" fill="#3B3B3B"/>
</g>
<path fill-rule="evenodd" clip-rule="evenodd" d="M92.2791 17.1776H29.835C26.9624 17.1776 24.6309 19.5073 24.6309 22.3763C24.6309 25.2472 26.9624 27.5751 29.835 27.5751H92.2791C95.1517 27.5751 97.4832 25.2472 97.4832 22.3763C97.4832 19.5073 95.1517 17.1776 92.2791 17.1776Z" fill="#3B3B3B"/>
<path fill-rule="evenodd" clip-rule="evenodd" d="M38.5083 73.1609C33.5469 74.1729 28.9467 76.6195 25.3119 80.2453C20.4332 85.1259 17.6936 91.7321 17.6936 98.6296C17.6936 111.718 17.6936 127.773 17.6936 136.755C17.6936 143.453 23.126 148.888 29.8348 148.888H38.5083V73.1609ZM73.1988 72.6342V148.888H48.9147V72.6342H73.1988ZM83.6071 73.1609V148.888H92.2788C98.9876 148.888 104.422 143.453 104.422 136.755V98.6296C104.422 91.7321 101.68 85.1259 96.8034 80.2453C93.1668 76.6195 88.5667 74.1729 83.6071 73.1609Z" fill="#3B3B3B"/>
<path fill-rule="evenodd" clip-rule="evenodd" d="M89.5521 34.5083H32.562L33.4644 45.3282C34.5879 58.805 45.8626 69.1683 59.3916 69.1683C60.5025 69.1683 61.6116 69.1683 62.7225 69.1683C76.2515 69.1683 87.5262 58.805 88.6515 45.3282L89.5521 34.5083Z" fill="#3B3B3B"/>
<mask id="mask1_108_739" style="mask-type:luminance" maskUnits="userSpaceOnUse" x="0" y="51" width="123" height="43">
<path d="M0.3396 51.5697H122.08V93.4472H0.3396V51.5697Z" fill="white"/>
</mask>
<g mask="url(#mask1_108_739)">
<path fill-rule="evenodd" clip-rule="evenodd" d="M27.595 51.8376H12.4895C5.78081 51.8376 0.348389 57.2737 0.348389 63.9698V81.2989C0.348389 87.56 5.08693 92.7102 11.1791 93.361C12.281 86.5821 15.4862 80.2671 20.4063 75.3452C24.7835 70.9716 30.2716 67.9552 36.2038 66.5692C32.1591 62.5695 29.1409 57.5235 27.595 51.8376ZM94.5205 51.8376C92.9728 57.5235 89.9546 62.5695 85.9099 66.5692C91.8421 67.9552 97.3302 70.9716 101.707 75.3452C106.628 80.2671 109.833 86.5821 110.936 93.361C117.029 92.7102 121.767 87.56 121.767 81.2989V63.9698C121.767 57.2737 116.335 51.8376 109.624 51.8376H94.5205Z" fill="#3B3B3B"/>
</g>
</svg>
