<svg width="545" height="442" viewBox="0 0 545 442" fill="none" xmlns="http://www.w3.org/2000/svg">
<mask id="mask0_367_577" style="mask-type:luminance" maskUnits="userSpaceOnUse" x="0" y="0" width="245" height="284">
<path d="M0 0.599854H244.974V283.554H0V0.599854Z" fill="white"/>
</mask>
<g mask="url(#mask0_367_577)">
<mask id="mask1_367_577" style="mask-type:luminance" maskUnits="userSpaceOnUse" x="-23" y="-30" width="320" height="314">
<path d="M-22.4573 165.48L168.226 -29.6769L296.823 88.2785L106.139 283.435L-22.4573 165.48Z" fill="white"/>
</mask>
<g mask="url(#mask1_367_577)">
<mask id="mask2_367_577" style="mask-type:luminance" maskUnits="userSpaceOnUse" x="-23" y="-30" width="320" height="314">
<path d="M-22.4573 165.48L168.226 -29.6769L296.823 88.2785L106.139 283.435L-22.4573 165.48Z" fill="white"/>
</mask>
<g mask="url(#mask2_367_577)">
<path d="M105.276 282.645C106.526 280.653 108.388 279.21 109.891 277.452C113.545 273.104 116.788 268.477 119.611 263.581C121.554 260.306 123.27 256.867 125.457 253.789C127.342 251.135 128.964 248.331 130.883 245.718C131.203 245.271 131.575 244.869 131.401 244.097C130.35 244.859 129.506 245.796 128.874 246.91C126.961 250.272 124.651 253.35 121.95 256.154C120.748 257.397 119.753 258.776 118.966 260.302C116.712 264.663 113.384 268.212 109.689 271.839C110.019 270.701 110.556 269.665 111.301 268.728C113.262 266.175 114.827 263.394 116.58 260.717C119.908 255.602 123.123 250.386 126.857 245.54C132.382 238.356 137.152 230.696 142.276 223.256C145.241 218.949 148.513 214.866 151.416 210.5C152.849 208.339 154.627 206.33 155.668 204.005C157.403 200.168 159.812 196.665 161.311 192.742C161.434 192.422 161.806 192.039 161.434 191.714C161.056 191.395 160.547 191.6 160.217 191.81C158.822 192.714 157.2 192.696 155.654 192.92C155.051 193.039 154.452 193.007 153.863 192.829C153.274 192.651 152.765 192.345 152.336 191.911C152.091 191.641 151.789 191.458 151.431 191.358C151.077 191.258 150.719 191.258 150.365 191.358C149.738 191.509 149.107 191.573 148.461 191.55C147.82 191.527 147.193 191.413 146.585 191.212C145.972 191.011 145.406 190.728 144.883 190.367C144.36 190.006 143.898 189.577 143.502 189.088C142.361 187.75 140.796 187.786 139.584 188.079C137.977 188.471 136.436 188.366 135.337 187.59C133.763 186.471 132.146 186.393 130.43 186.448C129.435 186.517 128.464 186.398 127.521 186.078C126.579 185.763 125.74 185.274 125.004 184.621C124.429 184.119 123.76 183.936 123.001 184.078C121.907 184.21 120.823 184.388 119.729 184.48C118.31 184.594 116.953 184.493 115.836 183.429C115.03 182.73 114.091 182.443 113.021 182.58C111.112 182.685 109.283 182.356 107.539 181.598C106.384 181.114 105.177 180.817 103.924 180.712C102.274 180.57 100.77 180.328 99.5348 178.985C98.7287 178.113 97.3476 178.464 96.2115 178.515C95.0754 178.56 94.2882 178.455 93.9865 177.277C93.8451 176.72 93.336 176.619 92.8552 176.564C92.1528 176.501 91.4127 176.473 90.7056 176.414C89.6025 176.304 88.853 175.761 88.9709 174.614C89.0887 173.463 88.7069 173.541 87.8631 173.893C85.2374 175.012 82.6023 174.733 79.9767 173.82C79.4581 173.719 79.0716 173.445 78.8218 172.988C78.5625 172.262 78.0534 172.326 77.4594 172.317C75.1308 172.244 72.8681 171.856 70.6572 171.152C68.2531 170.431 67.6544 169.581 67.5884 167.233C67.5649 166.293 66.9096 166.466 66.3864 166.48C63.756 166.535 61.1869 166.366 58.8771 164.932C58.8111 164.872 58.7027 164.863 58.6178 164.813C56.8595 163.813 56.8312 163.63 58.2407 162.241C58.4905 162.031 58.6461 161.771 58.7168 161.46C58.1936 161.721 57.7033 161.94 57.2178 162.209C55.78 162.895 54.9409 162.346 54.9692 160.748C54.9409 160.378 54.9362 160.008 54.9504 159.638C55.0729 158.542 54.5638 157.88 53.4843 158.044C51.4903 158.35 49.5152 158.789 47.5353 159.168C45.5508 159.633 43.5474 159.739 41.5251 159.487L43.6982 156.98C43.3258 156.98 43.0052 157.099 42.7271 157.336C39.6583 159.14 37.1034 158.971 34.4212 156.596C33.6151 155.856 32.2433 155.687 31.8898 154.436C31.8615 154.354 31.5457 154.299 31.3712 154.317C28.0668 154.559 24.8754 154.016 21.6652 153.404C20.6612 153.226 19.6665 153.157 18.6577 153.057C17.8328 153.038 17.0361 152.878 16.2725 152.568C15.9284 152.394 15.5418 152.193 15.5843 151.759C15.6267 151.326 16.0227 151.307 16.3243 151.179C18.0968 150.513 19.9776 150.371 21.8161 150.024C22.7494 149.855 23.7441 149.896 24.635 149.298C24.1542 148.558 23.3811 148.608 22.707 148.576C18.1439 148.361 13.5714 148.192 9.03659 147.603C6.84932 147.32 4.67148 146.927 2.49836 146.544C1.96568 146.516 1.58385 146.265 1.35758 145.795L7.87225 145.036C8.4992 144.963 9.12616 144.94 9.74368 144.822C10.2151 144.726 10.9976 144.899 11.0212 144.242C11.0447 143.712 10.3612 143.502 9.85682 143.337C7.47156 142.556 5.02503 142.113 2.50779 142.004L0.980469 141.944C1.27745 141.273 1.85255 141.319 2.31451 141.214C6.34022 140.282 10.4461 140.405 14.5378 140.405C23.5602 140.419 32.5639 140.108 41.5486 139.314C42.1285 139.259 43.1278 139.428 43.1655 138.82C43.2079 137.989 42.35 137.537 41.5251 137.313C40.6577 137.13 39.7998 137.139 38.9418 137.35C36.5094 137.838 34.0629 137.331 31.3995 137.582C31.7248 137.222 32.1302 137.062 32.6252 137.112C37.3485 136.454 42.1049 136.468 46.8613 136.4C54.38 136.281 61.8987 136.084 69.3986 135.536C78.5389 134.86 87.618 133.682 96.6499 132.316C100.94 131.654 105.305 131.672 109.585 131.024C117.778 129.782 126.032 129.284 134.277 128.704C139.561 128.302 144.85 128.174 150.144 128.334C152.84 128.512 155.338 129.288 157.629 130.672C160.217 132.111 162.942 133.244 165.803 134.07C169.348 135.093 172.903 136.126 176.405 137.295C177.749 137.742 178.154 137.322 178.192 136.144C178.305 133.152 179.521 130.252 179.38 127.297C179.215 123.812 180.959 120.93 181.784 117.779C182.807 113.837 184.471 110.119 185.946 106.328C187.063 103.442 188.515 100.743 189.731 97.92C190.999 94.9421 191.603 91.6673 192.597 88.5433C192.866 87.6938 192.352 86.8991 192.277 86.0678C192.027 83.2224 192.041 80.3815 192.319 77.5361C192.451 76.1019 192.729 74.645 191.339 73.4027C190.651 72.7678 190.764 71.562 190.877 70.5755C191.287 66.7892 190.83 63.0075 190.651 59.2303C190.537 57.1248 189.595 55.001 189.562 52.7995C189.491 48.4423 190.259 44.1627 191.113 39.906C191.221 39.0108 191.193 38.1202 191.014 37.2341C190.627 34.0051 191.212 30.849 191.405 27.6702C191.466 26.5329 191.928 25.5784 192.791 24.8065C193.125 24.5324 193.361 24.199 193.493 23.7925C193.62 23.3906 193.63 22.9841 193.512 22.5731C192.989 19.6363 192.937 16.6401 192.343 13.7034C191.89 11.4699 192.649 10.7986 195.02 11.2233C195.817 11.3558 195.657 10.826 195.666 10.4697C195.723 8.84374 195.704 7.19951 195.746 5.56898C195.779 4.34951 195.911 3.15288 196.699 2.12066C197.236 1.42643 197.707 1.49038 198.132 2.18461C199.805 4.96153 201.464 7.73845 203.143 10.4971C203.303 10.7255 203.388 10.9767 203.397 11.2553C203.406 11.5293 203.336 11.7851 203.185 12.0226C202.61 13.1005 203.439 14.763 204.632 14.7721C205.509 14.7858 205.688 15.2608 205.943 15.7815C206.848 17.6312 207.691 19.481 208.63 21.3445C208.941 21.9748 209.318 22.5685 209.761 23.1212C210.081 23.5231 210.586 24.3041 210.968 23.0892C211.123 22.774 211.373 22.5731 211.722 22.4817C212.151 22.3082 212.707 22.1574 211.929 21.6231C211.628 21.413 211.915 20.9928 212.094 20.7416C213.108 19.1567 213.985 17.5034 214.725 15.7815C214.824 15.4846 214.998 15.2471 215.257 15.0644C215.517 14.8772 215.809 14.7904 216.129 14.7904C216.917 14.7721 217.19 15.3841 217.336 15.987C217.897 18.4945 218.232 21.0293 218.34 23.5916C218.576 27.2226 218.713 30.8627 218.896 34.4938C218.915 34.8683 218.915 35.2565 218.977 35.6082C219.198 37.0514 219.443 37.1519 220.612 36.2933C221.781 35.4346 222.324 35.6356 222.663 37.1017C223.346 39.9974 223.804 42.8519 223.054 45.8892C221.211 53.2654 219.67 60.7329 217.977 68.1548C217.685 69.0729 217.657 69.9909 217.907 70.918C219.222 74.3572 218.265 77.8512 218.336 81.3269C218.444 86.3556 216.266 90.8726 215.328 95.6455C213.857 103.099 211.967 110.521 212.391 118.194C212.401 118.382 212.391 118.573 212.41 118.756C212.495 119.455 212.259 120.478 213.061 120.747C213.721 120.971 214.286 120.199 214.857 119.779C217.148 118.121 219.066 115.828 221.946 115.143C224.148 114.627 226.467 114.093 228.73 115.139C229.503 115.5 230.139 116.02 230.63 116.705C231.549 118.002 232.704 119.062 234.094 119.88C238.648 122.223 241.976 125.625 243.47 130.512C243.913 131.969 244.017 133.449 243.781 134.947C243.725 135.29 243.697 135.765 243.187 135.788C242.683 135.815 242.711 135.399 242.546 135.121C242.014 134.066 241.316 133.125 240.449 132.303C239.944 131.887 239.676 131.714 239.35 132.513C238.2 135.258 236.079 137.144 233.477 138.619C231.506 139.642 230.069 141.145 229.159 143.123C228.051 145.685 226.467 147.927 224.402 149.855C222.983 151.152 221.494 152.344 220.363 153.897C219.891 154.536 219.038 154.171 218.472 154.742C217.322 155.916 216.851 157.373 216.417 158.843C215.38 162.31 213.848 165.562 211.821 168.59C209.346 172.486 206.051 175.546 201.936 177.784C199.065 179.309 196.628 181.506 193.62 182.781C193.196 182.922 192.97 183.21 192.946 183.644C192.838 184.964 191.9 185.754 191.028 186.645C189.623 188.088 188.501 189.791 186.771 190.91C186.62 191.011 186.535 191.235 186.389 191.299C183.231 192.714 181.392 195.569 178.946 197.757C178.489 198.2 177.937 198.437 177.291 198.465C174.996 198.46 173.968 200.077 172.917 201.607C169.532 206.521 165.827 211.217 162.315 216.049C157.422 222.818 151.709 228.952 146.66 235.602C143.752 239.429 140.688 243.151 137.581 246.828C135.464 249.34 133.923 252.272 131.575 254.547C129.709 256.378 127.974 258.365 125.886 260C123.439 261.927 121.629 264.302 120.451 267.134C119.809 268.632 119.055 270.13 117.25 270.742C116.948 270.847 116.76 271.295 116.552 271.583C113.667 275.47 110.334 278.945 106.549 282.019C106.167 282.371 105.852 282.791 105.276 282.645Z" fill="#3B3B3B"/>
</g>
</g>
</g>
<path d="M150.043 230.285C147.628 233.1 145.306 235.871 143.072 238.593L140.241 236.407C142.491 233.663 144.828 230.875 147.259 228.042L150.043 230.285ZM140.867 241.303C138.604 244.1 136.434 246.849 134.362 249.549L131.459 247.454C133.552 244.728 135.737 241.957 138.016 239.133L140.867 241.303ZM132.185 252.411C130.047 255.254 128.016 258.043 126.093 260.771L123.108 258.79C125.052 256.027 127.103 253.216 129.262 250.343L132.185 252.411ZM124.038 263.728C121.974 266.736 120.047 269.674 118.257 272.538L115.162 270.715C116.979 267.806 118.937 264.829 121.026 261.782L124.038 263.728ZM116.507 275.383C114.588 278.568 112.84 281.655 111.268 284.657L108.045 283.059C109.649 280 111.429 276.851 113.385 273.608L116.507 275.383ZM109.755 287.622C108.106 290.94 106.682 294.143 105.483 297.224L102.1 295.978C103.339 292.798 104.802 289.506 106.495 286.095L109.755 287.622ZM104.328 300.349C103.119 303.8 102.209 307.097 101.592 310.233L98.04 309.561C98.6908 306.267 99.6443 302.818 100.901 299.214L104.328 300.349ZM101.019 313.716C100.548 317.288 100.499 320.635 100.856 323.756L97.2653 324.134C96.8741 320.736 96.9273 317.11 97.4341 313.262L101.019 313.716ZM101.399 326.995C102.131 330.314 103.39 333.356 105.168 336.125L102.103 337.964C100.101 334.852 98.6863 331.434 97.8668 327.715L101.399 326.995ZM107.122 338.804C109.164 341.283 111.694 343.518 114.708 345.51L112.685 348.401C109.367 346.211 106.574 343.739 104.304 340.98L107.122 338.804ZM117.663 347.297C120.5 348.871 123.689 350.265 127.234 351.481L126.04 354.782C122.292 353.494 118.905 352.013 115.881 350.336L117.663 347.297ZM130.516 352.525C133.71 353.467 137.163 354.279 140.87 354.965L140.205 358.401C136.372 357.697 132.794 356.854 129.475 355.872L130.516 352.525ZM144.37 355.556C147.723 356.083 151.267 356.507 155.006 356.834L154.692 360.319C150.873 359.987 147.245 359.553 143.808 359.017L144.37 355.556ZM158.559 357.112C162.006 357.347 165.6 357.509 169.345 357.589L169.281 361.091C165.475 361.007 161.819 360.845 158.321 360.603L158.559 357.112ZM172.875 357.642C175.968 357.667 179.153 357.642 182.436 357.565L182.537 361.068C179.212 361.143 175.989 361.169 172.858 361.142L172.875 357.642Z" fill="#3B3B3B"/>
<path d="M190.167 420.666L200.201 416.088L201.75 419.258L191.716 423.836L190.167 420.666ZM203.342 414.614C206.743 413.002 209.985 411.429 213.069 409.888L214.735 413.002C211.631 414.551 208.365 416.14 204.94 417.76L203.342 414.614ZM216.223 408.297C219.583 406.576 222.742 404.907 225.694 403.28L227.492 406.324C224.505 407.968 221.312 409.662 217.913 411.394L216.223 408.297ZM228.762 401.559C232.1 399.663 235.142 397.831 237.896 396.058L239.9 398.979C237.092 400.785 233.996 402.655 230.599 404.583L228.762 401.559ZM240.703 394.206C243.962 391.999 246.737 389.902 249.024 387.912L251.444 390.525C249.048 392.609 246.159 394.794 242.781 397.081L240.703 394.206ZM251.666 385.45C254.591 382.498 256.285 379.87 256.749 377.575L260.295 378.26C259.693 381.228 257.688 384.431 254.278 387.878L251.666 385.45ZM256.693 374.985C256.083 372.781 253.919 370.807 250.2 369.072L251.758 365.918C256.482 368.125 259.287 370.85 260.184 374.093L256.693 374.985ZM246.829 367.711C244.029 366.735 240.679 365.87 236.774 365.116L237.462 361.682C241.549 362.471 245.072 363.379 248.042 364.421L246.829 367.711ZM233.35 364.512C230.125 363.985 226.583 363.529 222.72 363.139L223.081 359.656C227.018 360.055 230.635 360.521 233.936 361.058L233.35 364.512ZM219.072 362.799C215.727 362.511 212.171 362.274 208.4 362.078L208.578 358.579C212.391 358.778 215.989 359.022 219.376 359.313L219.072 362.799ZM204.727 361.906C201.316 361.76 197.747 361.655 194.011 361.58L194.07 358.078C197.83 358.154 201.432 358.262 204.866 358.409L204.727 361.906ZM190.396 361.522L184.174 361.47L184.191 357.966L190.414 358.017L190.396 361.522Z" fill="#3B3B3B"/>
<path d="M186.333 323.128L179.725 331.807L176.817 329.721L183.42 321.042L186.333 323.128ZM177.627 334.606L171.461 342.961L168.517 340.914L174.688 332.559L177.627 334.606ZM169.316 345.912L163.173 354.553L160.193 352.553L166.34 343.914L169.316 345.912ZM161.243 357.317C159.129 360.375 157.115 363.345 155.201 366.224L152.163 364.322C154.088 361.42 156.112 358.434 158.242 355.357L161.243 357.317ZM153.291 369.131C151.29 372.193 149.409 375.152 147.653 378.005L144.547 376.199C146.324 373.32 148.221 370.334 150.232 367.251L153.291 369.131ZM145.8 381.044C143.912 384.177 142.18 387.178 140.602 390.047L137.411 388.387C139.015 385.478 140.769 382.442 142.678 379.274L145.8 381.044ZM138.892 393.21C137.151 396.498 135.624 399.604 134.312 402.522L130.997 401.115C132.341 398.13 133.9 394.958 135.675 391.598L138.892 393.21ZM132.925 405.742C131.46 409.287 130.345 412.519 129.591 415.441L126.085 414.576C126.882 411.501 128.044 408.12 129.566 404.428L132.925 405.742ZM128.895 418.564C128.174 422.508 128.222 425.738 129.038 428.248L125.594 429.29C124.6 426.233 124.512 422.447 125.34 417.937L128.895 418.564ZM130.342 430.831C131.931 433.006 134.594 434.339 138.332 434.831L137.859 438.302C133.082 437.67 129.594 435.854 127.397 432.848L130.342 430.831ZM141.724 435.044C144.742 435.059 148.249 434.662 152.249 433.861L152.992 437.291C148.748 438.14 144.994 438.563 141.722 438.545L141.724 435.044ZM155.474 433.148C158.635 432.395 162.061 431.416 165.747 430.211L166.913 433.53C163.131 434.766 159.609 435.771 156.351 436.55L155.474 433.148ZM169.05 429.095C172.234 427.991 175.593 426.728 179.132 425.317L180.52 428.555C176.928 429.99 173.516 431.268 170.284 432.392L169.05 429.095ZM182.376 424.001C184.894 422.963 187.498 421.849 190.186 420.662L191.691 423.853C188.979 425.047 186.346 426.173 183.804 427.223L182.376 424.001Z" fill="#3B3B3B"/>
<path d="M354.131 387.289L346.241 379.813L348.759 377.311L356.654 384.792L354.131 387.289ZM343.669 377.423L335.779 370.235L338.252 367.689L346.137 374.877L343.669 377.423ZM333.098 367.843C330.417 365.465 327.764 363.153 325.139 360.916L327.523 358.291C330.161 360.547 332.832 362.87 335.531 365.262L333.098 367.843ZM322.389 358.579C319.593 356.221 316.834 353.943 314.113 351.746L316.415 349.061C319.159 351.273 321.941 353.566 324.755 355.939L322.389 358.579ZM311.399 349.576C308.509 347.281 305.66 345.075 302.853 342.964L305.061 340.204C307.896 342.335 310.767 344.556 313.684 346.872L311.399 349.576ZM300.035 340.865C297.077 338.684 294.168 336.603 291.3 334.629L293.387 331.775C296.287 333.773 299.227 335.875 302.217 338.081L300.035 340.865ZM288.372 332.634C285.325 330.58 282.326 328.648 279.382 326.839L281.31 323.883C284.295 325.722 287.334 327.679 290.427 329.759L288.372 332.634ZM276.344 325.001C273.173 323.113 270.068 321.367 267.025 319.767L268.739 316.691C271.837 318.323 275.001 320.096 278.227 322.019L276.344 325.001ZM263.888 318.156C260.57 316.492 257.335 315.007 254.179 313.693L255.59 310.474C258.829 311.822 262.142 313.343 265.538 315.044L263.888 318.156ZM250.96 312.406C247.498 311.076 244.131 309.959 240.863 309.067L241.835 305.697C245.219 306.623 248.702 307.776 252.284 309.15L250.96 312.406ZM237.395 308.19C233.793 307.354 230.314 306.802 226.964 306.523L227.258 303.036C230.787 303.326 234.444 303.909 238.223 304.783L237.395 308.19ZM223.48 306.336C219.868 306.246 216.413 306.495 213.115 307.089L212.443 303.65C215.989 303.008 219.696 302.738 223.558 302.835L223.48 306.336ZM209.709 307.841C206.35 308.719 203.161 309.979 200.137 311.62L198.363 308.563C201.642 306.783 205.108 305.413 208.754 304.461L209.709 307.841ZM197.2 313.368C194.41 315.184 191.772 317.353 189.286 319.871L186.669 317.447C189.337 314.744 192.174 312.413 195.181 310.46L197.2 313.368ZM186.936 322.416L186.267 323.197L183.477 320.958L184.146 320.177L186.936 322.416Z" fill="#3B3B3B"/>
<path d="M232.424 265.397L222.129 172.205H240.947L246.321 231.014L251.694 172.205H269.607L274.755 231.014L279.903 172.205H298.947L288.407 265.397H265.346L260.538 220.491L255.937 265.397H232.424Z" fill="#3B3B3B"/>
<path d="M304.201 180.664V167.437H323.792V180.664H304.201ZM304.201 265.397V185.98H323.792V265.397H304.201Z" fill="#3B3B3B"/>
<path d="M354.015 266.274C337.823 266.274 329.729 258.317 329.729 242.396L329.842 236.111H349.434L349.547 245.428C349.547 247.319 349.914 248.749 350.659 249.722C351.413 250.699 352.644 251.183 354.355 251.183C356.966 251.183 358.277 249.128 358.277 245.008C358.277 241.966 357.659 239.578 356.429 237.847C355.194 236.106 353.233 234.261 350.546 232.311L340.138 224.492C336.555 221.824 333.977 219.066 332.407 216.216C330.846 213.357 330.069 209.319 330.069 204.103C330.069 200.048 331.167 196.595 333.368 193.745C335.565 190.886 338.497 188.734 342.155 187.296C345.813 185.848 349.877 185.122 354.355 185.122C370.255 185.122 378.207 192.79 378.207 208.123V209.639H357.937V206.606C357.937 204.72 357.617 203.112 356.976 201.783C356.344 200.445 355.284 199.774 353.789 199.774C352.455 199.774 351.432 200.153 350.716 200.906C350.009 201.664 349.66 202.692 349.66 203.994C349.66 206.894 350.815 209.136 353.129 210.717L365.216 219.285C369.553 222.405 372.876 225.789 375.19 229.443C377.5 233.087 378.66 237.696 378.66 243.273C378.66 250.644 376.492 256.317 372.155 260.299C367.827 264.282 361.784 266.274 354.015 266.274Z" fill="#3B3B3B"/>
<path d="M407.649 266.274C399.211 266.274 393.168 264.036 389.509 259.55C385.851 255.056 384.022 248.365 384.022 239.473V207.574C384.022 200.267 386.181 194.704 390.509 190.876C394.846 187.04 400.898 185.122 408.667 185.122C424.402 185.122 432.274 192.607 432.274 207.574V213.329C432.274 219.116 432.204 223.816 432.067 227.433H403.614V242.834C403.614 245.588 403.906 247.744 404.5 249.301C405.103 250.85 406.376 251.622 408.328 251.622C409.822 251.622 410.882 251.192 411.514 250.324C412.141 249.448 412.514 248.452 412.627 247.328C412.74 246.209 412.796 244.565 412.796 242.396V234.704H432.274V239.253C432.274 248.511 430.426 255.33 426.731 259.715C423.044 264.09 416.685 266.274 407.649 266.274ZM412.796 217.988V207.794C412.796 202.085 411.344 199.225 408.441 199.225C405.146 199.225 403.5 202.085 403.5 207.794V217.988H412.796Z" fill="#3B3B3B"/>
<path d="M402.946 379.904C383.911 379.904 374.398 370.349 374.398 351.239V314.116C374.398 305.361 376.935 298.395 382.016 293.216C387.107 288.041 394.084 285.452 402.946 285.452C411.808 285.452 418.775 288.041 423.857 293.216C428.948 298.395 431.494 305.361 431.494 314.116V351.239C431.494 370.349 421.976 379.904 402.946 379.904ZM402.946 362.858C404.766 362.858 406.114 362.233 406.981 360.977C407.858 359.712 408.301 357.981 408.301 355.788V310.59C408.301 305.196 406.515 302.497 402.946 302.497C399.387 302.497 397.61 305.196 397.61 310.59V355.788C397.61 357.981 398.044 359.712 398.911 360.977C399.778 362.233 401.122 362.858 402.946 362.858Z" fill="#3B3B3B"/>
<path d="M458.347 379.903C451.219 379.903 446.326 377.848 443.677 373.728C441.023 369.6 439.698 363.452 439.698 355.277V286.456H462.646V350.874C462.646 351.458 462.646 353.039 462.646 355.605C462.646 358.177 463.051 359.985 463.871 361.031C464.701 362.082 465.983 362.602 467.718 362.602C470.065 362.602 471.546 361.662 472.149 359.771C472.762 357.871 473.073 355.158 473.073 351.623V350.874L473.186 286.456H495.87V378.899H473.073V369.052C471.498 372.925 469.669 375.702 467.586 377.382C465.498 379.063 462.419 379.903 458.347 379.903Z" fill="#3B3B3B"/>
<path d="M504.995 286.456H527.81V296.687C528.927 293.07 530.902 290.275 533.731 288.302C536.559 286.319 540.052 285.324 544.215 285.324V303.757C541.009 303.757 537.469 304.205 533.599 305.091C529.738 305.982 527.81 307.009 527.81 308.179V378.899H504.995V286.456Z" fill="#3B3B3B"/>
<path d="M333.613 378.899V291.261H320.319V270.434H369.325V291.261H356.032V378.899H333.613Z" fill="#3B3B3B"/>
</svg>
