<svg width="321" height="468" viewBox="0 0 321 468" fill="none" xmlns="http://www.w3.org/2000/svg">
<path d="M0.208008 0.827667H284.01C304.002 0.827667 320.209 17.0346 320.209 37.0268V431.598C320.209 451.59 304.002 467.797 284.01 467.797H0.208008V0.827667Z" fill="#F8CA26"/>
<mask id="mask0_260_7" style="mask-type:luminance" maskUnits="userSpaceOnUse" x="31" y="84" width="116" height="134">
<path d="M31.3394 84.6267H146.546V217.694H31.3394V84.6267Z" fill="white"/>
</mask>
<g mask="url(#mask0_260_7)">
<mask id="mask1_260_7" style="mask-type:luminance" maskUnits="userSpaceOnUse" x="20" y="70" width="151" height="148">
<path d="M20.7778 162.166L110.453 70.3881L170.929 125.86L81.2541 217.638L20.7778 162.166Z" fill="white"/>
</mask>
<g mask="url(#mask1_260_7)">
<mask id="mask2_260_7" style="mask-type:luminance" maskUnits="userSpaceOnUse" x="20" y="70" width="151" height="148">
<path d="M20.7778 162.166L110.453 70.3881L170.929 125.86L81.2541 217.638L20.7778 162.166Z" fill="white"/>
</mask>
<g mask="url(#mask2_260_7)">
<path d="M80.8481 217.267C81.4356 216.33 82.3112 215.652 83.0184 214.825C84.7365 212.78 86.2617 210.604 87.5896 208.301C88.503 206.761 89.3099 205.144 90.3385 203.696C91.2253 202.448 91.9879 201.129 92.8901 199.901C93.0409 199.69 93.216 199.501 93.134 199.138C92.6396 199.497 92.2428 199.937 91.9458 200.461C91.0457 202.042 89.9594 203.49 88.6892 204.809C88.1239 205.393 87.6561 206.042 87.2859 206.759C86.2262 208.81 84.6611 210.479 82.9231 212.185C83.0783 211.65 83.331 211.162 83.6813 210.722C84.6035 209.521 85.3395 208.213 86.1642 206.955C87.7293 204.549 89.2412 202.096 90.9969 199.817C93.5951 196.438 95.8386 192.836 98.2483 189.337C99.6427 187.312 101.181 185.392 102.547 183.338C103.221 182.322 104.057 181.377 104.546 180.284C105.362 178.48 106.495 176.832 107.2 174.987C107.258 174.837 107.433 174.656 107.258 174.504C107.08 174.354 106.841 174.45 106.686 174.549C106.03 174.974 105.267 174.966 104.54 175.071C104.256 175.127 103.975 175.112 103.697 175.028C103.42 174.944 103.181 174.8 102.979 174.596C102.864 174.47 102.722 174.384 102.553 174.336C102.387 174.289 102.219 174.289 102.052 174.336C101.758 174.407 101.461 174.437 101.157 174.427C100.855 174.416 100.561 174.362 100.275 174.268C99.9864 174.173 99.7203 174.04 99.4743 173.87C99.2282 173.701 99.0109 173.499 98.8247 173.269C98.2882 172.64 97.5522 172.657 96.9825 172.794C96.2265 172.979 95.5016 172.93 94.9851 172.564C94.2447 172.038 93.4843 172.002 92.6773 172.027C92.2096 172.06 91.7529 172.004 91.3095 171.853C90.8661 171.705 90.4715 171.475 90.1257 171.168C89.8553 170.932 89.5405 170.846 89.1835 170.913C88.6692 170.975 88.1593 171.059 87.645 171.102C86.9777 171.155 86.3393 171.108 85.8139 170.608C85.4348 170.279 84.9936 170.144 84.4904 170.208C83.5926 170.258 82.7324 170.103 81.9122 169.746C81.3691 169.519 80.8015 169.379 80.2119 169.33C79.436 169.263 78.7288 169.149 78.1479 168.518C77.7689 168.107 77.1193 168.273 76.5851 168.296C76.0508 168.318 75.6806 168.269 75.5387 167.714C75.4722 167.452 75.2328 167.405 75.0066 167.379C74.6763 167.349 74.3283 167.336 73.9957 167.308C73.477 167.257 73.1245 167.001 73.1799 166.462C73.2354 165.921 73.0558 165.957 72.659 166.123C71.4242 166.649 70.1849 166.518 68.9501 166.088C68.7063 166.041 68.5245 165.912 68.407 165.697C68.2851 165.356 68.0457 165.386 67.7663 165.382C66.6712 165.347 65.6071 165.165 64.5674 164.834C63.4368 164.495 63.1552 164.095 63.1242 162.991C63.1131 162.549 62.805 162.63 62.5589 162.637C61.3219 162.662 60.1137 162.583 59.0274 161.909C58.9964 161.881 58.9454 161.876 58.9055 161.853C58.0786 161.382 58.0653 161.296 58.7281 160.643C58.8456 160.545 58.9188 160.422 58.9521 160.276C58.706 160.399 58.4754 160.502 58.2471 160.628C57.5709 160.951 57.1763 160.693 57.1896 159.941C57.1763 159.767 57.1741 159.593 57.1808 159.419C57.2384 158.904 56.999 158.592 56.4913 158.67C55.5536 158.813 54.6247 159.02 53.6936 159.198C52.7603 159.417 51.8182 159.466 50.8671 159.348L51.8891 158.169C51.714 158.169 51.5632 158.225 51.4324 158.337C49.9892 159.185 48.7877 159.106 47.5263 157.989C47.1472 157.641 46.5021 157.561 46.3358 156.973C46.3225 156.934 46.174 156.908 46.092 156.917C44.538 157.031 43.0371 156.775 41.5274 156.487C41.0552 156.403 40.5875 156.371 40.1131 156.324C39.7251 156.315 39.3505 156.24 38.9913 156.094C38.8295 156.013 38.6477 155.918 38.6677 155.714C38.6876 155.51 38.8738 155.501 39.0157 155.441C39.8493 155.128 40.7338 155.061 41.5984 154.898C42.0373 154.818 42.5051 154.838 42.9241 154.556C42.6979 154.208 42.3344 154.232 42.0174 154.217C39.8714 154.116 37.7211 154.036 35.5884 153.759C34.5598 153.626 33.5356 153.442 32.5136 153.261C32.2631 153.248 32.0836 153.13 31.9772 152.909L35.0409 152.552C35.3357 152.518 35.6306 152.507 35.921 152.451C36.1427 152.406 36.5107 152.488 36.5217 152.179C36.5328 151.929 36.2114 151.831 35.9742 151.753C34.8524 151.386 33.7019 151.178 32.5181 151.126L31.7998 151.098C31.9395 150.782 32.2099 150.804 32.4272 150.754C34.3204 150.316 36.2513 150.374 38.1755 150.374C42.4186 150.381 46.6528 150.235 50.8782 149.861C51.1509 149.835 51.6209 149.915 51.6386 149.629C51.6585 149.238 51.2551 149.025 50.8671 148.92C50.4592 148.834 50.0557 148.839 49.6523 148.937C48.5084 149.167 47.3578 148.929 46.1053 149.047C46.2582 148.877 46.4489 148.802 46.6817 148.826C48.903 148.516 51.1398 148.523 53.3766 148.491C56.9125 148.435 60.4484 148.342 63.9755 148.085C68.274 147.767 72.5437 147.213 76.7912 146.57C78.8086 146.259 80.8614 146.267 82.8743 145.962C86.7272 145.378 90.609 145.144 94.4863 144.871C96.9714 144.682 99.4587 144.622 101.948 144.697C103.216 144.781 104.391 145.146 105.469 145.797C106.686 146.474 107.967 147.006 109.313 147.395C110.98 147.876 112.651 148.362 114.298 148.912C114.93 149.122 115.121 148.924 115.139 148.37C115.192 146.963 115.764 145.599 115.697 144.21C115.62 142.571 116.44 141.216 116.828 139.734C117.309 137.88 118.092 136.131 118.785 134.349C119.311 132.991 119.994 131.722 120.566 130.394C121.162 128.994 121.446 127.454 121.913 125.985C122.04 125.585 121.798 125.211 121.763 124.821C121.645 123.482 121.652 122.146 121.783 120.808C121.845 120.134 121.976 119.449 121.322 118.864C120.998 118.566 121.051 117.999 121.104 117.535C121.297 115.754 121.082 113.976 120.998 112.199C120.945 111.209 120.501 110.21 120.486 109.175C120.453 107.126 120.814 105.113 121.215 103.112C121.266 102.691 121.253 102.272 121.169 101.855C120.987 100.336 121.262 98.8523 121.353 97.3573C121.381 96.8225 121.599 96.3736 122.004 96.0106C122.162 95.8817 122.273 95.7249 122.335 95.5337C122.395 95.3447 122.399 95.1536 122.344 94.9602C122.097 93.5791 122.073 92.1701 121.794 90.789C121.581 89.7387 121.938 89.4229 123.053 89.6227C123.428 89.685 123.352 89.4358 123.357 89.2683C123.383 88.5036 123.374 87.7304 123.394 86.9636C123.41 86.3901 123.472 85.8273 123.842 85.3419C124.095 85.0154 124.317 85.0455 124.516 85.372C125.303 86.6779 126.083 87.9838 126.873 89.2812C126.948 89.3886 126.988 89.5067 126.992 89.6377C126.997 89.7666 126.963 89.8869 126.893 89.9986C126.622 90.5055 127.012 91.2873 127.573 91.2916C127.985 91.2981 128.07 91.5214 128.189 91.7663C128.615 92.6362 129.012 93.5061 129.453 94.3825C129.599 94.6789 129.777 94.9581 129.985 95.218C130.136 95.407 130.373 95.7743 130.553 95.203C130.626 95.0548 130.743 94.9602 130.907 94.9173C131.109 94.8357 131.371 94.7648 131.005 94.5135C130.863 94.4147 130.998 94.2171 131.082 94.0989C131.559 93.3536 131.971 92.5761 132.319 91.7663C132.366 91.6267 132.448 91.515 132.57 91.4291C132.692 91.341 132.829 91.3002 132.98 91.3002C133.35 91.2916 133.479 91.5794 133.548 91.863C133.811 93.0422 133.969 94.2343 134.02 95.4392C134.131 97.1468 134.195 98.8587 134.281 100.566C134.29 100.742 134.29 100.925 134.319 101.09C134.423 101.769 134.539 101.816 135.088 101.413C135.638 101.009 135.893 101.103 136.053 101.793C136.374 103.155 136.589 104.497 136.237 105.925C135.37 109.394 134.645 112.906 133.849 116.396C133.712 116.828 133.698 117.26 133.816 117.696C134.434 119.313 133.984 120.956 134.018 122.591C134.069 124.956 133.044 127.08 132.603 129.325C131.912 132.83 131.023 136.32 131.222 139.929C131.227 140.017 131.222 140.107 131.231 140.193C131.271 140.522 131.16 141.003 131.537 141.13C131.847 141.235 132.113 140.872 132.382 140.674C133.459 139.895 134.361 138.816 135.716 138.494C136.751 138.251 137.842 138 138.906 138.492C139.269 138.662 139.569 138.907 139.799 139.229C140.231 139.839 140.775 140.337 141.429 140.722C143.57 141.823 145.135 143.424 145.838 145.722C146.046 146.407 146.095 147.103 145.984 147.808C145.958 147.969 145.944 148.192 145.705 148.203C145.468 148.216 145.481 148.02 145.403 147.889C145.153 147.393 144.825 146.951 144.417 146.564C144.18 146.368 144.053 146.287 143.9 146.663C143.359 147.954 142.362 148.841 141.138 149.534C140.212 150.016 139.535 150.722 139.107 151.652C138.587 152.857 137.842 153.912 136.871 154.818C136.203 155.428 135.503 155.989 134.971 156.719C134.749 157.02 134.348 156.848 134.082 157.117C133.541 157.669 133.319 158.354 133.115 159.045C132.628 160.676 131.907 162.205 130.954 163.629C129.79 165.461 128.24 166.9 126.305 167.953C124.955 168.67 123.809 169.703 122.395 170.303C122.195 170.369 122.089 170.505 122.077 170.709C122.026 171.329 121.585 171.701 121.175 172.12C120.515 172.799 119.987 173.6 119.173 174.126C119.102 174.173 119.063 174.278 118.994 174.308C117.509 174.974 116.644 176.317 115.493 177.346C115.278 177.554 115.019 177.666 114.715 177.679C113.636 177.676 113.152 178.437 112.658 179.156C111.066 181.467 109.324 183.676 107.672 185.948C105.371 189.131 102.684 192.016 100.31 195.143C98.9422 196.943 97.5012 198.694 96.0403 200.423C95.0449 201.604 94.32 202.983 93.216 204.053C92.3381 204.914 91.5223 205.848 90.5403 206.617C89.3897 207.524 88.5384 208.641 87.9842 209.972C87.6827 210.677 87.328 211.381 86.479 211.669C86.3371 211.719 86.2484 211.929 86.1509 212.065C84.7941 213.892 83.2268 215.527 81.4467 216.973C81.2671 217.138 81.1186 217.335 80.8481 217.267Z" fill="#1E1E1E"/>
</g>
</g>
</g>
<path d="M101.902 192.643C100.766 193.967 99.6736 195.27 98.6229 196.55L97.2917 195.522C98.3497 194.232 99.449 192.92 100.592 191.588L101.902 192.643ZM97.5859 197.824C96.5218 199.14 95.5014 200.433 94.5269 201.702L93.1618 200.717C94.146 199.435 95.1737 198.132 96.2452 196.804L97.5859 197.824ZM93.5031 203.049C92.4976 204.385 91.5426 205.697 90.6383 206.98L89.2342 206.048C90.1484 204.749 91.113 203.427 92.1282 202.076L93.5031 203.049ZM89.6716 208.371C88.7011 209.785 87.795 211.167 86.9532 212.514L85.4977 211.656C86.3519 210.289 87.2726 208.888 88.2553 207.456L89.6716 208.371ZM86.1299 213.851C85.2273 215.35 84.4055 216.801 83.6662 218.213L82.1506 217.462C82.9049 216.023 83.7419 214.542 84.6617 213.017L86.1299 213.851ZM82.9548 219.607C82.1793 221.168 81.5095 222.674 80.9455 224.123L79.3549 223.537C79.9373 222.042 80.6254 220.493 81.4214 218.889L82.9548 219.607ZM80.4025 225.593C79.834 227.216 79.4058 228.766 79.1156 230.241L77.4454 229.925C77.7514 228.376 78.1998 226.754 78.7907 225.059L80.4025 225.593ZM78.8461 231.879C78.625 233.559 78.6017 235.133 78.7696 236.601L77.081 236.778C76.897 235.18 76.9221 233.475 77.1604 231.665L78.8461 231.879ZM79.0251 238.124C79.3692 239.685 79.9616 241.115 80.7977 242.417L79.356 243.282C78.4147 241.819 77.7493 240.211 77.3639 238.463L79.0251 238.124ZM81.7164 243.677C82.6768 244.843 83.8667 245.894 85.2838 246.831L84.3324 248.191C82.7724 247.161 81.4586 245.998 80.3912 244.701L81.7164 243.677ZM86.6738 247.672C88.008 248.411 89.5076 249.067 91.1747 249.639L90.613 251.192C88.8504 250.586 87.2578 249.889 85.8357 249.101L86.6738 247.672ZM92.7182 250.13C94.2204 250.573 95.8442 250.955 97.5873 251.278L97.2747 252.893C95.4722 252.562 93.7894 252.166 92.2284 251.704L92.7182 250.13ZM99.2333 251.555C100.81 251.803 102.477 252.003 104.235 252.156L104.088 253.796C102.292 253.639 100.585 253.435 98.9689 253.183L99.2333 251.555ZM105.906 252.287C107.527 252.398 109.217 252.474 110.979 252.512L110.949 254.158C109.159 254.119 107.44 254.043 105.794 253.929L105.906 252.287ZM112.639 252.536C114.093 252.548 115.591 252.537 117.135 252.5L117.183 254.147C115.619 254.183 114.103 254.195 112.631 254.182L112.639 252.536Z" fill="#1E1E1E"/>
<path d="M120.771 282.175L125.49 280.022L126.218 281.513L121.5 283.666L120.771 282.175ZM126.967 279.329C128.566 278.571 130.091 277.832 131.542 277.107L132.325 278.571C130.865 279.3 129.329 280.047 127.719 280.809L126.967 279.329ZM133.025 276.358C134.605 275.549 136.09 274.764 137.479 273.999L138.325 275.431C136.92 276.204 135.418 277 133.82 277.815L133.025 276.358ZM138.922 273.19C140.492 272.298 141.922 271.437 143.217 270.603L144.16 271.976C142.839 272.826 141.383 273.705 139.785 274.612L138.922 273.19ZM144.537 269.732C146.07 268.694 147.375 267.708 148.45 266.772L149.589 268.001C148.462 268.981 147.103 270.008 145.514 271.084L144.537 269.732ZM149.693 265.614C151.068 264.226 151.865 262.99 152.083 261.91L153.751 262.233C153.468 263.629 152.525 265.135 150.921 266.756L149.693 265.614ZM152.057 260.693C151.77 259.656 150.753 258.728 149.003 257.912L149.736 256.428C151.958 257.466 153.277 258.748 153.699 260.273L152.057 260.693ZM147.418 257.272C146.102 256.813 144.526 256.406 142.689 256.051L143.013 254.436C144.935 254.807 146.592 255.234 147.989 255.724L147.418 257.272ZM141.079 255.767C139.563 255.519 137.897 255.305 136.08 255.121L136.25 253.484C138.102 253.671 139.803 253.89 141.355 254.143L141.079 255.767ZM134.365 254.962C132.792 254.826 131.119 254.715 129.346 254.622L129.429 252.977C131.223 253.071 132.915 253.186 134.508 253.322L134.365 254.962ZM127.618 254.542C126.014 254.473 124.336 254.424 122.579 254.388L122.607 252.741C124.375 252.777 126.069 252.828 127.684 252.897L127.618 254.542ZM120.879 254.361L117.953 254.337L117.961 252.689L120.887 252.713L120.879 254.361Z" fill="#1E1E1E"/>
<path d="M118.968 236.305L115.861 240.387L114.493 239.406L117.598 235.324L118.968 236.305ZM114.874 241.703L111.974 245.632L110.59 244.669L113.492 240.74L114.874 241.703ZM110.965 247.02L108.076 251.083L106.675 250.143L109.566 246.08L110.965 247.02ZM107.169 252.383C106.175 253.822 105.228 255.218 104.328 256.572L102.899 255.678C103.804 254.313 104.756 252.909 105.757 251.462L107.169 252.383ZM103.429 257.94C102.488 259.379 101.603 260.771 100.778 262.113L99.3171 261.264C100.153 259.91 101.045 258.505 101.991 257.055L103.429 257.94ZM99.9061 263.542C99.0185 265.015 98.2038 266.427 97.4618 267.776L95.9614 266.995C96.7156 265.627 97.5403 264.199 98.4379 262.709L99.9061 263.542ZM96.6577 269.263C95.8387 270.81 95.1208 272.27 94.504 273.643L92.9448 272.981C93.5769 271.577 94.3102 270.085 95.1447 268.505L96.6577 269.263ZM93.8514 275.157C93.1624 276.824 92.6383 278.344 92.2836 279.718L90.6347 279.311C91.0097 277.865 91.556 276.275 92.2717 274.539L93.8514 275.157ZM91.9561 281.187C91.6171 283.042 91.6396 284.561 92.0236 285.741L90.4039 286.231C89.9363 284.793 89.8951 283.013 90.2845 280.892L91.9561 281.187ZM92.6365 286.956C93.3839 287.979 94.6366 288.606 96.3944 288.837L96.1719 290.469C93.9251 290.172 92.285 289.318 91.2517 287.904L92.6365 286.956ZM97.9896 288.937C99.4087 288.944 101.058 288.757 102.939 288.381L103.289 289.994C101.293 290.393 99.5273 290.592 97.9884 290.583L97.9896 288.937ZM104.456 288.046C105.942 287.691 107.554 287.231 109.287 286.664L109.836 288.225C108.057 288.806 106.4 289.279 104.868 289.645L104.456 288.046ZM110.84 286.139C112.338 285.62 113.917 285.026 115.582 284.362L116.235 285.885C114.545 286.56 112.941 287.161 111.421 287.69L110.84 286.139ZM117.107 283.744C118.292 283.256 119.516 282.732 120.78 282.174L121.488 283.674C120.212 284.236 118.974 284.765 117.779 285.259L117.107 283.744Z" fill="#1E1E1E"/>
<path d="M197.88 266.479L194.169 262.963L195.353 261.786L199.066 265.305L197.88 266.479ZM192.96 261.839L189.249 258.459L190.412 257.261L194.121 260.642L192.96 261.839ZM187.989 257.334C186.728 256.216 185.48 255.128 184.246 254.076L185.367 252.842C186.607 253.903 187.863 254.995 189.133 256.12L187.989 257.334ZM182.952 252.977C181.637 251.868 180.34 250.797 179.06 249.764L180.143 248.501C181.433 249.541 182.742 250.62 184.065 251.736L182.952 252.977ZM177.784 248.743C176.425 247.664 175.085 246.626 173.765 245.633L174.803 244.336C176.136 245.338 177.487 246.382 178.858 247.471L177.784 248.743ZM172.44 244.647C171.048 243.621 169.681 242.642 168.332 241.714L169.313 240.372C170.677 241.311 172.06 242.3 173.466 243.337L172.44 244.647ZM166.955 240.775C165.522 239.81 164.112 238.901 162.727 238.05L163.634 236.66C165.037 237.525 166.467 238.445 167.921 239.423L166.955 240.775ZM161.298 237.186C159.807 236.298 158.347 235.477 156.916 234.724L157.722 233.278C159.179 234.045 160.667 234.879 162.184 235.784L161.298 237.186ZM155.44 233.967C153.88 233.184 152.359 232.486 150.875 231.868L151.538 230.354C153.061 230.988 154.619 231.704 156.216 232.504L155.44 233.967ZM149.361 231.263C147.733 230.638 146.149 230.112 144.612 229.693L145.069 228.108C146.661 228.543 148.299 229.085 149.983 229.732L149.361 231.263ZM142.981 229.28C141.287 228.887 139.651 228.627 138.076 228.496L138.214 226.856C139.874 226.993 141.593 227.267 143.371 227.678L142.981 229.28ZM136.437 228.408C134.739 228.366 133.114 228.483 131.563 228.762L131.247 227.145C132.915 226.843 134.658 226.716 136.474 226.762L136.437 228.408ZM129.961 229.116C128.382 229.529 126.882 230.121 125.46 230.893L124.625 229.456C126.168 228.618 127.797 227.974 129.512 227.527L129.961 229.116ZM124.078 231.715C122.766 232.569 121.526 233.589 120.357 234.774L119.126 233.633C120.38 232.362 121.715 231.266 123.129 230.348L124.078 231.715ZM119.251 235.97L118.937 236.338L117.625 235.285L117.939 234.918L119.251 235.97Z" fill="#1E1E1E"/>
<path d="M140.644 209.155L135.802 165.329H144.652L147.179 192.986L149.706 165.329H158.131L160.551 192.986L162.972 165.329H171.928L166.971 209.155H156.127L153.865 188.037L151.702 209.155H140.644Z" fill="#1E1E1E"/>
<path d="M174.399 169.307V163.087H183.612V169.307H174.399ZM174.399 209.155V171.807H183.612V209.155H174.399Z" fill="#1E1E1E"/>
<path d="M197.826 209.568C190.211 209.568 186.404 205.826 186.404 198.338L186.458 195.383H195.671L195.724 199.765C195.724 200.654 195.897 201.326 196.247 201.784C196.602 202.243 197.181 202.471 197.985 202.471C199.213 202.471 199.83 201.504 199.83 199.567C199.83 198.136 199.539 197.013 198.961 196.199C198.38 195.381 197.458 194.513 196.194 193.596L191.299 189.919C189.614 188.664 188.402 187.367 187.663 186.027C186.93 184.682 186.564 182.783 186.564 180.33C186.564 178.423 187.08 176.799 188.116 175.459C189.149 174.114 190.528 173.103 192.248 172.426C193.968 171.745 195.879 171.404 197.985 171.404C205.463 171.404 209.203 175.01 209.203 182.22V182.934H199.67V181.507C199.67 180.62 199.519 179.864 199.218 179.239C198.921 178.61 198.422 178.294 197.719 178.294C197.092 178.294 196.611 178.472 196.274 178.827C195.941 179.183 195.777 179.667 195.777 180.279C195.777 181.643 196.32 182.697 197.409 183.44L203.093 187.47C205.132 188.937 206.695 190.529 207.784 192.247C208.87 193.961 209.415 196.128 209.415 198.751C209.415 202.217 208.396 204.885 206.356 206.758C204.321 208.631 201.479 209.568 197.826 209.568Z" fill="#1E1E1E"/>
<path d="M223.048 209.568C219.08 209.568 216.238 208.515 214.517 206.406C212.797 204.292 211.937 201.146 211.937 196.964V181.963C211.937 178.526 212.952 175.91 214.987 174.11C217.027 172.306 219.873 171.404 223.527 171.404C230.927 171.404 234.629 174.924 234.629 181.963V184.669C234.629 187.39 234.596 189.601 234.531 191.302H221.15V198.545C221.15 199.84 221.288 200.854 221.567 201.586C221.851 202.314 222.449 202.677 223.367 202.677C224.07 202.677 224.569 202.475 224.866 202.067C225.161 201.655 225.336 201.186 225.389 200.658C225.442 200.132 225.469 199.359 225.469 198.338V194.721H234.629V196.861C234.629 201.214 233.76 204.421 232.022 206.483C230.288 208.541 227.298 209.568 223.048 209.568ZM225.469 186.86V182.066C225.469 179.381 224.786 178.036 223.42 178.036C221.871 178.036 221.097 179.381 221.097 182.066V186.86H225.469Z" fill="#1E1E1E"/>
<path d="M188.231 262.533V221.319H181.979V211.524H205.026V221.319H198.774V262.533H188.231Z" fill="#1E1E1E"/>
<path d="M220.837 263.006C211.885 263.006 207.411 258.512 207.411 249.525V232.067C207.411 227.95 208.604 224.674 210.994 222.238C213.388 219.805 216.669 218.587 220.837 218.587C225.004 218.587 228.281 219.805 230.671 222.238C233.065 224.674 234.262 227.95 234.262 232.067V249.525C234.262 258.512 229.786 263.006 220.837 263.006ZM220.837 254.99C221.692 254.99 222.326 254.695 222.734 254.105C223.146 253.51 223.355 252.696 223.355 251.665V230.409C223.355 227.872 222.515 226.603 220.837 226.603C219.163 226.603 218.327 227.872 218.327 230.409V251.665C218.327 252.696 218.531 253.51 218.939 254.105C219.347 254.695 219.979 254.99 220.837 254.99Z" fill="#1E1E1E"/>
<path d="M246.891 263.006C243.539 263.006 241.238 262.039 239.992 260.102C238.744 258.16 238.121 255.269 238.121 251.424V219.059H248.912V249.353C248.912 249.628 248.912 250.372 248.912 251.579C248.912 252.788 249.103 253.638 249.489 254.13C249.879 254.624 250.482 254.869 251.298 254.869C252.402 254.869 253.098 254.427 253.382 253.538C253.67 252.644 253.816 251.368 253.816 249.706V249.353L253.869 219.059H264.537V262.533H253.816V257.902C253.076 259.724 252.215 261.029 251.236 261.82C250.254 262.61 248.806 263.006 246.891 263.006Z" fill="#1E1E1E"/>
<path d="M268.827 219.059H279.557V223.871C280.082 222.169 281.011 220.855 282.341 219.927C283.671 218.995 285.314 218.527 287.272 218.527V227.196C285.764 227.196 284.099 227.406 282.279 227.823C280.464 228.242 279.557 228.725 279.557 229.275V262.533H268.827V219.059Z" fill="#1E1E1E"/>
<line x1="31.3241" y1="330.602" x2="288.338" y2="328.43" stroke="#1E1E1E" stroke-width="3.61992"/>
<line x1="31.3241" y1="40.2848" x2="288.338" y2="38.1129" stroke="#1E1E1E" stroke-width="3.61992"/>
<path d="M77.966 381.216H72.7906V377.639H77.966C78.7296 377.639 79.3423 377.512 79.8042 377.257C80.2756 377.003 80.6196 376.654 80.8365 376.211C81.0627 375.758 81.1758 375.249 81.1758 374.684C81.1758 374.099 81.0627 373.557 80.8365 373.058C80.6196 372.548 80.2756 372.138 79.8042 371.827C79.3423 371.516 78.7296 371.361 77.966 371.361H74.4592V388.371H69.8494V367.783H77.966C79.6063 367.783 81.0109 368.08 82.1798 368.674C83.3582 369.268 84.2584 370.083 84.8806 371.12C85.5122 372.148 85.828 373.326 85.828 374.655C85.828 375.985 85.5122 377.139 84.8806 378.12C84.2584 379.1 83.3582 379.864 82.1798 380.41C81.0109 380.948 79.6063 381.216 77.966 381.216ZM94.7505 371.7L89.4338 388.371H84.5129L92.1346 367.783H95.2454L94.7505 371.7ZM99.1623 388.371L93.8314 371.7L93.2799 367.783H96.4332L104.083 388.371H99.1623ZM98.9361 380.707V384.271H88.2036V380.707H98.9361ZM116.47 382.942C116.47 382.593 116.418 382.282 116.314 382.008C116.211 381.726 116.022 381.466 115.749 381.231C115.475 380.995 115.089 380.759 114.589 380.524C114.09 380.279 113.435 380.029 112.624 379.774C111.7 379.473 110.819 379.133 109.98 378.756C109.15 378.37 108.41 377.922 107.76 377.413C107.109 376.904 106.595 376.31 106.218 375.631C105.851 374.952 105.667 374.16 105.667 373.256C105.667 372.379 105.86 371.587 106.247 370.88C106.633 370.173 107.175 369.57 107.873 369.07C108.57 368.561 109.39 368.174 110.333 367.91C111.276 367.637 112.313 367.5 113.444 367.5C114.952 367.5 116.277 367.769 117.417 368.306C118.568 368.834 119.463 369.579 120.104 370.541C120.745 371.493 121.066 372.6 121.066 373.864H116.484C116.484 373.307 116.366 372.817 116.131 372.393C115.904 371.959 115.556 371.62 115.084 371.375C114.622 371.13 114.043 371.007 113.345 371.007C112.666 371.007 112.096 371.111 111.634 371.318C111.182 371.516 110.837 371.79 110.602 372.138C110.376 372.487 110.262 372.869 110.262 373.284C110.262 373.614 110.347 373.915 110.517 374.189C110.696 374.453 110.951 374.703 111.281 374.938C111.62 375.164 112.035 375.381 112.525 375.589C113.015 375.796 113.576 375.994 114.208 376.183C115.311 376.531 116.286 376.918 117.135 377.342C117.992 377.766 118.714 378.247 119.298 378.784C119.883 379.322 120.321 379.93 120.613 380.608C120.915 381.287 121.066 382.055 121.066 382.913C121.066 383.828 120.887 384.638 120.528 385.345C120.18 386.052 119.67 386.656 119.001 387.155C118.341 387.646 117.549 388.018 116.626 388.273C115.702 388.527 114.67 388.654 113.529 388.654C112.492 388.654 111.469 388.522 110.46 388.258C109.452 387.985 108.537 387.57 107.717 387.014C106.906 386.458 106.256 385.751 105.766 384.893C105.285 384.026 105.045 382.998 105.045 381.81H109.654C109.654 382.433 109.744 382.96 109.923 383.394C110.102 383.818 110.357 384.162 110.687 384.426C111.026 384.69 111.436 384.879 111.917 384.992C112.398 385.105 112.935 385.162 113.529 385.162C114.217 385.162 114.773 385.067 115.197 384.879C115.631 384.681 115.952 384.412 116.159 384.073C116.366 383.733 116.47 383.356 116.47 382.942ZM134.456 382.942C134.456 382.593 134.405 382.282 134.301 382.008C134.197 381.726 134.009 381.466 133.735 381.231C133.462 380.995 133.075 380.759 132.576 380.524C132.076 380.279 131.421 380.029 130.61 379.774C129.687 379.473 128.805 379.133 127.966 378.756C127.137 378.37 126.397 377.922 125.746 377.413C125.096 376.904 124.582 376.31 124.205 375.631C123.837 374.952 123.653 374.16 123.653 373.256C123.653 372.379 123.847 371.587 124.233 370.88C124.62 370.173 125.162 369.57 125.859 369.07C126.557 368.561 127.377 368.174 128.32 367.91C129.262 367.637 130.299 367.5 131.43 367.5C132.939 367.5 134.263 367.769 135.404 368.306C136.554 368.834 137.45 369.579 138.091 370.541C138.732 371.493 139.052 372.6 139.052 373.864H134.471C134.471 373.307 134.353 372.817 134.117 372.393C133.891 371.959 133.542 371.62 133.071 371.375C132.609 371.13 132.029 371.007 131.331 371.007C130.653 371.007 130.082 371.111 129.621 371.318C129.168 371.516 128.824 371.79 128.588 372.138C128.362 372.487 128.249 372.869 128.249 373.284C128.249 373.614 128.334 373.915 128.503 374.189C128.683 374.453 128.937 374.703 129.267 374.938C129.606 375.164 130.021 375.381 130.511 375.589C131.002 375.796 131.562 375.994 132.194 376.183C133.297 376.531 134.273 376.918 135.121 377.342C135.979 377.766 136.7 378.247 137.285 378.784C137.869 379.322 138.307 379.93 138.6 380.608C138.901 381.287 139.052 382.055 139.052 382.913C139.052 383.828 138.873 384.638 138.515 385.345C138.166 386.052 137.657 386.656 136.988 387.155C136.328 387.646 135.536 388.018 134.612 388.273C133.688 388.527 132.656 388.654 131.515 388.654C130.478 388.654 129.456 388.522 128.447 388.258C127.438 387.985 126.524 387.57 125.704 387.014C124.893 386.458 124.242 385.751 123.752 384.893C123.272 384.026 123.031 382.998 123.031 381.81H127.641C127.641 382.433 127.73 382.96 127.91 383.394C128.089 383.818 128.343 384.162 128.673 384.426C129.012 384.69 129.423 384.879 129.903 384.992C130.384 385.105 130.921 385.162 131.515 385.162C132.203 385.162 132.76 385.067 133.184 384.879C133.618 384.681 133.938 384.412 134.145 384.073C134.353 383.733 134.456 383.356 134.456 382.942ZM150.322 371.7L145.005 388.371H140.084L147.706 367.783H150.817L150.322 371.7ZM154.734 388.371L149.403 371.7L148.851 367.783H152.005L159.655 388.371H154.734ZM154.507 380.707V384.271H143.775V380.707H154.507ZM169.482 381.216H164.307V377.639H169.482C170.246 377.639 170.858 377.512 171.32 377.257C171.792 377.003 172.136 376.654 172.353 376.211C172.579 375.758 172.692 375.249 172.692 374.684C172.692 374.099 172.579 373.557 172.353 373.058C172.136 372.548 171.792 372.138 171.32 371.827C170.858 371.516 170.246 371.361 169.482 371.361H165.975V388.371H161.365V367.783H169.482C171.122 367.783 172.527 368.08 173.696 368.674C174.874 369.268 175.774 370.083 176.397 371.12C177.028 372.148 177.344 373.326 177.344 374.655C177.344 375.985 177.028 377.139 176.397 378.12C175.774 379.1 174.874 379.864 173.696 380.41C172.527 380.948 171.122 381.216 169.482 381.216ZM197.31 377.625V378.544C197.31 380.109 197.093 381.513 196.66 382.758C196.235 384.002 195.627 385.063 194.836 385.939C194.053 386.816 193.12 387.49 192.036 387.961C190.961 388.423 189.769 388.654 188.458 388.654C187.148 388.654 185.951 388.423 184.867 387.961C183.783 387.49 182.84 386.816 182.039 385.939C181.247 385.063 180.634 384.002 180.2 382.758C179.767 381.513 179.55 380.109 179.55 378.544V377.625C179.55 376.06 179.767 374.655 180.2 373.411C180.634 372.157 181.242 371.092 182.024 370.215C182.816 369.339 183.754 368.669 184.838 368.207C185.922 367.736 187.12 367.5 188.43 367.5C189.74 367.5 190.938 367.736 192.022 368.207C193.106 368.669 194.039 369.339 194.821 370.215C195.613 371.092 196.226 372.157 196.66 373.411C197.093 374.655 197.31 376.06 197.31 377.625ZM192.658 378.544V377.597C192.658 376.55 192.564 375.626 192.375 374.825C192.187 374.014 191.913 373.336 191.555 372.789C191.197 372.242 190.754 371.832 190.226 371.559C189.698 371.276 189.099 371.134 188.43 371.134C187.732 371.134 187.124 371.276 186.606 371.559C186.087 371.832 185.649 372.242 185.291 372.789C184.942 373.336 184.673 374.014 184.485 374.825C184.306 375.626 184.216 376.55 184.216 377.597V378.544C184.216 379.581 184.306 380.505 184.485 381.315C184.673 382.117 184.947 382.795 185.305 383.352C185.663 383.908 186.102 384.327 186.62 384.61C187.148 384.893 187.761 385.034 188.458 385.034C189.128 385.034 189.722 384.893 190.24 384.61C190.768 384.327 191.211 383.908 191.569 383.352C191.927 382.795 192.196 382.117 192.375 381.315C192.564 380.505 192.658 379.581 192.658 378.544ZM200.138 367.783H208.043C209.617 367.783 210.979 368.019 212.129 368.49C213.289 368.962 214.18 369.659 214.802 370.583C215.424 371.507 215.735 372.647 215.735 374.005C215.735 375.136 215.551 376.098 215.183 376.89C214.816 377.681 214.297 378.337 213.628 378.855C212.968 379.374 212.195 379.793 211.309 380.114L209.81 380.934H203.079L203.051 377.356H208.057C208.745 377.356 209.315 377.234 209.768 376.989C210.22 376.743 210.56 376.399 210.786 375.956C211.022 375.504 211.139 374.976 211.139 374.373C211.139 373.75 211.022 373.213 210.786 372.761C210.55 372.308 210.201 371.964 209.739 371.728C209.287 371.483 208.721 371.361 208.043 371.361H204.748V388.371H200.138V367.783ZM211.535 388.371L206.911 379.223L211.776 379.209L216.47 388.159V388.371H211.535ZM227.684 367.783V388.371H223.088V367.783H227.684ZM233.948 367.783V371.361H216.951V367.783H233.948ZM250.223 384.808V388.371H239.264V384.808H250.223ZM240.834 367.783V388.371H236.224V367.783H240.834ZM248.809 376.069V379.52H239.264V376.069H248.809ZM250.237 367.783V371.361H239.264V367.783H250.237ZM70.8251 422.371H66.3002L66.3285 418.808H70.8251C71.8527 418.808 72.7199 418.572 73.4269 418.101C74.134 417.62 74.6713 416.913 75.0389 415.98C75.4066 415.037 75.5904 413.892 75.5904 412.544V411.597C75.5904 410.578 75.4867 409.683 75.2793 408.91C75.0719 408.127 74.7656 407.472 74.3602 406.944C73.9548 406.417 73.4505 406.021 72.8472 405.757C72.2533 405.493 71.5699 405.361 70.7968 405.361H66.2154V401.783H70.7968C72.192 401.783 73.4647 402.019 74.6147 402.49C75.7742 402.962 76.7735 403.636 77.6125 404.512C78.4609 405.389 79.1161 406.426 79.578 407.623C80.0399 408.82 80.2709 410.154 80.2709 411.625V412.544C80.2709 414.005 80.0399 415.339 79.578 416.546C79.1161 417.743 78.4609 418.78 77.6125 419.657C76.7735 420.524 75.7789 421.193 74.6289 421.664C73.4788 422.136 72.2109 422.371 70.8251 422.371ZM68.9162 401.783V422.371H64.3064V401.783H68.9162ZM97.0837 418.808V422.371H86.1249V418.808H97.0837ZM87.6945 401.783V422.371H83.0848V401.783H87.6945ZM95.6696 410.069V413.52H86.1249V410.069H95.6696ZM97.0978 401.783V405.361H86.1249V401.783H97.0978ZM118.393 415.471H122.975C122.899 416.885 122.513 418.134 121.815 419.218C121.127 420.293 120.17 421.137 118.945 421.749C117.719 422.353 116.263 422.654 114.575 422.654C113.227 422.654 112.021 422.423 110.955 421.961C109.89 421.5 108.985 420.84 108.24 419.982C107.505 419.115 106.939 418.073 106.544 416.857C106.157 415.631 105.964 414.25 105.964 412.714V411.455C105.964 409.919 106.166 408.538 106.572 407.312C106.977 406.087 107.557 405.04 108.311 404.173C109.065 403.306 109.97 402.641 111.026 402.179C112.082 401.717 113.26 401.486 114.561 401.486C116.314 401.486 117.795 401.802 119.001 402.434C120.208 403.065 121.141 403.933 121.801 405.035C122.47 406.138 122.871 407.397 123.003 408.811H118.407C118.37 408.01 118.219 407.336 117.955 406.789C117.691 406.233 117.285 405.813 116.739 405.53C116.192 405.248 115.466 405.106 114.561 405.106C113.901 405.106 113.321 405.229 112.822 405.474C112.332 405.719 111.922 406.101 111.592 406.619C111.271 407.138 111.031 407.798 110.87 408.599C110.71 409.391 110.63 410.333 110.63 411.427V412.714C110.63 413.798 110.701 414.736 110.842 415.528C110.984 416.319 111.21 416.975 111.521 417.493C111.841 418.012 112.252 418.398 112.751 418.653C113.251 418.907 113.859 419.034 114.575 419.034C115.395 419.034 116.079 418.907 116.626 418.653C117.172 418.389 117.592 417.993 117.884 417.465C118.176 416.937 118.346 416.272 118.393 415.471ZM134.089 405.7L128.772 422.371H123.851L131.473 401.783H134.584L134.089 405.7ZM138.501 422.371L133.17 405.7L132.618 401.783H135.772L143.421 422.371H138.501ZM138.274 414.707V418.271H127.542V414.707H138.274ZM151.651 422.371H147.126L147.155 418.808H151.651C152.679 418.808 153.546 418.572 154.253 418.101C154.96 417.62 155.497 416.913 155.865 415.98C156.233 415.037 156.416 413.892 156.416 412.544V411.597C156.416 410.578 156.313 409.683 156.105 408.91C155.898 408.127 155.592 407.472 155.186 406.944C154.781 406.417 154.277 406.021 153.673 405.757C153.079 405.493 152.396 405.361 151.623 405.361H147.041V401.783H151.623C153.018 401.783 154.291 402.019 155.441 402.49C156.6 402.962 157.599 403.636 158.438 404.512C159.287 405.389 159.942 406.426 160.404 407.623C160.866 408.82 161.097 410.154 161.097 411.625V412.544C161.097 414.005 160.866 415.339 160.404 416.546C159.942 417.743 159.287 418.78 158.438 419.657C157.599 420.524 156.605 421.193 155.455 421.664C154.305 422.136 153.037 422.371 151.651 422.371ZM149.742 401.783V422.371H145.132V401.783H149.742ZM172.155 405.7L166.838 422.371H161.917L169.539 401.783H172.649L172.155 405.7ZM176.566 422.371L171.235 405.7L170.684 401.783H173.837L181.487 422.371H176.566ZM176.34 414.707V418.271H165.608V414.707H176.34ZM193.874 416.942C193.874 416.593 193.822 416.282 193.719 416.008C193.615 415.726 193.426 415.466 193.153 415.231C192.88 414.995 192.493 414.759 191.993 414.524C191.494 414.279 190.839 414.029 190.028 413.774C189.104 413.473 188.223 413.133 187.384 412.756C186.554 412.37 185.814 411.922 185.164 411.413C184.513 410.904 183.999 410.31 183.622 409.631C183.255 408.952 183.071 408.16 183.071 407.256C183.071 406.379 183.264 405.587 183.651 404.88C184.037 404.173 184.579 403.57 185.277 403.07C185.974 402.561 186.794 402.174 187.737 401.91C188.68 401.637 189.717 401.5 190.848 401.5C192.356 401.5 193.681 401.769 194.821 402.306C195.972 402.834 196.867 403.579 197.508 404.541C198.149 405.493 198.47 406.6 198.47 407.864H193.888C193.888 407.307 193.77 406.817 193.535 406.393C193.308 405.959 192.96 405.62 192.488 405.375C192.026 405.13 191.447 405.007 190.749 405.007C190.07 405.007 189.5 405.111 189.038 405.318C188.586 405.516 188.242 405.79 188.006 406.138C187.78 406.487 187.666 406.869 187.666 407.284C187.666 407.614 187.751 407.915 187.921 408.189C188.1 408.453 188.355 408.703 188.685 408.938C189.024 409.164 189.439 409.381 189.929 409.589C190.419 409.796 190.98 409.994 191.612 410.183C192.715 410.531 193.69 410.918 194.539 411.342C195.397 411.766 196.118 412.247 196.702 412.784C197.287 413.322 197.725 413.93 198.017 414.608C198.319 415.287 198.47 416.055 198.47 416.913C198.47 417.828 198.291 418.638 197.932 419.345C197.584 420.052 197.074 420.656 196.405 421.155C195.745 421.646 194.953 422.018 194.03 422.273C193.106 422.527 192.074 422.654 190.933 422.654C189.896 422.654 188.873 422.522 187.864 422.258C186.856 421.985 185.941 421.57 185.121 421.014C184.311 420.458 183.66 419.751 183.17 418.893C182.689 418.026 182.449 416.998 182.449 415.81H187.058C187.058 416.433 187.148 416.96 187.327 417.394C187.506 417.818 187.761 418.162 188.091 418.426C188.43 418.69 188.84 418.879 189.321 418.992C189.802 419.105 190.339 419.162 190.933 419.162C191.621 419.162 192.177 419.067 192.601 418.879C193.035 418.681 193.356 418.412 193.563 418.073C193.77 417.733 193.874 417.356 193.874 416.942ZM210.772 401.783V422.371H206.176V401.783H210.772ZM217.036 401.783V405.361H200.039V401.783H217.036ZM219.312 401.783H227.217C228.791 401.783 230.153 402.019 231.303 402.49C232.463 402.962 233.354 403.659 233.976 404.583C234.598 405.507 234.909 406.647 234.909 408.005C234.909 409.136 234.725 410.098 234.358 410.89C233.99 411.681 233.472 412.337 232.802 412.855C232.142 413.374 231.369 413.793 230.483 414.114L228.984 414.934H222.254L222.225 411.356H227.231C227.919 411.356 228.49 411.234 228.942 410.989C229.395 410.743 229.734 410.399 229.96 409.956C230.196 409.504 230.314 408.976 230.314 408.373C230.314 407.75 230.196 407.213 229.96 406.761C229.724 406.308 229.376 405.964 228.914 405.728C228.461 405.483 227.896 405.361 227.217 405.361H223.922V422.371H219.312V401.783ZM230.71 422.371L226.086 413.223L230.95 413.209L235.645 422.159V422.371H230.71ZM255.201 411.625V412.544C255.201 414.109 254.984 415.513 254.55 416.758C254.126 418.002 253.518 419.063 252.726 419.939C251.944 420.816 251.01 421.49 249.926 421.961C248.852 422.423 247.659 422.654 246.349 422.654C245.038 422.654 243.841 422.423 242.757 421.961C241.673 421.49 240.73 420.816 239.929 419.939C239.137 419.063 238.524 418.002 238.091 416.758C237.657 415.513 237.44 414.109 237.44 412.544V411.625C237.44 410.06 237.657 408.655 238.091 407.411C238.524 406.157 239.132 405.092 239.915 404.215C240.707 403.339 241.645 402.669 242.729 402.207C243.813 401.736 245.01 401.5 246.32 401.5C247.631 401.5 248.828 401.736 249.912 402.207C250.996 402.669 251.929 403.339 252.712 404.215C253.504 405.092 254.116 406.157 254.55 407.411C254.984 408.655 255.201 410.06 255.201 411.625ZM250.548 412.544V411.597C250.548 410.55 250.454 409.626 250.266 408.825C250.077 408.014 249.804 407.336 249.445 406.789C249.087 406.242 248.644 405.832 248.116 405.559C247.588 405.276 246.99 405.134 246.32 405.134C245.623 405.134 245.015 405.276 244.496 405.559C243.978 405.832 243.54 406.242 243.181 406.789C242.833 407.336 242.564 408.014 242.375 408.825C242.196 409.626 242.107 410.55 242.107 411.597V412.544C242.107 413.581 242.196 414.505 242.375 415.315C242.564 416.117 242.837 416.795 243.195 417.352C243.554 417.908 243.992 418.327 244.51 418.61C245.038 418.893 245.651 419.034 246.349 419.034C247.018 419.034 247.612 418.893 248.13 418.61C248.658 418.327 249.101 417.908 249.46 417.352C249.818 416.795 250.086 416.117 250.266 415.315C250.454 414.505 250.548 413.581 250.548 412.544Z" fill="#1E1E1E"/>
</svg>
