<svg width="321" height="468" viewBox="0 0 321 468" fill="none" xmlns="http://www.w3.org/2000/svg">
<path d="M0.762207 0.827652H284.564C304.556 0.827652 320.763 17.0346 320.763 37.0268V431.598C320.763 451.59 304.556 467.797 284.564 467.797H0.762207V0.827652Z" fill="#F8CA26"/>
<mask id="mask0_115_1182" style="mask-type:luminance" maskUnits="userSpaceOnUse" x="31" y="83" width="117" height="134">
<path d="M31.8936 83.9027H147.1V216.97H31.8936V83.9027Z" fill="white"/>
</mask>
<g mask="url(#mask0_115_1182)">
<mask id="mask1_115_1182" style="mask-type:luminance" maskUnits="userSpaceOnUse" x="21" y="69" width="151" height="148">
<path d="M21.3325 161.442L111.007 69.6641L171.483 125.136L81.8088 216.914L21.3325 161.442Z" fill="white"/>
</mask>
<g mask="url(#mask1_115_1182)">
<mask id="mask2_115_1182" style="mask-type:luminance" maskUnits="userSpaceOnUse" x="21" y="69" width="151" height="148">
<path d="M21.3325 161.442L111.007 69.6641L171.483 125.136L81.8088 216.914L21.3325 161.442Z" fill="white"/>
</mask>
<g mask="url(#mask2_115_1182)">
<path d="M81.4023 216.543C81.9898 215.606 82.8654 214.928 83.5726 214.101C85.2907 212.056 86.8159 209.88 88.1438 207.577C89.0572 206.037 89.8641 204.42 90.8927 202.972C91.7795 201.724 92.5421 200.406 93.4443 199.177C93.5951 198.966 93.7702 198.777 93.6882 198.414C93.1938 198.773 92.797 199.213 92.5 199.737C91.5999 201.318 90.5136 202.766 89.2434 204.085C88.6781 204.669 88.2103 205.318 87.8401 206.035C86.7804 208.086 85.2153 209.755 83.4773 211.461C83.6325 210.926 83.8852 210.438 84.2355 209.998C85.1577 208.797 85.8937 207.489 86.7184 206.231C88.2835 203.825 89.7954 201.372 91.5511 199.093C94.1493 195.714 96.3928 192.112 98.8025 188.613C100.197 186.588 101.735 184.668 103.101 182.614C103.775 181.598 104.611 180.653 105.101 179.56C105.916 177.756 107.049 176.108 107.754 174.263C107.812 174.113 107.987 173.932 107.812 173.78C107.635 173.63 107.395 173.726 107.24 173.825C106.584 174.25 105.821 174.242 105.094 174.347C104.81 174.403 104.529 174.388 104.252 174.304C103.974 174.22 103.735 174.076 103.533 173.872C103.418 173.746 103.276 173.66 103.108 173.612C102.941 173.565 102.773 173.565 102.607 173.612C102.312 173.683 102.015 173.713 101.711 173.703C101.41 173.692 101.115 173.638 100.829 173.544C100.541 173.449 100.275 173.316 100.028 173.146C99.7824 172.977 99.5651 172.775 99.3789 172.545C98.8424 171.916 98.1064 171.933 97.5367 172.07C96.7807 172.255 96.0558 172.206 95.5393 171.84C94.7989 171.314 94.0385 171.278 93.2315 171.303C92.7638 171.336 92.3071 171.28 91.8637 171.129C91.4203 170.981 91.0257 170.751 90.6799 170.444C90.4095 170.208 90.0947 170.122 89.7377 170.189C89.2234 170.251 88.7135 170.335 88.1992 170.378C87.5319 170.431 86.8935 170.384 86.3681 169.884C85.989 169.555 85.5478 169.42 85.0446 169.484C84.1468 169.534 83.2866 169.379 82.4664 169.022C81.9233 168.795 81.3557 168.655 80.7661 168.606C79.9902 168.539 79.283 168.425 78.7021 167.794C78.3231 167.383 77.6735 167.549 77.1393 167.572C76.605 167.594 76.2348 167.545 76.0929 166.99C76.0264 166.728 75.787 166.681 75.5608 166.655C75.2305 166.625 74.8825 166.612 74.5499 166.584C74.0312 166.533 73.6787 166.277 73.7341 165.738C73.7896 165.197 73.61 165.233 73.2132 165.399C71.9784 165.925 70.7391 165.794 69.5043 165.364C69.2605 165.317 69.0787 165.188 68.9612 164.974C68.8393 164.632 68.5999 164.662 68.3205 164.658C67.2254 164.623 66.1613 164.441 65.1216 164.11C63.991 163.771 63.7094 163.371 63.6784 162.267C63.6673 161.825 63.3592 161.906 63.1131 161.913C61.8761 161.939 60.6679 161.859 59.5816 161.185C59.5506 161.157 59.4996 161.152 59.4597 161.129C58.6328 160.658 58.6195 160.572 59.2823 159.919C59.3998 159.821 59.473 159.698 59.5063 159.552C59.2602 159.675 59.0296 159.778 58.8013 159.904C58.1251 160.227 57.7305 159.969 57.7438 159.217C57.7305 159.043 57.7283 158.869 57.735 158.695C57.7926 158.18 57.5532 157.868 57.0455 157.946C56.1078 158.089 55.1789 158.296 54.2478 158.474C53.3145 158.693 52.3724 158.742 51.4213 158.624L52.4433 157.445C52.2682 157.445 52.1174 157.501 51.9866 157.613C50.5434 158.461 49.3419 158.382 48.0805 157.265C47.7014 156.917 47.0563 156.837 46.89 156.249C46.8767 156.21 46.7282 156.184 46.6462 156.193C45.0922 156.307 43.5913 156.051 42.0816 155.763C41.6094 155.679 41.1417 155.647 40.6673 155.6C40.2793 155.591 39.9047 155.516 39.5455 155.37C39.3837 155.289 39.2019 155.194 39.2219 154.99C39.2418 154.786 39.428 154.777 39.5699 154.717C40.4035 154.404 41.288 154.337 42.1526 154.174C42.5915 154.094 43.0593 154.114 43.4783 153.832C43.2521 153.484 42.8886 153.508 42.5716 153.493C40.4256 153.392 38.2753 153.312 36.1426 153.035C35.114 152.902 34.0898 152.718 33.0678 152.537C32.8173 152.524 32.6378 152.406 32.5314 152.185L35.5951 151.828C35.8899 151.794 36.1848 151.783 36.4752 151.727C36.6969 151.682 37.0649 151.764 37.0759 151.455C37.087 151.205 36.7656 151.107 36.5284 151.029C35.4066 150.662 34.2561 150.454 33.0723 150.402L32.354 150.374C32.4937 150.058 32.7641 150.08 32.9814 150.03C34.8746 149.592 36.8055 149.65 38.7297 149.65C42.9728 149.657 47.207 149.511 51.4324 149.137C51.7051 149.111 52.1751 149.191 52.1928 148.905C52.2127 148.514 51.8093 148.301 51.4213 148.196C51.0134 148.11 50.6099 148.115 50.2065 148.213C49.0626 148.443 47.912 148.205 46.6595 148.323C46.8124 148.153 47.0031 148.078 47.2359 148.102C49.4572 147.792 51.694 147.799 53.9308 147.767C57.4667 147.711 61.0026 147.618 64.5297 147.361C68.8282 147.043 73.0979 146.489 77.3454 145.846C79.3628 145.535 81.4156 145.543 83.4285 145.238C87.2814 144.654 91.1632 144.42 95.0405 144.147C97.5256 143.958 100.013 143.898 102.502 143.973C103.771 144.057 104.945 144.422 106.023 145.073C107.24 145.75 108.521 146.282 109.867 146.671C111.534 147.152 113.206 147.638 114.853 148.188C115.484 148.398 115.675 148.2 115.693 147.646C115.746 146.239 116.318 144.875 116.252 143.486C116.174 141.847 116.994 140.492 117.382 139.01C117.863 137.156 118.646 135.407 119.34 133.625C119.865 132.267 120.548 130.998 121.12 129.67C121.716 128.27 122 126.73 122.468 125.261C122.594 124.861 122.352 124.487 122.317 124.097C122.199 122.758 122.206 121.422 122.337 120.084C122.399 119.41 122.53 118.725 121.876 118.14C121.552 117.842 121.605 117.275 121.658 116.811C121.851 115.03 121.636 113.252 121.552 111.475C121.499 110.485 121.055 109.486 121.04 108.451C121.007 106.402 121.368 104.389 121.769 102.388C121.82 101.967 121.807 101.548 121.723 101.131C121.541 99.6125 121.816 98.1283 121.907 96.6333C121.936 96.0985 122.153 95.6496 122.559 95.2866C122.716 95.1577 122.827 95.0009 122.889 94.8098C122.949 94.6207 122.953 94.4296 122.898 94.2363C122.652 92.8552 122.627 91.4461 122.348 90.065C122.135 89.0147 122.492 88.6989 123.607 88.8987C123.982 88.961 123.906 88.7118 123.911 88.5443C123.937 87.7796 123.929 87.0064 123.949 86.2396C123.964 85.6661 124.026 85.1033 124.396 84.6179C124.649 84.2914 124.871 84.3215 125.07 84.648C125.857 85.9539 126.638 87.2598 127.427 88.5572C127.502 88.6646 127.542 88.7827 127.546 88.9137C127.551 89.0426 127.518 89.1629 127.447 89.2746C127.176 89.7815 127.566 90.5633 128.127 90.5676C128.54 90.5741 128.624 90.7975 128.744 91.0423C129.169 91.9122 129.566 92.7821 130.007 93.6585C130.154 93.9549 130.331 94.2341 130.539 94.494C130.69 94.683 130.927 95.0503 131.107 94.479C131.18 94.3308 131.297 94.2363 131.461 94.1933C131.663 94.1117 131.925 94.0408 131.559 93.7895C131.417 93.6907 131.552 93.4931 131.637 93.3749C132.113 92.6296 132.526 91.8521 132.874 91.0423C132.92 90.9027 133.002 90.791 133.124 90.7051C133.246 90.617 133.384 90.5762 133.534 90.5762C133.904 90.5676 134.033 90.8554 134.102 91.139C134.366 92.3182 134.523 93.5103 134.574 94.7152C134.685 96.4228 134.749 98.1347 134.836 99.8423C134.844 100.018 134.844 100.201 134.873 100.366C134.977 101.045 135.093 101.092 135.643 100.689C136.192 100.285 136.447 100.379 136.607 101.069C136.928 102.431 137.143 103.773 136.791 105.201C135.924 108.67 135.199 112.182 134.403 115.672C134.266 116.104 134.253 116.536 134.37 116.972C134.989 118.589 134.539 120.232 134.572 121.867C134.623 124.232 133.599 126.356 133.157 128.601C132.466 132.106 131.577 135.596 131.776 139.205C131.781 139.293 131.776 139.383 131.785 139.469C131.825 139.798 131.714 140.279 132.091 140.406C132.401 140.511 132.667 140.148 132.936 139.95C134.013 139.171 134.915 138.092 136.27 137.77C137.305 137.527 138.396 137.276 139.46 137.768C139.824 137.938 140.123 138.183 140.353 138.505C140.786 139.115 141.329 139.613 141.983 139.998C144.124 141.099 145.689 142.7 146.392 144.998C146.601 145.683 146.649 146.379 146.538 147.084C146.512 147.245 146.499 147.468 146.259 147.479C146.022 147.492 146.035 147.296 145.958 147.165C145.707 146.669 145.379 146.227 144.971 145.84C144.734 145.644 144.608 145.563 144.455 145.939C143.914 147.23 142.916 148.117 141.692 148.81C140.766 149.292 140.09 149.998 139.662 150.928C139.141 152.133 138.396 153.188 137.425 154.094C136.758 154.704 136.057 155.265 135.525 155.995C135.303 156.296 134.902 156.124 134.636 156.393C134.095 156.945 133.873 157.63 133.669 158.321C133.182 159.952 132.461 161.481 131.508 162.905C130.344 164.737 128.795 166.176 126.859 167.229C125.509 167.946 124.363 168.979 122.949 169.579C122.749 169.645 122.643 169.781 122.632 169.985C122.581 170.605 122.14 170.977 121.729 171.396C121.069 172.075 120.541 172.876 119.728 173.402C119.657 173.449 119.617 173.554 119.548 173.584C118.063 174.25 117.198 175.593 116.048 176.622C115.833 176.83 115.573 176.942 115.269 176.955C114.19 176.952 113.707 177.713 113.212 178.432C111.62 180.743 109.878 182.952 108.226 185.224C105.925 188.407 103.238 191.292 100.864 194.419C99.4964 196.219 98.0554 197.97 96.5945 199.699C95.5991 200.88 94.8742 202.259 93.7702 203.329C92.8923 204.19 92.0765 205.124 91.0945 205.893C89.9439 206.8 89.0926 207.917 88.5384 209.248C88.2369 209.953 87.8822 210.657 87.0332 210.945C86.8913 210.995 86.8026 211.205 86.7051 211.341C85.3483 213.168 83.781 214.803 82.0009 216.249C81.8213 216.414 81.6728 216.612 81.4023 216.543Z" fill="#1E1E1E"/>
</g>
</g>
</g>
<path d="M102.456 191.919C101.32 193.243 100.228 194.546 99.1776 195.826L97.8463 194.798C98.9044 193.508 100.004 192.196 101.147 190.864L102.456 191.919ZM98.1406 197.1C97.0765 198.416 96.0561 199.709 95.0816 200.978L93.7165 199.993C94.7006 198.711 95.7284 197.408 96.7999 196.08L98.1406 197.1ZM94.0578 202.325C93.0523 203.661 92.0973 204.973 91.193 206.256L89.7889 205.324C90.7031 204.025 91.6677 202.703 92.6829 201.352L94.0578 202.325ZM90.2263 207.647C89.2558 209.061 88.3497 210.443 87.5079 211.79L86.0524 210.932C86.9066 209.565 87.8272 208.164 88.81 206.732L90.2263 207.647ZM86.6845 213.127C85.782 214.626 84.9602 216.077 84.2209 217.489L82.7053 216.738C83.4596 215.299 84.2966 213.818 85.2164 212.293L86.6845 213.127ZM83.5094 218.883C82.734 220.444 82.0642 221.95 81.5002 223.399L79.9095 222.813C80.492 221.318 81.1801 219.769 81.9761 218.165L83.5094 218.883ZM80.9572 224.869C80.3887 226.492 79.9604 228.042 79.6703 229.517L78.0001 229.201C78.3061 227.652 78.7545 226.03 79.3453 224.335L80.9572 224.869ZM79.4008 231.155C79.1797 232.835 79.1564 234.409 79.3243 235.877L77.6357 236.054C77.4517 234.456 77.4768 232.751 77.7151 230.941L79.4008 231.155ZM79.5798 237.4C79.9239 238.961 80.5163 240.391 81.3524 241.693L79.9106 242.558C78.9694 241.095 78.304 239.487 77.9186 237.739L79.5798 237.4ZM82.2711 242.953C83.2315 244.119 84.4213 245.17 85.8385 246.107L84.8871 247.467C83.3271 246.437 82.0133 245.274 80.9459 243.977L82.2711 242.953ZM87.2285 246.948C88.5627 247.688 90.0623 248.343 91.7294 248.915L91.1677 250.468C89.405 249.862 87.8125 249.165 86.3903 248.377L87.2285 246.948ZM93.2729 249.406C94.7751 249.849 96.3988 250.231 98.1419 250.554L97.8294 252.169C96.0269 251.838 94.344 251.442 92.7831 250.98L93.2729 249.406ZM99.788 250.832C101.365 251.079 103.031 251.279 104.79 251.432L104.642 253.072C102.846 252.915 101.14 252.711 99.5236 252.459L99.788 250.832ZM106.461 251.563C108.082 251.674 109.772 251.75 111.534 251.788L111.503 253.434C109.713 253.395 107.994 253.319 106.349 253.205L106.461 251.563ZM113.194 251.812C114.648 251.824 116.146 251.813 117.69 251.776L117.737 253.423C116.173 253.459 114.658 253.471 113.186 253.458L113.194 251.812Z" fill="#1E1E1E"/>
<path d="M121.325 281.451L126.044 279.298L126.772 280.789L122.054 282.942L121.325 281.451ZM127.521 278.605C129.121 277.847 130.645 277.108 132.096 276.383L132.879 277.847C131.42 278.576 129.883 279.323 128.273 280.085L127.521 278.605ZM133.579 275.634C135.159 274.825 136.645 274.04 138.033 273.275L138.879 274.707C137.474 275.48 135.972 276.276 134.374 277.091L133.579 275.634ZM139.476 272.466C141.046 271.574 142.476 270.713 143.771 269.879L144.714 271.252C143.393 272.102 141.937 272.981 140.34 273.888L139.476 272.466ZM145.091 269.008C146.624 267.97 147.929 266.984 149.004 266.048L150.143 267.277C149.016 268.257 147.657 269.284 146.069 270.36L145.091 269.008ZM150.247 264.89C151.623 263.502 152.419 262.266 152.637 261.186L154.305 261.509C154.022 262.905 153.079 264.411 151.476 266.032L150.247 264.89ZM152.611 259.969C152.325 258.932 151.307 258.004 149.558 257.188L150.29 255.704C152.512 256.742 153.831 258.024 154.253 259.549L152.611 259.969ZM147.973 256.548C146.656 256.089 145.08 255.682 143.244 255.327L143.567 253.712C145.489 254.083 147.146 254.51 148.543 255L147.973 256.548ZM141.634 255.043C140.117 254.795 138.451 254.581 136.635 254.397L136.804 252.76C138.656 252.947 140.357 253.166 141.909 253.419L141.634 255.043ZM134.919 254.238C133.346 254.102 131.674 253.991 129.9 253.898L129.984 252.253C131.777 252.347 133.469 252.462 135.062 252.598L134.919 254.238ZM128.173 253.818C126.569 253.749 124.89 253.7 123.133 253.664L123.161 252.017C124.929 252.053 126.623 252.104 128.238 252.173L128.173 253.818ZM121.433 253.637L118.507 253.613L118.515 251.965L121.441 251.989L121.433 253.637Z" fill="#1E1E1E"/>
<path d="M119.522 235.581L116.415 239.663L115.047 238.682L118.152 234.6L119.522 235.581ZM115.428 240.979L112.528 244.908L111.144 243.945L114.046 240.016L115.428 240.979ZM111.519 246.296L108.631 250.359L107.229 249.419L110.12 245.356L111.519 246.296ZM107.723 251.659C106.729 253.098 105.782 254.494 104.882 255.848L103.453 254.954C104.358 253.589 105.31 252.185 106.312 250.738L107.723 251.659ZM103.983 257.216C103.042 258.655 102.158 260.047 101.332 261.389L99.8713 260.54C100.707 259.186 101.599 257.781 102.545 256.331L103.983 257.216ZM100.46 262.818C99.5727 264.291 98.758 265.703 98.016 267.052L96.5156 266.271C97.2698 264.903 98.0945 263.475 98.9921 261.985L100.46 262.818ZM97.2119 268.539C96.3929 270.086 95.675 271.546 95.0582 272.919L93.499 272.257C94.1311 270.853 94.8644 269.361 95.6989 267.781L97.2119 268.539ZM94.4056 274.433C93.7166 276.1 93.1925 277.62 92.8378 278.994L91.1889 278.587C91.5639 277.141 92.1102 275.551 92.8259 273.815L94.4056 274.433ZM92.5103 280.463C92.1713 282.318 92.1938 283.837 92.5778 285.017L90.9581 285.507C90.4905 284.069 90.4493 282.289 90.8387 280.168L92.5103 280.463ZM93.1907 286.232C93.9381 287.255 95.1908 287.882 96.9486 288.113L96.7261 289.745C94.4793 289.448 92.8392 288.594 91.8059 287.18L93.1907 286.232ZM98.5438 288.213C99.9629 288.22 101.612 288.033 103.493 287.657L103.843 289.27C101.847 289.669 100.081 289.868 98.5426 289.859L98.5438 288.213ZM105.01 287.322C106.497 286.967 108.108 286.507 109.841 285.94L110.39 287.501C108.611 288.082 106.954 288.555 105.423 288.921L105.01 287.322ZM111.394 285.415C112.892 284.896 114.472 284.302 116.136 283.638L116.789 285.161C115.099 285.836 113.495 286.437 111.975 286.966L111.394 285.415ZM117.662 283.02C118.846 282.532 120.07 282.008 121.334 281.45L122.042 282.95C120.767 283.512 119.529 284.041 118.333 284.535L117.662 283.02Z" fill="#1E1E1E"/>
<path d="M198.434 265.755L194.724 262.239L195.908 261.062L199.62 264.581L198.434 265.755ZM193.514 261.115L189.803 257.735L190.967 256.537L194.675 259.918L193.514 261.115ZM188.543 256.61C187.282 255.492 186.034 254.404 184.8 253.352L185.921 252.118C187.161 253.179 188.417 254.271 189.687 255.396L188.543 256.61ZM183.507 252.253C182.192 251.144 180.894 250.073 179.614 249.04L180.697 247.777C181.988 248.817 183.296 249.896 184.619 251.012L183.507 252.253ZM178.338 248.019C176.979 246.94 175.639 245.902 174.319 244.909L175.358 243.612C176.691 244.614 178.041 245.658 179.413 246.747L178.338 248.019ZM172.994 243.923C171.603 242.897 170.235 241.918 168.886 240.99L169.867 239.648C171.231 240.587 172.614 241.576 174.02 242.613L172.994 243.923ZM167.509 240.051C166.076 239.086 164.666 238.177 163.281 237.326L164.188 235.936C165.592 236.801 167.021 237.721 168.475 238.699L167.509 240.051ZM161.853 236.462C160.361 235.574 158.901 234.753 157.47 234L158.276 232.554C159.733 233.321 161.221 234.155 162.738 235.06L161.853 236.462ZM155.995 233.243C154.434 232.46 152.913 231.762 151.429 231.144L152.092 229.63C153.616 230.264 155.174 230.98 156.771 231.78L155.995 233.243ZM149.915 230.539C148.287 229.914 146.703 229.388 145.166 228.969L145.623 227.384C147.215 227.819 148.853 228.361 150.537 229.008L149.915 230.539ZM143.536 228.556C141.841 228.163 140.205 227.903 138.63 227.772L138.768 226.132C140.428 226.269 142.148 226.543 143.925 226.954L143.536 228.556ZM136.992 227.684C135.293 227.642 133.668 227.759 132.117 228.038L131.801 226.421C133.469 226.119 135.212 225.992 137.028 226.038L136.992 227.684ZM130.515 228.392C128.936 228.805 127.436 229.397 126.014 230.169L125.18 228.732C126.722 227.895 128.351 227.25 130.066 226.803L130.515 228.392ZM124.633 230.991C123.32 231.845 122.08 232.865 120.911 234.05L119.68 232.909C120.935 231.638 122.269 230.542 123.683 229.624L124.633 230.991ZM119.806 235.246L119.491 235.614L118.179 234.561L118.494 234.194L119.806 235.246Z" fill="#1E1E1E"/>
<path d="M141.198 208.431L136.356 164.605H145.206L147.733 192.262L150.261 164.605H158.685L161.106 192.262L163.526 164.605H172.483L167.526 208.431H156.681L154.42 187.313L152.256 208.431H141.198Z" fill="#1E1E1E"/>
<path d="M174.953 168.583V162.363H184.166V168.583H174.953ZM174.953 208.431V171.083H184.166V208.431H174.953Z" fill="#1E1E1E"/>
<path d="M198.38 208.844C190.765 208.844 186.958 205.102 186.958 197.614L187.012 194.659H196.225L196.278 199.041C196.278 199.93 196.451 200.602 196.801 201.06C197.156 201.519 197.735 201.747 198.539 201.747C199.768 201.747 200.384 200.78 200.384 198.843C200.384 197.412 200.093 196.289 199.515 195.475C198.934 194.657 198.012 193.789 196.748 192.872L191.853 189.195C190.169 187.94 188.956 186.643 188.218 185.303C187.484 183.958 187.118 182.059 187.118 179.606C187.118 177.699 187.635 176.075 188.67 174.735C189.703 173.39 191.082 172.379 192.802 171.702C194.522 171.021 196.433 170.68 198.539 170.68C206.017 170.68 209.757 174.286 209.757 181.496V182.21H200.224V180.783C200.224 179.896 200.074 179.14 199.772 178.515C199.475 177.886 198.976 177.57 198.273 177.57C197.646 177.57 197.165 177.748 196.828 178.103C196.495 178.459 196.331 178.943 196.331 179.555C196.331 180.919 196.875 181.973 197.963 182.716L203.647 186.746C205.687 188.213 207.25 189.805 208.338 191.523C209.424 193.237 209.97 195.404 209.97 198.027C209.97 201.494 208.95 204.161 206.91 206.034C204.875 207.907 202.033 208.844 198.38 208.844Z" fill="#1E1E1E"/>
<path d="M223.603 208.844C219.634 208.844 216.792 207.791 215.072 205.682C213.352 203.568 212.492 200.422 212.492 196.24V181.239C212.492 177.802 213.507 175.186 215.542 173.386C217.582 171.582 220.428 170.68 224.082 170.68C231.481 170.68 235.184 174.2 235.184 181.239V183.945C235.184 186.666 235.15 188.877 235.086 190.578H221.705V197.821C221.705 199.116 221.842 200.13 222.122 200.862C222.406 201.59 223.004 201.953 223.922 201.953C224.625 201.953 225.123 201.751 225.42 201.343C225.715 200.931 225.89 200.463 225.944 199.934C225.997 199.408 226.023 198.635 226.023 197.614V193.997H235.184V196.137C235.184 200.49 234.315 203.697 232.577 205.759C230.843 207.817 227.852 208.844 223.603 208.844ZM226.023 186.136V181.342C226.023 178.657 225.341 177.312 223.975 177.312C222.426 177.312 221.652 178.657 221.652 181.342V186.136H226.023Z" fill="#1E1E1E"/>
<path d="M188.785 261.809V220.595H182.533V210.8H205.58V220.595H199.328V261.809H188.785Z" fill="#1E1E1E"/>
<path d="M221.391 262.282C212.439 262.282 207.966 257.788 207.966 248.801V231.343C207.966 227.226 209.158 223.95 211.548 221.514C213.943 219.081 217.223 217.863 221.391 217.863C225.559 217.863 228.835 219.081 231.225 221.514C233.619 223.95 234.817 227.226 234.817 231.343V248.801C234.817 257.788 230.341 262.282 221.391 262.282ZM221.391 254.266C222.247 254.266 222.881 253.971 223.289 253.381C223.701 252.786 223.91 251.972 223.91 250.941V229.685C223.91 227.148 223.069 225.879 221.391 225.879C219.717 225.879 218.882 227.148 218.882 229.685V250.941C218.882 251.972 219.086 252.786 219.494 253.381C219.901 253.971 220.533 254.266 221.391 254.266Z" fill="#1E1E1E"/>
<path d="M247.445 262.282C244.093 262.282 241.792 261.315 240.546 259.378C239.298 257.436 238.675 254.545 238.675 250.7V218.335H249.467V248.629C249.467 248.904 249.467 249.648 249.467 250.855C249.467 252.064 249.657 252.914 250.043 253.406C250.433 253.9 251.036 254.145 251.852 254.145C252.956 254.145 253.652 253.703 253.936 252.814C254.224 251.92 254.37 250.644 254.37 248.982V248.629L254.423 218.335H265.091V261.809H254.37V257.178C253.63 259 252.77 260.305 251.79 261.096C250.808 261.886 249.36 262.282 247.445 262.282Z" fill="#1E1E1E"/>
<path d="M269.383 218.335H280.112V223.147C280.638 221.445 281.567 220.131 282.897 219.203C284.227 218.271 285.87 217.803 287.827 217.803V226.472C286.32 226.472 284.655 226.682 282.835 227.099C281.019 227.518 280.112 228.001 280.112 228.551V261.809H269.383V218.335Z" fill="#1E1E1E"/>
<line x1="31.8783" y1="329.878" x2="288.892" y2="327.706" stroke="#1E1E1E" stroke-width="3.61992"/>
<line x1="31.8783" y1="39.5609" x2="288.892" y2="37.3889" stroke="#1E1E1E" stroke-width="3.61992"/>
<path d="M79.5358 380.493H74.3604V376.915H79.5358C80.2994 376.915 80.9121 376.788 81.374 376.533C81.8454 376.279 82.1895 375.93 82.4063 375.487C82.6325 375.034 82.7456 374.525 82.7456 373.96C82.7456 373.375 82.6325 372.833 82.4063 372.334C82.1895 371.825 81.8454 371.415 81.374 371.103C80.9121 370.792 80.2994 370.637 79.5358 370.637H76.029V387.648H71.4193V367.059H79.5358C81.1761 367.059 82.5807 367.356 83.7496 367.95C84.928 368.544 85.8282 369.359 86.4504 370.396C87.082 371.424 87.3978 372.602 87.3978 373.931C87.3978 375.261 87.082 376.415 86.4504 377.396C85.8282 378.376 84.928 379.14 83.7496 379.687C82.5807 380.224 81.1761 380.493 79.5358 380.493ZM96.3203 370.976L91.0036 387.648H86.0828L93.7044 367.059H96.8153L96.3203 370.976ZM100.732 387.648L95.4012 370.976L94.8498 367.059H98.003L105.653 387.648H100.732ZM100.506 379.984V383.547H89.7734V379.984H100.506ZM118.04 382.218C118.04 381.869 117.988 381.558 117.884 381.284C117.781 381.002 117.592 380.742 117.319 380.507C117.045 380.271 116.659 380.035 116.159 379.8C115.66 379.555 115.004 379.305 114.194 379.05C113.27 378.749 112.388 378.409 111.549 378.032C110.72 377.646 109.98 377.198 109.329 376.689C108.679 376.18 108.165 375.586 107.788 374.907C107.42 374.228 107.237 373.437 107.237 372.532C107.237 371.655 107.43 370.863 107.816 370.156C108.203 369.449 108.745 368.846 109.443 368.346C110.14 367.837 110.96 367.451 111.903 367.187C112.846 366.913 113.883 366.776 115.014 366.776C116.522 366.776 117.847 367.045 118.987 367.582C120.137 368.11 121.033 368.855 121.674 369.817C122.315 370.769 122.635 371.876 122.635 373.14H118.054C118.054 372.583 117.936 372.093 117.7 371.669C117.474 371.235 117.125 370.896 116.654 370.651C116.192 370.406 115.612 370.283 114.915 370.283C114.236 370.283 113.666 370.387 113.204 370.594C112.751 370.792 112.407 371.066 112.172 371.415C111.945 371.763 111.832 372.145 111.832 372.56C111.832 372.89 111.917 373.191 112.087 373.465C112.266 373.729 112.52 373.979 112.85 374.214C113.19 374.441 113.605 374.657 114.095 374.865C114.585 375.072 115.146 375.27 115.777 375.459C116.88 375.807 117.856 376.194 118.704 376.618C119.562 377.042 120.283 377.523 120.868 378.06C121.452 378.598 121.891 379.206 122.183 379.885C122.485 380.563 122.635 381.332 122.635 382.189C122.635 383.104 122.456 383.915 122.098 384.622C121.749 385.329 121.24 385.932 120.571 386.432C119.911 386.922 119.119 387.294 118.195 387.549C117.272 387.803 116.239 387.93 115.099 387.93C114.062 387.93 113.039 387.798 112.03 387.534C111.022 387.261 110.107 386.846 109.287 386.29C108.476 385.734 107.826 385.027 107.336 384.169C106.855 383.302 106.614 382.274 106.614 381.086H111.224C111.224 381.709 111.314 382.237 111.493 382.67C111.672 383.094 111.927 383.438 112.256 383.702C112.596 383.966 113.006 384.155 113.487 384.268C113.967 384.381 114.505 384.438 115.099 384.438C115.787 384.438 116.343 384.343 116.767 384.155C117.201 383.957 117.521 383.688 117.729 383.349C117.936 383.01 118.04 382.632 118.04 382.218ZM136.026 382.218C136.026 381.869 135.974 381.558 135.871 381.284C135.767 381.002 135.579 380.742 135.305 380.507C135.032 380.271 134.645 380.035 134.146 379.8C133.646 379.555 132.991 379.305 132.18 379.05C131.256 378.749 130.375 378.409 129.536 378.032C128.706 377.646 127.966 377.198 127.316 376.689C126.665 376.18 126.152 375.586 125.775 374.907C125.407 374.228 125.223 373.437 125.223 372.532C125.223 371.655 125.416 370.863 125.803 370.156C126.189 369.449 126.731 368.846 127.429 368.346C128.127 367.837 128.947 367.451 129.889 367.187C130.832 366.913 131.869 366.776 133 366.776C134.509 366.776 135.833 367.045 136.974 367.582C138.124 368.11 139.019 368.855 139.66 369.817C140.301 370.769 140.622 371.876 140.622 373.14H136.04C136.04 372.583 135.923 372.093 135.687 371.669C135.461 371.235 135.112 370.896 134.641 370.651C134.179 370.406 133.599 370.283 132.901 370.283C132.223 370.283 131.652 370.387 131.19 370.594C130.738 370.792 130.394 371.066 130.158 371.415C129.932 371.763 129.819 372.145 129.819 372.56C129.819 372.89 129.904 373.191 130.073 373.465C130.252 373.729 130.507 373.979 130.837 374.214C131.176 374.441 131.591 374.657 132.081 374.865C132.571 375.072 133.132 375.27 133.764 375.459C134.867 375.807 135.843 376.194 136.691 376.618C137.549 377.042 138.27 377.523 138.854 378.06C139.439 378.598 139.877 379.206 140.169 379.885C140.471 380.563 140.622 381.332 140.622 382.189C140.622 383.104 140.443 383.915 140.085 384.622C139.736 385.329 139.227 385.932 138.557 386.432C137.898 386.922 137.106 387.294 136.182 387.549C135.258 387.803 134.226 387.93 133.085 387.93C132.048 387.93 131.025 387.798 130.017 387.534C129.008 387.261 128.094 386.846 127.273 386.29C126.463 385.734 125.812 385.027 125.322 384.169C124.841 383.302 124.601 382.274 124.601 381.086H129.211C129.211 381.709 129.3 382.237 129.479 382.67C129.658 383.094 129.913 383.438 130.243 383.702C130.582 383.966 130.992 384.155 131.473 384.268C131.954 384.381 132.491 384.438 133.085 384.438C133.773 384.438 134.329 384.343 134.754 384.155C135.187 383.957 135.508 383.688 135.715 383.349C135.923 383.01 136.026 382.632 136.026 382.218ZM151.892 370.976L146.575 387.648H141.654L149.276 367.059H152.387L151.892 370.976ZM156.304 387.648L150.973 370.976L150.421 367.059H153.574L161.224 387.648H156.304ZM156.077 379.984V383.547H145.345V379.984H156.077ZM171.052 380.493H165.877V376.915H171.052C171.815 376.915 172.428 376.788 172.89 376.533C173.361 376.279 173.706 375.93 173.922 375.487C174.149 375.034 174.262 374.525 174.262 373.96C174.262 373.375 174.149 372.833 173.922 372.334C173.706 371.825 173.361 371.415 172.89 371.103C172.428 370.792 171.815 370.637 171.052 370.637H167.545V387.648H162.935V367.059H171.052C172.692 367.059 174.097 367.356 175.266 367.95C176.444 368.544 177.344 369.359 177.966 370.396C178.598 371.424 178.914 372.602 178.914 373.931C178.914 375.261 178.598 376.415 177.966 377.396C177.344 378.376 176.444 379.14 175.266 379.687C174.097 380.224 172.692 380.493 171.052 380.493ZM198.88 376.901V377.82C198.88 379.385 198.663 380.79 198.23 382.034C197.805 383.278 197.197 384.339 196.405 385.215C195.623 386.092 194.69 386.766 193.606 387.238C192.531 387.699 191.338 387.93 190.028 387.93C188.718 387.93 187.521 387.699 186.437 387.238C185.352 386.766 184.41 386.092 183.608 385.215C182.817 384.339 182.204 383.278 181.77 382.034C181.337 380.79 181.12 379.385 181.12 377.82V376.901C181.12 375.336 181.337 373.931 181.77 372.687C182.204 371.433 182.812 370.368 183.594 369.491C184.386 368.615 185.324 367.945 186.408 367.484C187.492 367.012 188.69 366.776 190 366.776C191.31 366.776 192.507 367.012 193.592 367.484C194.676 367.945 195.609 368.615 196.391 369.491C197.183 370.368 197.796 371.433 198.23 372.687C198.663 373.931 198.88 375.336 198.88 376.901ZM194.228 377.82V376.873C194.228 375.826 194.134 374.902 193.945 374.101C193.756 373.29 193.483 372.612 193.125 372.065C192.767 371.518 192.324 371.108 191.796 370.835C191.268 370.552 190.669 370.411 190 370.411C189.302 370.411 188.694 370.552 188.176 370.835C187.657 371.108 187.219 371.518 186.861 372.065C186.512 372.612 186.243 373.29 186.055 374.101C185.876 374.902 185.786 375.826 185.786 376.873V377.82C185.786 378.857 185.876 379.781 186.055 380.592C186.243 381.393 186.517 382.072 186.875 382.628C187.233 383.184 187.671 383.603 188.19 383.886C188.718 384.169 189.331 384.31 190.028 384.31C190.697 384.31 191.291 384.169 191.81 383.886C192.338 383.603 192.781 383.184 193.139 382.628C193.497 382.072 193.766 381.393 193.945 380.592C194.134 379.781 194.228 378.857 194.228 377.82ZM201.708 367.059H209.612C211.187 367.059 212.549 367.295 213.699 367.766C214.859 368.238 215.749 368.935 216.372 369.859C216.994 370.783 217.305 371.924 217.305 373.281C217.305 374.412 217.121 375.374 216.753 376.166C216.386 376.958 215.867 377.613 215.198 378.131C214.538 378.65 213.765 379.069 212.879 379.39L211.38 380.21H204.649L204.621 376.632H209.627C210.315 376.632 210.885 376.51 211.338 376.265C211.79 376.02 212.129 375.675 212.356 375.232C212.591 374.78 212.709 374.252 212.709 373.649C212.709 373.027 212.591 372.489 212.356 372.037C212.12 371.584 211.771 371.24 211.309 371.004C210.857 370.759 210.291 370.637 209.612 370.637H206.318V387.648H201.708V367.059ZM213.105 387.648L208.481 378.499L213.346 378.485L218.04 387.435V387.648H213.105ZM229.253 367.059V387.648H224.658V367.059H229.253ZM235.518 367.059V370.637H218.521V367.059H235.518ZM251.793 384.084V387.648H240.834V384.084H251.793ZM242.404 367.059V387.648H237.794V367.059H242.404ZM250.379 375.346V378.796H240.834V375.346H250.379ZM251.807 367.059V370.637H240.834V367.059H251.807ZM82.7598 421.648H78.2349L78.2632 418.084H82.7598C83.7873 418.084 84.6546 417.849 85.3616 417.377C86.0686 416.896 86.606 416.189 86.9736 415.256C87.3413 414.313 87.5251 413.168 87.5251 411.82V410.873C87.5251 409.855 87.4214 408.959 87.214 408.186C87.0066 407.404 86.7002 406.748 86.2949 406.221C85.8895 405.693 85.3852 405.297 84.7819 405.033C84.188 404.769 83.5045 404.637 82.7315 404.637H78.1501V401.059H82.7315C84.1267 401.059 85.3993 401.295 86.5494 401.766C87.7089 402.238 88.7081 402.912 89.5471 403.788C90.3956 404.665 91.0507 405.702 91.5126 406.899C91.9746 408.096 92.2055 409.43 92.2055 410.901V411.82C92.2055 413.281 91.9746 414.615 91.5126 415.822C91.0507 417.019 90.3956 418.056 89.5471 418.933C88.7081 419.8 87.7136 420.469 86.5635 420.941C85.4135 421.412 84.1455 421.648 82.7598 421.648ZM80.8508 401.059V421.648H76.2411V401.059H80.8508ZM109.018 418.084V421.648H98.0596V418.084H109.018ZM99.6292 401.059V421.648H95.0194V401.059H99.6292ZM107.604 409.346V412.796H98.0596V409.346H107.604ZM109.032 401.059V404.637H98.0596V401.059H109.032ZM132.491 418.084V421.648H121.533V418.084H132.491ZM123.102 401.059V421.648H118.492V401.059H123.102ZM131.077 409.346V412.796H121.533V409.346H131.077ZM132.505 401.059V404.637H121.533V401.059H132.505ZM151.736 401.059V421.648H147.141L139.363 408.342V421.648H134.754V401.059H139.363L147.155 414.365V401.059H151.736ZM164.307 401.059V421.648H159.711V401.059H164.307ZM170.571 401.059V404.637H153.574V401.059H170.571ZM172.848 401.059H180.752C182.326 401.059 183.689 401.295 184.839 401.766C185.998 402.238 186.889 402.935 187.511 403.859C188.133 404.783 188.444 405.924 188.444 407.281C188.444 408.412 188.261 409.374 187.893 410.166C187.525 410.958 187.007 411.613 186.338 412.131C185.678 412.65 184.905 413.069 184.019 413.39L182.52 414.21H175.789L175.761 410.632H180.766C181.454 410.632 182.025 410.51 182.477 410.265C182.93 410.02 183.269 409.675 183.495 409.232C183.731 408.78 183.849 408.252 183.849 407.649C183.849 407.027 183.731 406.489 183.495 406.037C183.26 405.584 182.911 405.24 182.449 405.004C181.996 404.759 181.431 404.637 180.752 404.637H177.457V421.648H172.848V401.059ZM184.245 421.648L179.621 412.499L184.485 412.485L189.18 421.435V421.648H184.245ZM200.124 404.976L194.808 421.648H189.887L197.508 401.059H200.619L200.124 404.976ZM204.536 421.648L199.205 404.976L198.654 401.059H201.807L209.457 421.648H204.536ZM204.31 413.984V417.547H193.577V413.984H204.31ZM217.687 421.648H213.162L213.19 418.084H217.687C218.714 418.084 219.581 417.849 220.288 417.377C220.995 416.896 221.533 416.189 221.9 415.256C222.268 414.313 222.452 413.168 222.452 411.82V410.873C222.452 409.855 222.348 408.959 222.141 408.186C221.933 407.404 221.627 406.748 221.222 406.221C220.816 405.693 220.312 405.297 219.709 405.033C219.115 404.769 218.431 404.637 217.658 404.637H213.077V401.059H217.658C219.053 401.059 220.326 401.295 221.476 401.766C222.636 402.238 223.635 402.912 224.474 403.788C225.322 404.665 225.978 405.702 226.439 406.899C226.901 408.096 227.132 409.43 227.132 410.901V411.82C227.132 413.281 226.901 414.615 226.439 415.822C225.978 417.019 225.322 418.056 224.474 418.933C223.635 419.8 222.64 420.469 221.49 420.941C220.34 421.412 219.072 421.648 217.687 421.648ZM215.778 401.059V421.648H211.168V401.059H215.778ZM238.19 404.976L232.873 421.648H227.952L235.574 401.059H238.685L238.19 404.976ZM242.602 421.648L237.271 404.976L236.719 401.059H239.873L247.523 421.648H242.602ZM242.376 413.984V417.547H231.643V413.984H242.376Z" fill="#1E1E1E"/>
</svg>
