<svg width="359" height="581" viewBox="0 0 359 581" fill="none" xmlns="http://www.w3.org/2000/svg">
<g filter="url(#filter0_d_115_1176)">
<path fill-rule="evenodd" clip-rule="evenodd" d="M72.1604 23.176H56.2328V21.0041H38.8574C28.8613 21.0041 20.7578 29.1076 20.7578 39.1037V506.797C20.7578 516.793 28.8612 524.897 38.8574 524.897H279.944C289.94 524.897 298.044 516.793 298.044 506.797V39.1037C298.044 29.1076 289.94 21.0041 279.944 21.0041H263.292V23.176H247.364V21.0041H231.437V23.176H215.509V21.0041H199.582V23.176H183.654V21.0041H167.726V23.176H151.799V21.0041H135.871V23.176H119.943V21.0041H104.016V23.176H88.0881V21.0041H72.1604V23.176Z" fill="#D9D9D9"/>
</g>
<defs>
<filter id="filter0_d_115_1176" x="0.576767" y="0.823044" width="358.01" height="584.617" filterUnits="userSpaceOnUse" color-interpolation-filters="sRGB">
<feFlood flood-opacity="0" result="BackgroundImageFix"/>
<feColorMatrix in="SourceAlpha" type="matrix" values="0 0 0 0 0 0 0 0 0 0 0 0 0 0 0 0 0 0 127 0" result="hardAlpha"/>
<feOffset dx="20.181" dy="20.181"/>
<feGaussianBlur stdDeviation="20.181"/>
<feComposite in2="hardAlpha" operator="out"/>
<feColorMatrix type="matrix" values="0 0 0 0 0 0 0 0 0 0 0 0 0 0 0 0 0 0 0.5 0"/>
<feBlend mode="normal" in2="BackgroundImageFix" result="effect1_dropShadow_115_1176"/>
<feBlend mode="normal" in="SourceGraphic" in2="effect1_dropShadow_115_1176" result="shape"/>
</filter>
</defs>
</svg>
