<svg width="153" height="145" viewBox="0 0 153 145" fill="none" xmlns="http://www.w3.org/2000/svg">
<path d="M129.657 41.1173C129.657 36.1413 125.611 32.0945 120.633 32.0945C115.657 32.0945 111.608 36.1413 111.608 41.1173C111.608 46.0933 115.657 50.1418 120.633 50.1418C125.609 50.1418 129.657 46.0933 129.657 41.1173ZM114.023 41.1173C114.023 37.4734 116.989 34.5069 120.633 34.5069C124.279 34.5069 127.245 37.4734 127.245 41.1173C127.245 44.7629 124.279 47.7276 120.633 47.7276C116.989 47.7276 114.023 44.7629 114.023 41.1173Z" fill="#3B3B3B"/>
<path d="M43.8496 18.3773C43.8496 13.4013 39.8011 9.35449 34.8251 9.35449C29.8491 9.35449 25.8005 13.4013 25.8005 18.3773C25.8005 23.3533 29.8491 27.4001 34.8251 27.4001C39.8011 27.4001 43.8496 23.3533 43.8496 18.3773ZM28.2147 18.3773C28.2147 14.7334 31.1795 11.7669 34.8251 11.7669C38.4707 11.7669 41.4354 14.7334 41.4354 18.3773C41.4354 22.0229 38.4707 24.9876 34.8251 24.9876C31.1795 24.9876 28.2147 22.0229 28.2147 18.3773Z" fill="#3B3B3B"/>
<path d="M67.5173 75.687C63.8717 75.687 60.907 78.6535 60.907 82.2974C60.907 85.943 63.8717 88.9077 67.5173 88.9077C71.1629 88.9077 74.1294 85.943 74.1294 82.2974C74.1294 78.6535 71.1629 75.687 67.5173 75.687Z" fill="#3B3B3B"/>
<path d="M67.5173 67.1594C59.1702 67.1594 52.3774 73.9504 52.3774 82.2976C52.3774 89.587 64.0472 106.083 67.5173 110.828C70.9892 106.083 82.6572 89.587 82.6572 82.2976C82.6572 73.9504 75.8662 67.1594 67.5173 67.1594ZM67.5173 91.3204C62.5413 91.3204 58.4928 87.2736 58.4928 82.2976C58.4928 77.3216 62.5413 73.2748 67.5173 73.2748C72.4933 73.2748 76.5419 77.3216 76.5419 82.2976C76.5419 87.2736 72.4933 91.3204 67.5173 91.3204Z" fill="#3B3B3B"/>
<mask id="mask0_108_800" style="mask-type:luminance" maskUnits="userSpaceOnUse" x="0" y="0" width="153" height="145">
<path d="M0 0.748291H152.429V144.748H0V0.748291Z" fill="white"/>
</mask>
<g mask="url(#mask0_108_800)">
<path d="M136.865 46.986C137.688 44.7802 138.187 42.7655 138.187 41.1172C138.187 31.4397 130.312 23.5666 120.635 23.5666C110.955 23.5666 103.081 31.4397 103.081 41.1172C103.081 44.4502 105.114 49.2838 107.758 54.159C105.684 56.733 103.638 58.8693 100.633 59.6179C95.4281 60.9153 89.6445 60.2709 86.2438 58.0148C84.7188 57.0022 83.8348 55.7795 83.616 54.3779C83.1783 51.5851 85.3389 49.652 87.6245 47.6043C89.2398 46.1592 90.9089 44.6638 91.6679 42.7794C93.5801 38.0309 89.7956 28.4853 86.1604 26.7589C84.2586 25.8558 81.266 26.0677 78.0981 26.2935C75.7534 26.4602 73.3288 26.6321 71.8993 26.2483C70.7357 25.9339 69.5703 24.7407 68.219 23.3582C66.1956 21.2862 63.6755 18.7087 59.8875 18.1095C57.0269 17.948 54.4252 17.9671 52.3792 18.377C52.3775 8.69943 44.5044 0.826416 34.8251 0.826416C25.2917 0.826416 17.5159 8.4667 17.2832 17.9428C12.8491 17.0171 8.23089 16.6176 5.46413 18.9797C-0.566121 24.1294 -0.234388 46.5222 1.47465 52.4222C2.50806 55.9931 5.39813 58.7234 8.19094 61.3634C10.4071 63.4563 12.5 65.4345 13.6619 67.7323C14.8308 70.0458 16.0605 76.0152 17.3631 82.3355C19.053 90.5455 20.9705 99.8479 23.4559 104.777C26.1393 110.099 30.926 113.765 35.1482 116.999C38.0139 119.194 40.7199 121.268 42.3942 123.552C43.5422 125.117 44.5149 127.472 45.5448 129.964C48.256 136.523 51.6271 144.684 60.8653 144.684C69.8099 144.684 72.4708 137.282 74.4143 131.877C75.2549 129.535 76.0504 127.324 77.1324 126.173C80.903 122.164 89.7626 120.634 93.2015 123.397C94.3547 124.323 95.5549 126.743 96.8245 129.304C99.6364 134.975 103.485 142.742 111.185 142.742C119.203 142.742 122.429 132.879 124.786 125.678C125.753 122.722 126.667 119.929 127.613 118.764C128.824 117.273 130.578 115.926 132.435 114.498C135.745 111.954 139.496 109.07 141.466 104.397C143.311 100.023 141.992 94.9188 140.829 90.4152C140.002 87.209 139.22 84.1835 139.604 81.8162C139.986 79.4559 142.454 77.0538 145.068 74.5129C148.523 71.1504 152.441 67.3398 152.441 62.4628C152.441 57.0404 144.769 50.7097 136.865 46.986ZM34.8251 46.9078C31.3549 42.1628 19.6852 25.6682 19.6852 18.377C19.6852 10.0298 26.4779 3.23886 34.8251 3.23886C43.174 3.23886 49.965 10.0298 49.965 18.377C49.965 25.6665 38.2953 42.1628 34.8251 46.9078ZM68.4795 113.584C68.2503 113.885 67.8942 114.06 67.5173 114.06C67.1404 114.06 66.7844 113.885 66.5569 113.584C65.8795 112.692 49.965 91.6223 49.965 82.2973C49.965 72.6197 57.8398 64.7467 67.5173 64.7467C77.1967 64.7467 85.0697 72.6197 85.0697 82.2973C85.0697 91.6223 69.1569 112.692 68.4795 113.584ZM120.633 69.648C117.163 64.903 105.495 48.4084 105.495 41.1172C105.495 32.7701 112.286 25.9791 120.633 25.9791C128.982 25.9791 135.773 32.7701 135.773 41.1172C135.773 48.4067 124.105 64.903 120.633 69.648Z" fill="#3B3B3B"/>
</g>
</svg>
