<svg width="362" height="442" viewBox="0 0 362 442" fill="none" xmlns="http://www.w3.org/2000/svg">
<mask id="mask0_332_83" style="mask-type:luminance" maskUnits="userSpaceOnUse" x="0" y="0" width="245" height="283">
<path d="M0 0H244.974V282.954H0V0Z" fill="white"/>
</mask>
<g mask="url(#mask0_332_83)">
<mask id="mask1_332_83" style="mask-type:luminance" maskUnits="userSpaceOnUse" x="-23" y="-31" width="320" height="314">
<path d="M-22.4573 164.88L168.226 -30.2767L296.823 87.6787L106.139 282.835L-22.4573 164.88Z" fill="white"/>
</mask>
<g mask="url(#mask1_332_83)">
<mask id="mask2_332_83" style="mask-type:luminance" maskUnits="userSpaceOnUse" x="-23" y="-31" width="320" height="314">
<path d="M-22.4573 164.88L168.226 -30.2767L296.823 87.6787L106.139 282.835L-22.4573 164.88Z" fill="white"/>
</mask>
<g mask="url(#mask2_332_83)">
<path d="M105.276 282.045C106.526 280.054 108.388 278.61 109.891 276.852C113.545 272.504 116.788 267.877 119.611 262.981C121.554 259.706 123.27 256.267 125.457 253.189C127.342 250.535 128.964 247.731 130.883 245.118C131.203 244.671 131.575 244.269 131.401 243.497C130.35 244.26 129.506 245.196 128.874 246.31C126.961 249.672 124.651 252.75 121.95 255.555C120.748 256.797 119.753 258.176 118.966 259.702C116.712 264.064 113.384 267.612 109.689 271.239C110.019 270.102 110.556 269.065 111.301 268.128C113.262 265.575 114.827 262.794 116.58 260.117C119.908 255.002 123.123 249.786 126.857 244.94C132.382 237.756 137.152 230.096 142.276 222.656C145.241 218.349 148.513 214.266 151.416 209.9C152.849 207.74 154.627 205.73 155.668 203.405C157.403 199.569 159.812 196.065 161.311 192.142C161.434 191.822 161.806 191.439 161.434 191.115C161.056 190.795 160.547 191 160.217 191.21C158.822 192.115 157.2 192.096 155.654 192.32C155.051 192.439 154.452 192.407 153.863 192.229C153.274 192.051 152.765 191.745 152.336 191.311C152.091 191.041 151.789 190.859 151.431 190.758C151.077 190.658 150.719 190.658 150.365 190.758C149.738 190.909 149.107 190.973 148.461 190.95C147.82 190.927 147.193 190.813 146.585 190.612C145.972 190.411 145.406 190.128 144.883 189.767C144.36 189.406 143.898 188.977 143.502 188.488C142.361 187.15 140.796 187.187 139.584 187.479C137.977 187.872 136.436 187.767 135.337 186.99C133.763 185.871 132.146 185.794 130.43 185.848C129.435 185.917 128.464 185.798 127.521 185.478C126.579 185.163 125.74 184.675 125.004 184.021C124.429 183.519 123.76 183.336 123.001 183.478C121.907 183.61 120.823 183.789 119.729 183.88C118.31 183.994 116.953 183.894 115.836 182.829C115.03 182.131 114.091 181.843 113.021 181.98C111.112 182.085 109.283 181.756 107.539 180.998C106.384 180.514 105.177 180.217 103.923 180.112C102.274 179.97 100.77 179.728 99.5348 178.385C98.7287 177.513 97.3476 177.865 96.2115 177.915C95.0754 177.961 94.2882 177.856 93.9865 176.677C93.8451 176.12 93.336 176.02 92.8552 175.965C92.1528 175.901 91.4127 175.873 90.7056 175.814C89.6025 175.704 88.853 175.161 88.9709 174.015C89.0887 172.864 88.7069 172.941 87.8631 173.293C85.2374 174.412 82.6023 174.133 79.9767 173.22C79.4581 173.119 79.0716 172.845 78.8218 172.389C78.5625 171.662 78.0534 171.726 77.4594 171.717C75.1308 171.644 72.8681 171.256 70.6572 170.552C68.2531 169.831 67.6544 168.981 67.5884 166.634C67.5649 165.693 66.9096 165.866 66.3864 165.88C63.756 165.935 61.1869 165.766 58.8771 164.332C58.8111 164.272 58.7027 164.263 58.6178 164.213C56.8595 163.213 56.8312 163.03 58.2407 161.642C58.4905 161.432 58.6461 161.171 58.7168 160.861C58.1936 161.121 57.7033 161.34 57.2178 161.61C55.78 162.295 54.9409 161.747 54.9692 160.148C54.9409 159.778 54.9362 159.408 54.9504 159.038C55.0729 157.942 54.5638 157.28 53.4843 157.444C51.4903 157.75 49.5152 158.189 47.5353 158.568C45.5508 159.034 43.5474 159.139 41.5251 158.888L43.6982 156.38C43.3258 156.38 43.0052 156.499 42.7271 156.736C39.6583 158.54 37.1034 158.371 34.4212 155.996C33.6151 155.257 32.2433 155.088 31.8898 153.836C31.8615 153.754 31.5457 153.699 31.3712 153.717C28.0668 153.959 24.8754 153.416 21.6652 152.804C20.6612 152.626 19.6665 152.557 18.6577 152.457C17.8328 152.439 17.0362 152.279 16.2725 151.968C15.9284 151.795 15.5418 151.594 15.5843 151.16C15.6267 150.726 16.0227 150.708 16.3243 150.58C18.0968 149.913 19.9776 149.771 21.8161 149.424C22.7494 149.255 23.7441 149.296 24.635 148.698C24.1542 147.958 23.3811 148.008 22.707 147.976C18.1439 147.762 13.5714 147.593 9.03659 147.003C6.84932 146.72 4.67148 146.327 2.49836 145.944C1.96568 145.916 1.58385 145.665 1.35758 145.195L7.87225 144.437C8.4992 144.364 9.12616 144.341 9.74368 144.222C10.2151 144.126 10.9976 144.3 11.0212 143.642C11.0447 143.112 10.3612 142.902 9.85682 142.738C7.47156 141.957 5.02503 141.514 2.50779 141.404L0.980469 141.345C1.27745 140.673 1.85255 140.719 2.31451 140.614C6.34022 139.682 10.4461 139.805 14.5378 139.805C23.5602 139.819 32.5639 139.508 41.5486 138.714C42.1285 138.659 43.1278 138.828 43.1655 138.221C43.2079 137.389 42.35 136.937 41.5251 136.713C40.6577 136.531 39.7998 136.54 38.9418 136.75C36.5094 137.239 34.0629 136.732 31.3995 136.983C31.7248 136.622 32.1302 136.462 32.6252 136.512C37.3485 135.855 42.1049 135.868 46.8613 135.8C54.38 135.681 61.8987 135.485 69.3986 134.937C78.5389 134.261 87.618 133.082 96.6499 131.717C100.94 131.054 105.305 131.073 109.585 130.424C117.778 129.182 126.032 128.684 134.277 128.104C139.561 127.702 144.85 127.574 150.144 127.734C152.84 127.912 155.338 128.689 157.629 130.072C160.217 131.511 162.942 132.644 165.803 133.471C169.348 134.494 172.903 135.526 176.405 136.695C177.749 137.143 178.154 136.722 178.192 135.544C178.305 132.552 179.521 129.652 179.38 126.697C179.215 123.212 180.959 120.33 181.784 117.179C182.807 113.237 184.471 109.52 185.946 105.729C187.063 102.842 188.515 100.143 189.731 97.3202C190.999 94.3424 191.603 91.0676 192.597 87.9436C192.866 87.094 192.352 86.2993 192.277 85.4681C192.027 82.6226 192.041 79.7818 192.319 76.9363C192.451 75.5022 192.729 74.0452 191.339 72.8029C190.651 72.1681 190.764 70.9623 190.877 69.9758C191.287 66.1895 190.83 62.4077 190.651 58.6306C190.537 56.525 189.595 54.4012 189.562 52.1998C189.491 47.8426 190.259 43.563 191.113 39.3063C191.221 38.4111 191.193 37.5205 191.014 36.6344C190.627 33.4053 191.212 30.2493 191.405 27.0705C191.466 25.9332 191.928 24.9786 192.791 24.2068C193.125 23.9327 193.361 23.5993 193.493 23.1928C193.62 22.7909 193.63 22.3844 193.512 21.9733C192.989 19.0366 192.937 16.0404 192.343 13.1036C191.89 10.8702 192.649 10.1988 195.02 10.6236C195.817 10.756 195.657 10.2262 195.666 9.86997C195.723 8.24401 195.704 6.59978 195.746 4.96925C195.779 3.74978 195.911 2.55315 196.699 1.52093C197.236 0.826702 197.707 0.890644 198.132 1.58488C199.805 4.3618 201.464 7.13872 203.143 9.89738C203.303 10.1257 203.388 10.3769 203.397 10.6556C203.406 10.9296 203.336 11.1854 203.185 11.4229C202.61 12.5007 203.439 14.1632 204.632 14.1724C205.509 14.1861 205.688 14.6611 205.943 15.1818C206.848 17.0315 207.691 18.8813 208.63 20.7447C208.941 21.375 209.318 21.9688 209.761 22.5214C210.081 22.9233 210.586 23.7044 210.968 22.4894C211.123 22.1743 211.373 21.9733 211.722 21.882C212.151 21.7084 212.707 21.5577 211.929 21.0233C211.628 20.8132 211.915 20.3931 212.094 20.1419C213.108 18.557 213.985 16.9036 214.725 15.1818C214.824 14.8849 214.998 14.6474 215.257 14.4647C215.517 14.2774 215.809 14.1906 216.129 14.1906C216.917 14.1724 217.19 14.7844 217.336 15.3873C217.897 17.8947 218.232 20.4296 218.34 22.9919C218.576 26.6229 218.713 30.263 218.897 33.894C218.915 34.2685 218.915 34.6568 218.977 35.0084C219.198 36.4517 219.443 36.5522 220.612 35.6935C221.781 34.8349 222.324 35.0358 222.663 36.502C223.346 39.3976 223.804 42.2522 223.054 45.2895C221.211 52.6657 219.67 60.1332 217.977 67.5551C217.685 68.4731 217.657 69.3911 217.907 70.3183C219.222 73.7575 218.265 77.2515 218.336 80.7272C218.444 85.7558 216.266 90.2729 215.328 95.0457C213.857 102.5 211.967 109.921 212.391 117.595C212.401 117.782 212.391 117.974 212.41 118.156C212.495 118.855 212.259 119.878 213.061 120.148C213.721 120.371 214.286 119.6 214.857 119.179C217.148 117.521 219.066 115.229 221.946 114.544C224.148 114.027 226.467 113.493 228.73 114.539C229.503 114.9 230.139 115.42 230.63 116.106C231.549 117.403 232.704 118.462 234.094 119.28C238.648 121.623 241.976 125.026 243.47 129.913C243.913 131.37 244.017 132.849 243.781 134.347C243.725 134.69 243.697 135.165 243.187 135.188C242.683 135.215 242.711 134.8 242.546 134.521C242.014 133.466 241.316 132.525 240.449 131.703C239.944 131.287 239.676 131.114 239.35 131.913C238.2 134.658 236.079 136.544 233.477 138.02C231.506 139.043 230.069 140.545 229.159 142.523C228.051 145.085 226.467 147.328 224.402 149.255C222.983 150.552 221.494 151.744 220.363 153.297C219.891 153.937 219.038 153.571 218.472 154.142C217.322 155.316 216.851 156.773 216.417 158.244C215.38 161.71 213.848 164.962 211.821 167.99C209.346 171.886 206.051 174.946 201.936 177.184C199.065 178.71 196.628 180.907 193.62 182.181C193.196 182.322 192.97 182.61 192.946 183.044C192.838 184.364 191.9 185.154 191.028 186.045C189.623 187.488 188.501 189.192 186.771 190.311C186.62 190.411 186.535 190.635 186.389 190.699C183.231 192.115 181.392 194.969 178.946 197.157C178.489 197.6 177.937 197.838 177.291 197.865C174.996 197.86 173.968 199.477 172.917 201.007C169.532 205.922 165.827 210.617 162.315 215.449C157.422 222.218 151.709 228.352 146.66 235.002C143.752 238.829 140.688 242.552 137.581 246.228C135.464 248.74 133.923 251.672 131.575 253.947C129.709 255.778 127.974 257.765 125.886 259.4C123.439 261.328 121.629 263.703 120.451 266.534C119.809 268.033 119.055 269.531 117.25 270.143C116.948 270.248 116.76 270.695 116.552 270.983C113.667 274.87 110.334 278.346 106.549 281.419C106.167 281.771 105.852 282.191 105.276 282.045Z" fill="#FDD339"/>
</g>
</g>
</g>
<path d="M150.043 229.685C147.628 232.501 145.306 235.271 143.072 237.993L140.241 235.807C142.491 233.063 144.828 230.275 147.259 227.442L150.043 229.685ZM140.867 240.703C138.604 243.5 136.434 246.249 134.362 248.949L131.459 246.854C133.552 244.128 135.737 241.358 138.016 238.534L140.867 240.703ZM132.185 251.812C130.047 254.654 128.016 257.443 126.093 260.171L123.108 258.19C125.052 255.427 127.103 252.616 129.262 249.743L132.185 251.812ZM124.038 263.129C121.974 266.136 120.047 269.074 118.257 271.939L115.162 270.115C116.979 267.207 118.937 264.229 121.026 261.182L124.038 263.129ZM116.507 274.783C114.588 277.968 112.84 281.055 111.268 284.058L108.045 282.459C109.649 279.4 111.429 276.251 113.385 273.008L116.507 274.783ZM109.755 287.022C108.106 290.34 106.682 293.544 105.483 296.625L102.1 295.378C103.339 292.199 104.802 288.906 106.495 285.495L109.755 287.022ZM104.328 299.75C103.119 303.201 102.209 306.497 101.592 309.634L98.04 308.962C98.6908 305.667 99.6443 302.218 100.901 298.614L104.328 299.75ZM101.019 313.116C100.548 316.688 100.499 320.035 100.856 323.156L97.2653 323.535C96.8741 320.136 96.9273 316.51 97.4341 312.662L101.019 313.116ZM101.399 326.395C102.131 329.714 103.39 332.756 105.168 335.525L102.103 337.365C100.101 334.252 98.6863 330.834 97.8668 327.116L101.399 326.395ZM107.122 338.204C109.164 340.683 111.694 342.918 114.708 344.911L112.685 347.801C109.367 345.611 106.574 343.139 104.304 340.38L107.122 338.204ZM117.663 346.698C120.5 348.271 123.689 349.666 127.234 350.882L126.04 354.183C122.292 352.894 118.905 351.413 115.881 349.736L117.663 346.698ZM130.516 351.925C133.71 352.867 137.163 353.679 140.87 354.366L140.205 357.801C136.372 357.097 132.794 356.255 129.475 355.273L130.516 351.925ZM144.37 354.956C147.723 355.483 151.267 355.907 155.006 356.234L154.692 359.72C150.873 359.387 147.245 358.953 143.808 358.417L144.37 354.956ZM158.559 356.512C162.006 356.747 165.6 356.909 169.345 356.99L169.281 360.491C165.475 360.407 161.819 360.246 158.321 360.003L158.559 356.512ZM172.875 357.042C175.968 357.067 179.153 357.042 182.436 356.965L182.537 360.468C179.212 360.543 175.989 360.569 172.858 360.542L172.875 357.042Z" fill="#FDD339"/>
<path d="M190.167 420.066L200.201 415.488L201.75 418.658L191.716 423.236L190.167 420.066ZM203.342 414.014C206.743 412.402 209.985 410.83 213.069 409.288L214.735 412.402C211.631 413.951 208.365 415.54 204.94 417.16L203.342 414.014ZM216.223 407.697C219.583 405.976 222.742 404.307 225.694 402.68L227.492 405.724C224.505 407.368 221.312 409.062 217.913 410.794L216.223 407.697ZM228.762 400.959C232.1 399.063 235.142 397.231 237.896 395.458L239.9 398.379C237.092 400.185 233.996 402.055 230.599 403.983L228.762 400.959ZM240.703 393.606C243.962 391.399 246.737 389.303 249.024 387.312L251.444 389.925C249.048 392.009 246.159 394.195 242.781 396.481L240.703 393.606ZM251.666 384.85C254.591 381.898 256.285 379.27 256.749 376.975L260.295 377.66C259.693 380.628 257.688 383.831 254.278 387.279L251.666 384.85ZM256.693 374.385C256.083 372.181 253.919 370.207 250.2 368.472L251.758 365.318C256.482 367.525 259.287 370.25 260.184 373.493L256.693 374.385ZM246.829 367.111C244.029 366.135 240.679 365.27 236.774 364.516L237.462 361.082C241.549 361.871 245.072 362.779 248.042 363.821L246.829 367.111ZM233.35 363.912C230.125 363.385 226.583 362.929 222.72 362.539L223.081 359.056C227.019 359.455 230.635 359.921 233.936 360.458L233.35 363.912ZM219.072 362.199C215.727 361.912 212.171 361.674 208.4 361.478L208.578 357.979C212.391 358.178 215.989 358.423 219.376 358.713L219.072 362.199ZM204.727 361.306C201.316 361.161 197.747 361.055 194.011 360.98L194.07 357.478C197.83 357.555 201.432 357.662 204.866 357.809L204.727 361.306ZM190.396 360.922L184.174 360.87L184.191 357.366L190.414 357.417L190.396 360.922Z" fill="#FDD339"/>
<path d="M186.333 322.528L179.725 331.207L176.817 329.121L183.42 320.442L186.333 322.528ZM177.627 334.006L171.461 342.361L168.517 340.314L174.688 331.959L177.627 334.006ZM169.316 345.312L163.173 353.953L160.193 351.954L166.34 343.314L169.316 345.312ZM161.243 356.717C159.129 359.776 157.115 362.745 155.201 365.624L152.163 363.722C154.088 360.82 156.112 357.834 158.242 354.757L161.243 356.717ZM153.291 368.531C151.29 371.593 149.409 374.552 147.653 377.405L144.547 375.6C146.324 372.72 148.221 369.735 150.232 366.651L153.291 368.531ZM145.8 380.444C143.912 383.577 142.18 386.578 140.602 389.447L137.411 387.787C139.015 384.878 140.769 381.842 142.678 378.674L145.8 380.444ZM138.892 392.61C137.151 395.898 135.624 399.004 134.312 401.922L130.997 400.515C132.341 397.53 133.9 394.358 135.675 390.998L138.892 392.61ZM132.925 405.142C131.46 408.687 130.345 411.92 129.591 414.841L126.085 413.976C126.882 410.901 128.044 407.52 129.566 403.828L132.925 405.142ZM128.895 417.964C128.174 421.908 128.222 425.138 129.038 427.648L125.594 428.69C124.6 425.633 124.512 421.847 125.34 417.337L128.895 417.964ZM130.342 430.231C131.931 432.406 134.594 433.739 138.332 434.231L137.859 437.702C133.082 437.07 129.594 435.254 127.397 432.248L130.342 430.231ZM141.724 434.444C144.742 434.459 148.249 434.062 152.249 433.262L152.992 436.691C148.748 437.54 144.994 437.963 141.722 437.945L141.724 434.444ZM155.474 432.549C158.635 431.795 162.061 430.816 165.747 429.611L166.913 432.93C163.131 434.166 159.609 435.171 156.351 435.95L155.474 432.549ZM169.05 428.495C172.234 427.391 175.593 426.128 179.132 424.717L180.52 427.955C176.928 429.39 173.516 430.668 170.284 431.792L169.05 428.495ZM182.376 423.401C184.894 422.364 187.498 421.249 190.186 420.062L191.691 423.253C188.979 424.447 186.346 425.573 183.804 426.623L182.376 423.401Z" fill="#FDD339"/>
<path d="M354.131 386.69L346.241 379.213L348.759 376.711L356.653 384.192L354.131 386.69ZM343.669 376.824L335.779 369.635L338.252 367.089L346.137 374.277L343.669 376.824ZM333.098 367.243C330.417 364.865 327.764 362.553 325.139 360.316L327.523 357.691C330.161 359.947 332.832 362.27 335.531 364.663L333.098 367.243ZM322.389 357.979C319.593 355.621 316.834 353.344 314.112 351.146L316.415 348.461C319.159 350.674 321.941 352.967 324.755 355.339L322.389 357.979ZM311.399 348.976C308.509 346.681 305.66 344.475 302.853 342.364L305.061 339.604C307.896 341.735 310.767 343.956 313.684 346.272L311.399 348.976ZM300.035 340.265C297.077 338.084 294.168 336.003 291.3 334.029L293.387 331.175C296.286 333.173 299.227 335.275 302.217 337.481L300.035 340.265ZM288.372 332.034C285.325 329.98 282.326 328.048 279.382 326.239L281.31 323.283C284.295 325.122 287.334 327.079 290.427 329.159L288.372 332.034ZM276.344 324.401C273.173 322.514 270.068 320.767 267.025 319.167L268.739 316.092C271.837 317.723 275.001 319.496 278.227 321.419L276.344 324.401ZM263.888 317.556C260.57 315.892 257.335 314.408 254.179 313.093L255.59 309.875C258.829 311.222 262.142 312.744 265.538 314.444L263.888 317.556ZM250.96 311.806C247.498 310.476 244.131 309.359 240.863 308.467L241.835 305.097C245.219 306.024 248.702 307.176 252.284 308.55L250.96 311.806ZM237.395 307.59C233.792 306.755 230.314 306.202 226.964 305.923L227.258 302.436C230.787 302.727 234.444 303.309 238.223 304.183L237.395 307.59ZM223.48 305.736C219.868 305.646 216.413 305.895 213.115 306.489L212.443 303.05C215.989 302.408 219.696 302.138 223.558 302.235L223.48 305.736ZM209.709 307.241C206.35 308.119 203.161 309.379 200.137 311.02L198.363 307.964C201.642 306.183 205.108 304.813 208.754 303.862L209.709 307.241ZM197.2 312.768C194.41 314.584 191.772 316.753 189.286 319.271L186.669 316.847C189.336 314.144 192.174 311.814 195.181 309.86L197.2 312.768ZM186.936 321.816L186.267 322.597L183.477 320.358L184.146 319.578L186.936 321.816Z" fill="#FDD339"/>
</svg>
