<svg width="323" height="213" viewBox="0 0 323 213" fill="none" xmlns="http://www.w3.org/2000/svg">
<path d="M10.8812 98.197L0.585938 5.00558H19.404L24.7779 63.8143L30.1518 5.00558H48.0647L53.2124 63.8143L58.36 5.00558H77.4043L66.8639 98.197H43.8033L38.9951 53.2912L34.3943 98.197H10.8812Z" fill="white"/>
<path d="M82.6584 13.4642V0.23732H102.25V13.4642H82.6584ZM82.6584 98.197V18.7806H102.25V98.197H82.6584Z" fill="white"/>
<path d="M132.473 99.0738C116.28 99.0738 108.187 91.1175 108.187 75.1959L108.3 68.9112H127.891L128.004 78.2286C128.004 80.1194 128.372 81.549 129.116 82.5218C129.871 83.4992 131.101 83.9834 132.812 83.9834C135.424 83.9834 136.734 81.9281 136.734 77.8084C136.734 74.7665 136.117 72.3778 134.886 70.6468C133.651 68.9067 131.69 67.0615 129.003 65.1112L118.595 57.292C115.012 54.6247 112.434 51.8661 110.864 49.0161C109.304 46.1569 108.526 42.1194 108.526 36.9035C108.526 32.8478 109.624 29.3949 111.826 26.5449C114.022 23.6858 116.954 21.5346 120.612 20.0959C124.27 18.648 128.334 17.9218 132.812 17.9218C148.712 17.9218 156.665 25.5903 156.665 40.9228V42.4391H136.395V39.4064C136.395 37.5201 136.074 35.9124 135.433 34.5834C134.801 33.2451 133.741 32.5737 132.246 32.5737C130.912 32.5737 129.89 32.9528 129.173 33.7064C128.466 34.4646 128.117 35.4923 128.117 36.7939C128.117 39.6942 129.272 41.9367 131.587 43.517L143.673 52.0853C148.01 55.2048 151.333 58.5891 153.648 62.243C155.958 65.8877 157.117 70.4961 157.117 76.0728C157.117 83.4444 154.949 89.117 150.612 93.0997C146.285 97.0824 140.241 99.0738 132.473 99.0738Z" fill="white"/>
<path d="M186.106 99.0738C177.668 99.0738 171.625 96.8358 167.967 92.3507C164.309 87.8564 162.48 81.1653 162.48 72.2728V40.3747C162.48 33.067 164.639 27.504 168.966 23.6766C173.303 19.8401 179.356 17.9218 187.124 17.9218C202.859 17.9218 210.732 25.4076 210.732 40.3747V46.1295C210.732 51.9163 210.661 56.6161 210.524 60.2334H182.071V75.6343C182.071 78.3884 182.363 80.5442 182.957 82.1016C183.56 83.65 184.833 84.4218 186.785 84.4218C188.279 84.4218 189.34 83.9925 189.971 83.1247C190.598 82.2478 190.971 81.2521 191.084 80.1286C191.197 79.0096 191.254 77.3653 191.254 75.1959V67.5045H210.732V72.0536C210.732 81.3115 208.884 88.1305 205.188 92.5151C201.502 96.8906 195.143 99.0738 186.106 99.0738ZM191.254 50.7882V40.5939C191.254 34.8848 189.802 32.0257 186.898 32.0257C183.603 32.0257 181.958 34.8848 181.958 40.5939V50.7882H191.254Z" fill="white"/>
<path d="M112.07 211.699V124.061H98.7766V103.234H147.783V124.061H134.489V211.699H112.07Z" fill="#FDD339"/>
<path d="M181.403 212.704C162.368 212.704 152.856 203.149 152.856 184.039V146.916C152.856 138.161 155.392 131.196 160.473 126.016C165.564 120.842 172.541 118.252 181.403 118.252C190.266 118.252 197.233 120.842 202.314 126.016C207.405 131.196 209.951 138.161 209.951 146.916V184.039C209.951 203.149 200.434 212.704 181.403 212.704ZM181.403 195.659C183.223 195.659 184.571 195.033 185.438 193.777C186.315 192.512 186.758 190.781 186.758 188.588V143.39C186.758 137.996 184.972 135.297 181.403 135.297C177.844 135.297 176.067 137.996 176.067 143.39V188.588C176.067 190.781 176.501 192.512 177.368 193.777C178.236 195.033 179.579 195.659 181.403 195.659Z" fill="#FDD339"/>
<path d="M236.804 212.704C229.676 212.704 224.783 210.648 222.134 206.529C219.48 202.4 218.156 196.252 218.156 188.077V119.257H241.103V183.674C241.103 184.259 241.103 185.839 241.103 188.406C241.103 190.977 241.508 192.786 242.329 193.832C243.158 194.882 244.44 195.403 246.175 195.403C248.523 195.403 250.003 194.462 250.606 192.571C251.219 190.671 251.53 187.958 251.53 184.423V183.674L251.643 119.257H274.327V211.699H251.53V201.852C249.956 205.725 248.127 208.502 246.043 210.183C243.955 211.863 240.877 212.704 236.804 212.704Z" fill="#FDD339"/>
<path d="M283.452 119.257H306.267V129.487C307.385 125.87 309.36 123.075 312.188 121.102C315.016 119.12 318.509 118.124 322.672 118.124V136.558C319.466 136.558 315.926 137.005 312.056 137.891C308.195 138.782 306.267 139.809 306.267 140.979V211.699H283.452V119.257Z" fill="#FDD339"/>
</svg>
