<svg width="702" height="493" viewBox="0 0 702 493" fill="none" xmlns="http://www.w3.org/2000/svg">
<mask id="mask0_78_528" style="mask-type:luminance" maskUnits="userSpaceOnUse" x="22" y="30" width="246" height="284">
<path d="M22.4572 30.4001H267.431V313.354H22.4572V30.4001Z" fill="white"/>
</mask>
<g mask="url(#mask0_78_528)">
<mask id="mask1_78_528" style="mask-type:luminance" maskUnits="userSpaceOnUse" x="0" y="0" width="320" height="314">
<path d="M0 195.28L190.684 0.123398L319.28 118.079L128.596 313.235L0 195.28Z" fill="white"/>
</mask>
<g mask="url(#mask1_78_528)">
<mask id="mask2_78_528" style="mask-type:luminance" maskUnits="userSpaceOnUse" x="0" y="0" width="320" height="314">
<path d="M0 195.28L190.684 0.123398L319.28 118.079L128.596 313.235L0 195.28Z" fill="white"/>
</mask>
<g mask="url(#mask2_78_528)">
<path d="M127.734 312.445C128.983 310.454 130.845 309.011 132.349 307.252C136.002 302.904 139.245 298.277 142.069 293.381C144.011 290.106 145.727 286.667 147.914 283.589C149.8 280.935 151.421 278.131 153.34 275.518C153.66 275.071 154.033 274.669 153.858 273.897C152.807 274.66 151.963 275.596 151.332 276.71C149.418 280.072 147.108 283.15 144.407 285.955C143.205 287.197 142.21 288.576 141.423 290.102C139.17 294.464 135.842 298.012 132.146 301.639C132.476 300.502 133.013 299.465 133.758 298.529C135.719 295.975 137.284 293.194 139.038 290.517C142.366 285.402 145.581 280.186 149.314 275.34C154.839 268.156 159.609 260.497 164.733 253.056C167.698 248.749 170.97 244.666 173.874 240.3C175.307 238.14 177.084 236.13 178.126 233.805C179.86 229.969 182.269 226.466 183.768 222.542C183.891 222.223 184.263 221.839 183.891 221.515C183.514 221.195 183.005 221.4 182.675 221.61C181.279 222.515 179.658 222.497 178.111 222.72C177.508 222.839 176.909 222.807 176.32 222.629C175.731 222.451 175.222 222.145 174.793 221.711C174.548 221.441 174.246 221.259 173.888 221.158C173.534 221.058 173.176 221.058 172.822 221.158C172.196 221.309 171.564 221.373 170.918 221.35C170.277 221.327 169.65 221.213 169.042 221.012C168.429 220.811 167.863 220.528 167.34 220.167C166.817 219.806 166.355 219.377 165.959 218.888C164.818 217.55 163.253 217.587 162.042 217.879C160.434 218.272 158.893 218.167 157.794 217.39C156.22 216.271 154.603 216.194 152.887 216.248C151.893 216.317 150.921 216.198 149.979 215.879C149.036 215.563 148.197 215.075 147.461 214.422C146.886 213.919 146.217 213.736 145.458 213.878C144.364 214.01 143.28 214.189 142.187 214.28C140.768 214.394 139.41 214.294 138.293 213.229C137.487 212.531 136.549 212.243 135.479 212.38C133.569 212.485 131.74 212.156 129.996 211.398C128.841 210.914 127.635 210.617 126.381 210.512C124.731 210.37 123.227 210.128 121.992 208.785C121.186 207.913 119.805 208.265 118.669 208.315C117.533 208.361 116.745 208.256 116.444 207.077C116.302 206.52 115.793 206.42 115.312 206.365C114.61 206.301 113.87 206.273 113.163 206.214C112.06 206.104 111.31 205.561 111.428 204.415C111.546 203.264 111.164 203.341 110.32 203.693C107.695 204.812 105.06 204.533 102.434 203.62C101.915 203.519 101.529 203.245 101.279 202.789C101.02 202.062 100.511 202.126 99.9167 202.117C97.588 202.044 95.3253 201.656 93.1144 200.953C90.7103 200.231 90.1117 199.381 90.0457 197.034C90.0221 196.093 89.3669 196.266 88.8436 196.28C86.2132 196.335 83.6441 196.166 81.3343 194.732C81.2683 194.672 81.1599 194.663 81.075 194.613C79.3167 193.613 79.2884 193.43 80.6979 192.042C80.9478 191.832 81.1033 191.571 81.174 191.261C80.6508 191.521 80.1605 191.74 79.675 192.01C78.2372 192.695 77.3982 192.147 77.4264 190.548C77.3982 190.178 77.3934 189.808 77.4076 189.438C77.5302 188.342 77.021 187.68 75.9416 187.844C73.9476 188.15 71.9724 188.589 69.9926 188.968C68.008 189.434 66.0046 189.539 63.9823 189.288L66.1554 186.78C65.783 186.78 65.4625 186.899 65.1843 187.136C62.1156 188.941 59.5606 188.772 56.8784 186.397C56.0723 185.657 54.7005 185.488 54.347 184.236C54.3187 184.154 54.0029 184.099 53.8285 184.117C50.524 184.36 47.3326 183.816 44.1225 183.204C43.1184 183.026 42.1237 182.957 41.115 182.857C40.29 182.839 39.4934 182.679 38.7297 182.368C38.3856 182.195 37.999 181.994 38.0415 181.56C38.0839 181.126 38.4799 181.108 38.7816 180.98C40.554 180.313 42.4349 180.171 44.2733 179.824C45.2067 179.655 46.2013 179.696 47.0922 179.098C46.6114 178.358 45.8383 178.408 45.1642 178.376C40.6011 178.162 36.0286 177.993 31.4938 177.403C29.3065 177.12 27.1287 176.728 24.9556 176.344C24.4229 176.316 24.0411 176.065 23.8148 175.595L30.3295 174.837C30.9564 174.764 31.5834 174.741 32.2009 174.622C32.6723 174.526 33.4548 174.7 33.4784 174.042C33.5019 173.512 32.8184 173.302 32.314 173.138C29.9288 172.357 27.4822 171.914 24.965 171.804L23.4377 171.745C23.7347 171.073 24.3098 171.119 24.7717 171.014C28.7974 170.082 32.9033 170.205 36.995 170.205C46.0175 170.219 55.0211 169.909 64.0059 169.114C64.5857 169.059 65.585 169.228 65.6227 168.621C65.6652 167.789 64.8072 167.337 63.9823 167.113C63.1149 166.931 62.257 166.94 61.399 167.15C58.9667 167.639 56.5201 167.132 53.8567 167.383C54.182 167.022 54.5874 166.862 55.0824 166.912C59.8057 166.255 64.5621 166.268 69.3185 166.2C76.8372 166.081 84.3559 165.885 91.8558 165.337C100.996 164.661 110.075 163.482 119.107 162.117C123.397 161.454 127.762 161.473 132.042 160.824C140.235 159.582 148.489 159.084 156.734 158.504C162.018 158.102 167.307 157.974 172.601 158.134C175.297 158.312 177.796 159.089 180.087 160.472C182.675 161.911 185.399 163.044 188.261 163.871C191.805 164.894 195.36 165.926 198.862 167.095C200.206 167.543 200.611 167.122 200.649 165.944C200.762 162.953 201.978 160.052 201.837 157.097C201.672 153.612 203.416 150.73 204.241 147.579C205.264 143.637 206.928 139.92 208.403 136.129C209.52 133.242 210.972 130.543 212.189 127.72C213.457 124.742 214.06 121.468 215.055 118.344C215.323 117.494 214.81 116.699 214.734 115.868C214.484 113.023 214.498 110.182 214.777 107.336C214.909 105.902 215.187 104.445 213.796 103.203C213.108 102.568 213.221 101.362 213.334 100.376C213.744 96.5895 213.287 92.8078 213.108 89.0306C212.995 86.9251 212.052 84.8013 212.019 82.5999C211.948 78.2426 212.717 73.9631 213.57 69.7063C213.678 68.8111 213.65 67.9205 213.471 67.0345C213.084 63.8054 213.669 60.6494 213.862 57.4705C213.923 56.3333 214.385 55.3787 215.248 54.6068C215.583 54.3328 215.818 53.9994 215.95 53.5929C216.078 53.1909 216.087 52.7845 215.969 52.3734C215.446 49.4366 215.394 46.4405 214.8 43.5037C214.348 41.2703 215.107 40.5989 217.478 41.0236C218.274 41.1561 218.114 40.6263 218.123 40.27C218.18 38.6441 218.161 36.9998 218.204 35.3693C218.237 34.1498 218.369 32.9532 219.156 31.921C219.693 31.2268 220.165 31.2907 220.589 31.9849C222.262 34.7619 223.922 37.5388 225.6 40.2974C225.76 40.5258 225.845 40.777 225.854 41.0556C225.864 41.3296 225.793 41.5854 225.642 41.8229C225.067 42.9008 225.897 44.5633 227.089 44.5724C227.966 44.5861 228.145 45.0611 228.4 45.5818C229.305 47.4316 230.149 49.2813 231.087 51.1448C231.398 51.7751 231.775 52.3688 232.218 52.9215C232.539 53.3234 233.043 54.1044 233.425 52.8895C233.58 52.5744 233.83 52.3734 234.179 52.2821C234.608 52.1085 235.164 51.9578 234.387 51.4234C234.085 51.2133 234.372 50.7931 234.552 50.5419C235.565 48.9571 236.442 47.3037 237.182 45.5818C237.281 45.2849 237.455 45.0474 237.715 44.8647C237.974 44.6775 238.266 44.5907 238.587 44.5907C239.374 44.5724 239.647 45.1845 239.793 45.7873C240.354 48.2948 240.689 50.8296 240.797 53.3919C241.033 57.0229 241.17 60.6631 241.354 64.2941C241.373 64.6686 241.373 65.0568 241.434 65.4085C241.655 66.8518 241.901 66.9522 243.07 66.0936C244.239 65.2349 244.781 65.4359 245.12 66.902C245.804 69.7977 246.261 72.6523 245.511 75.6895C243.668 83.0657 242.127 90.5333 240.435 97.9551C240.142 98.8732 240.114 99.7912 240.364 100.718C241.679 104.158 240.722 107.652 240.793 111.127C240.901 116.156 238.723 120.673 237.785 125.446C236.315 132.9 234.424 140.322 234.848 147.995C234.858 148.182 234.848 148.374 234.867 148.556C234.952 149.255 234.716 150.278 235.518 150.548C236.178 150.772 236.743 150 237.314 149.579C239.605 147.922 241.523 145.629 244.404 144.944C246.605 144.428 248.924 143.893 251.187 144.939C251.96 145.3 252.596 145.821 253.087 146.506C254.006 147.803 255.161 148.862 256.551 149.68C261.105 152.023 264.433 155.426 265.927 160.313C266.371 161.77 266.474 163.249 266.239 164.747C266.182 165.09 266.154 165.565 265.645 165.588C265.14 165.615 265.169 165.2 265.004 164.921C264.471 163.866 263.773 162.925 262.906 162.103C262.401 161.687 262.133 161.514 261.808 162.313C260.657 165.058 258.536 166.944 255.934 168.42C253.964 169.443 252.526 170.945 251.616 172.923C250.508 175.485 248.924 177.728 246.86 179.655C245.441 180.952 243.951 182.144 242.82 183.697C242.348 184.337 241.495 183.971 240.929 184.542C239.779 185.716 239.308 187.173 238.874 188.644C237.837 192.11 236.305 195.362 234.278 198.39C231.803 202.286 228.508 205.346 224.393 207.584C221.522 209.11 219.085 211.307 216.078 212.581C215.653 212.722 215.427 213.01 215.403 213.444C215.295 214.764 214.357 215.554 213.485 216.445C212.08 217.888 210.958 219.592 209.228 220.711C209.077 220.811 208.993 221.035 208.846 221.099C205.688 222.515 203.85 225.369 201.403 227.557C200.946 228 200.394 228.238 199.748 228.265C197.453 228.26 196.425 229.877 195.374 231.407C191.989 236.322 188.284 241.017 184.772 245.849C179.879 252.618 174.166 258.752 169.117 265.402C166.209 269.229 163.145 272.952 160.038 276.628C157.922 279.14 156.38 282.073 154.033 284.347C152.166 286.179 150.431 288.165 148.343 289.8C145.896 291.728 144.086 294.103 142.908 296.935C142.267 298.433 141.512 299.931 139.707 300.543C139.405 300.648 139.217 301.095 139.009 301.383C136.124 305.27 132.792 308.746 129.006 311.819C128.625 312.171 128.309 312.591 127.734 312.445Z" fill="#F8CA26"/>
</g>
</g>
</g>
<path d="M172.327 254.559C170.098 257.523 167.958 260.437 165.902 263.296L162.937 261.296C165.007 258.414 167.161 255.482 169.405 252.499L172.327 254.559ZM163.875 266.142C161.796 269.078 159.807 271.96 157.912 274.788L154.881 272.883C156.795 270.028 158.798 267.124 160.891 264.159L163.875 266.142ZM155.923 277.784C153.971 280.757 152.123 283.671 150.379 286.516L147.273 284.731C149.036 281.849 150.903 278.912 152.873 275.907L155.923 277.784ZM148.517 289.599C146.651 292.733 144.916 295.788 143.313 298.761L140.108 297.14C141.734 294.121 143.497 291.024 145.387 287.85L148.517 289.599ZM141.748 301.712C140.037 305.014 138.491 308.207 137.114 311.303L133.796 309.915C135.2 306.759 136.775 303.502 138.519 300.141L141.748 301.712ZM135.794 314.359C134.361 317.775 133.145 321.064 132.146 324.215L128.69 323.187C129.723 319.935 130.972 316.556 132.443 313.043L135.794 314.359ZM131.194 327.408C130.208 330.929 129.511 334.277 129.096 337.447L125.509 337.003C125.947 333.674 126.678 330.171 127.701 326.494L131.194 327.408ZM128.747 340.959C128.507 344.553 128.672 347.897 129.228 350.989L125.669 351.596C125.061 348.23 124.882 344.608 125.141 340.735L128.747 340.959ZM129.977 354.186C130.92 357.451 132.372 360.406 134.324 363.055L131.382 365.088C129.185 362.11 127.554 358.79 126.498 355.131L129.977 354.186ZM136.445 365.604C138.642 367.947 141.31 370.016 144.444 371.811L142.611 374.825C139.16 372.852 136.214 370.564 133.772 367.956L136.445 365.604ZM147.509 373.405C150.441 374.793 153.712 375.981 157.328 376.967L156.347 380.338C152.524 379.292 149.05 378.032 145.925 376.552L147.509 373.405ZM160.67 377.799C163.918 378.534 167.416 379.123 171.158 379.571L170.715 383.042C166.845 382.585 163.22 381.973 159.845 381.206L160.67 377.799ZM174.689 379.936C178.069 380.247 181.633 380.443 185.385 380.53L185.295 384.028C181.463 383.942 177.814 383.741 174.35 383.426L174.689 379.936ZM188.949 380.58C192.404 380.594 196.001 380.525 199.744 380.366L199.904 383.864C196.1 384.024 192.442 384.097 188.935 384.079L188.949 380.58ZM203.27 380.192C206.357 380.018 209.535 379.79 212.806 379.502L213.131 382.992C209.817 383.279 206.602 383.512 203.477 383.686L203.27 380.192Z" fill="#F8CA26"/>
<path d="M224.563 441.978L234.283 436.767L236.032 439.832L226.311 445.043L224.563 441.978ZM237.323 435.096C240.614 433.269 243.748 431.492 246.727 429.756L248.589 432.757C245.591 434.502 242.433 436.297 239.119 438.133L237.323 435.096ZM249.773 427.966C253.016 426.034 256.061 424.166 258.904 422.353L260.893 425.276C258.017 427.107 254.939 429.003 251.658 430.948L249.773 427.966ZM261.855 420.439C265.065 418.334 267.983 416.31 270.618 414.365L272.805 417.151C270.118 419.133 267.148 421.197 263.882 423.339L261.855 420.439ZM273.3 412.337C276.411 409.925 279.046 407.655 281.201 405.522L283.784 407.975C281.526 410.208 278.782 412.574 275.558 415.072L273.3 412.337ZM283.68 402.896C286.409 399.763 287.932 397.032 288.248 394.711L291.83 395.168C291.42 398.169 289.624 401.494 286.442 405.152L283.68 402.896ZM288.026 392.131C287.277 389.971 284.991 388.139 281.168 386.646L282.52 383.398C287.376 385.298 290.35 387.838 291.453 391.016L288.026 392.131ZM277.717 385.504C274.86 384.709 271.462 384.06 267.516 383.558L267.983 380.087C272.112 380.612 275.685 381.293 278.716 382.142L277.717 385.504ZM264.061 383.174C260.808 382.855 257.244 382.626 253.365 382.485L253.501 378.986C257.456 379.132 261.096 379.365 264.424 379.69L264.061 383.174ZM249.702 382.38C246.346 382.307 242.782 382.297 239.006 382.343L238.959 378.84C242.777 378.794 246.383 378.808 249.782 378.881L249.702 382.38ZM235.329 382.407C231.916 382.48 228.348 382.603 224.614 382.768L224.449 379.269C228.206 379.105 231.808 378.982 235.244 378.909L235.329 382.407ZM221.004 382.941L214.791 383.289L214.583 379.79L220.796 379.443L221.004 382.941Z" fill="#F8CA26"/>
<path d="M214.489 344.887L208.45 353.971L205.415 352.076L211.449 342.991L214.489 344.887ZM206.537 356.899L200.918 365.631L197.849 363.777L203.473 355.044L206.537 356.899ZM198.966 368.714L193.389 377.73L190.288 375.926L195.869 366.91L198.966 368.714ZM191.641 380.612C189.727 383.8 187.907 386.892 186.182 389.888L183.028 388.185C184.763 385.166 186.592 382.055 188.52 378.849L191.641 380.612ZM184.461 392.912C182.66 396.095 180.973 399.169 179.403 402.129L176.188 400.526C177.777 397.539 179.479 394.437 181.289 391.231L184.461 392.912ZM177.749 405.28C176.066 408.528 174.529 411.633 173.138 414.598L169.848 413.145C171.262 410.14 172.818 406.998 174.52 403.714L177.749 405.28ZM171.635 417.863C170.107 421.257 168.783 424.454 167.661 427.45L164.262 426.258C165.412 423.193 166.765 419.928 168.321 416.461L171.635 417.863ZM166.482 430.752C165.247 434.383 164.342 437.681 163.776 440.645L160.222 440.005C160.821 436.886 161.764 433.438 163.046 429.656L166.482 430.752ZM163.281 443.805C162.815 447.788 163.069 451.008 164.045 453.461L160.675 454.721C159.487 451.734 159.157 447.962 159.694 443.408L163.281 443.805ZM165.511 455.955C167.236 458.024 169.98 459.184 173.742 459.435L173.492 462.929C168.684 462.605 165.087 461.015 162.702 458.156L165.511 455.955ZM177.14 459.43C180.153 459.252 183.627 458.631 187.568 457.576L188.529 460.951C184.348 462.07 180.629 462.732 177.362 462.924L177.14 459.43ZM190.74 456.658C193.847 455.703 197.203 454.507 200.804 453.068L202.181 456.306C198.485 457.781 195.035 459.01 191.834 459.997L190.74 456.658ZM204.029 451.743C207.135 450.437 210.407 448.962 213.848 447.327L215.441 450.469C211.948 452.132 208.625 453.625 205.471 454.954L204.029 451.743ZM217.002 445.806C219.448 444.609 221.975 443.33 224.582 441.974L226.288 445.061C223.658 446.427 221.103 447.72 218.633 448.93L217.002 445.806Z" fill="#F8CA26"/>
<path d="M386.053 398.169L377.7 391.213L380.052 388.555L388.41 395.515L386.053 398.169ZM374.98 388.993L366.645 382.325L368.951 379.626L377.28 386.294L374.98 388.993ZM363.817 380.11C360.989 377.908 358.193 375.771 355.431 373.706L357.642 370.934C360.418 373.017 363.233 375.163 366.08 377.379L363.817 380.11ZM352.537 371.551C349.595 369.377 346.696 367.28 343.839 365.261L345.965 362.434C348.846 364.467 351.768 366.577 354.729 368.765L352.537 371.551ZM340.992 363.27C337.961 361.165 334.977 359.146 332.04 357.218L334.067 354.323C337.032 356.268 340.04 358.301 343.099 360.425L340.992 363.27ZM329.094 355.305C326.002 353.318 322.966 351.427 319.977 349.641L321.877 346.659C324.899 348.467 327.968 350.377 331.093 352.386L329.094 355.305ZM316.928 347.837C313.755 345.983 310.639 344.247 307.584 342.63L309.319 339.557C312.416 341.201 315.575 342.959 318.794 344.836L316.928 347.837ZM304.436 340.991C301.15 339.31 297.94 337.766 294.8 336.364L296.313 333.185C299.509 334.615 302.781 336.181 306.123 337.894L304.436 340.991ZM291.567 334.957C288.149 333.51 284.826 332.235 281.592 331.125L282.794 327.823C286.112 328.96 289.516 330.267 293.014 331.747L291.567 334.957ZM278.297 330.048C274.757 328.942 271.325 328.042 268.006 327.362L268.76 323.936C272.197 324.644 275.747 325.572 279.409 326.713L278.297 330.048ZM264.49 326.709C260.841 326.106 257.334 325.777 253.973 325.713L254.044 322.215C257.584 322.279 261.27 322.626 265.098 323.256L264.49 326.709ZM250.485 325.75C246.874 325.891 243.442 326.362 240.189 327.166L239.298 323.777C242.796 322.909 246.478 322.402 250.338 322.251L250.485 325.75ZM236.838 328.134C233.543 329.225 230.441 330.687 227.528 332.518L225.562 329.582C228.72 327.595 232.091 326.005 235.669 324.823L236.838 328.134ZM224.709 334.45C222.041 336.442 219.547 338.776 217.228 341.448L214.461 339.196C216.95 336.328 219.632 333.82 222.507 331.678L224.709 334.45ZM215.045 344.138L214.428 344.96L211.5 342.904L212.118 342.082L215.045 344.138Z" fill="#F8CA26"/>
<path d="M254.881 295.197L244.586 202.006H263.404L268.778 260.814L274.152 202.006H292.065L297.212 260.814L302.36 202.006H321.404L310.864 295.197H287.803L282.995 250.291L278.394 295.197H254.881Z" fill="white"/>
<path d="M326.658 210.464V197.237H346.25V210.464H326.658ZM326.658 295.197V215.781H346.25V295.197H326.658Z" fill="white"/>
<path d="M376.473 296.074C360.28 296.074 352.187 288.118 352.187 272.196L352.3 265.911H371.891L372.004 275.229C372.004 277.119 372.372 278.549 373.116 279.522C373.871 280.499 375.101 280.983 376.812 280.983C379.424 280.983 380.734 278.928 380.734 274.808C380.734 271.767 380.117 269.378 378.886 267.647C377.651 265.907 375.69 264.061 373.003 262.111L362.595 254.292C359.012 251.625 356.434 248.866 354.864 246.016C353.304 243.157 352.526 239.119 352.526 233.904C352.526 229.848 353.624 226.395 355.826 223.545C358.022 220.686 360.955 218.535 364.613 217.096C368.271 215.648 372.334 214.922 376.812 214.922C392.712 214.922 400.665 222.59 400.665 237.923V239.439H380.395V236.406C380.395 234.52 380.074 232.912 379.433 231.583C378.801 230.245 377.741 229.574 376.247 229.574C374.912 229.574 373.89 229.953 373.173 230.706C372.466 231.465 372.117 232.492 372.117 233.794C372.117 236.694 373.272 238.937 375.587 240.517L387.673 249.085C392.01 252.205 395.333 255.589 397.648 259.243C399.958 262.888 401.117 267.496 401.117 273.073C401.117 280.444 398.949 286.117 394.612 290.1C390.285 294.082 384.241 296.074 376.473 296.074Z" fill="white"/>
<path d="M430.106 296.074C421.668 296.074 415.625 293.836 411.967 289.351C408.309 284.856 406.48 278.165 406.48 269.273V237.375C406.48 230.067 408.639 224.504 412.966 220.677C417.303 216.84 423.356 214.922 431.124 214.922C446.859 214.922 454.732 222.408 454.732 237.375V243.13C454.732 248.916 454.661 253.616 454.524 257.233H426.071V272.634C426.071 275.388 426.363 277.544 426.957 279.102C427.56 280.65 428.833 281.422 430.785 281.422C432.279 281.422 433.34 280.993 433.971 280.125C434.598 279.248 434.971 278.252 435.084 277.129C435.197 276.01 435.254 274.365 435.254 272.196V264.505H454.732V269.054C454.732 278.311 452.884 285.13 449.188 289.515C445.502 293.891 439.143 296.074 430.106 296.074ZM435.254 247.788V237.594C435.254 231.885 433.802 229.026 430.898 229.026C427.603 229.026 425.958 231.885 425.958 237.594V247.788H435.254Z" fill="white"/>
<path d="M356.07 408.699V321.061H342.777V300.234H391.783V321.061H378.489V408.699H356.07Z" fill="#F8CA26"/>
<path d="M425.403 409.704C406.368 409.704 396.856 400.149 396.856 381.039V343.916C396.856 335.161 399.392 328.196 404.473 323.016C409.565 317.842 416.541 315.252 425.403 315.252C434.266 315.252 441.233 317.842 446.314 323.016C451.405 328.196 453.951 335.161 453.951 343.916V381.039C453.951 400.149 444.434 409.704 425.403 409.704ZM425.403 392.659C427.223 392.659 428.571 392.033 429.439 390.777C430.315 389.512 430.758 387.781 430.758 385.588V340.39C430.758 334.996 428.972 332.297 425.403 332.297C421.844 332.297 420.067 334.996 420.067 340.39V385.588C420.067 387.781 420.501 389.512 421.368 390.777C422.236 392.033 423.579 392.659 425.403 392.659Z" fill="#F8CA26"/>
<path d="M480.804 409.704C473.676 409.704 468.783 407.648 466.134 403.529C463.48 399.4 462.156 393.252 462.156 385.077V316.257H485.103V380.674C485.103 381.259 485.103 382.839 485.103 385.406C485.103 387.977 485.508 389.786 486.329 390.832C487.158 391.882 488.44 392.403 490.175 392.403C492.523 392.403 494.003 391.462 494.606 389.571C495.219 387.671 495.53 384.958 495.53 381.423V380.674L495.643 316.257H518.327V408.699H495.53V398.852C493.956 402.725 492.127 405.502 490.043 407.183C487.955 408.863 484.877 409.704 480.804 409.704Z" fill="#F8CA26"/>
<path d="M527.452 316.257H550.267V326.487C551.385 322.87 553.36 320.075 556.188 318.102C559.016 316.12 562.509 315.124 566.672 315.124V333.558C563.466 333.558 559.926 334.005 556.056 334.891C552.195 335.782 550.267 336.809 550.267 337.979V408.699H527.452V316.257Z" fill="#F8CA26"/>
</svg>
