<svg width="269" height="429" viewBox="0 0 269 429" fill="none" xmlns="http://www.w3.org/2000/svg">
<path d="M208.011 221.69C210.157 224.635 212.217 227.531 214.196 230.371L217.05 228.384C215.058 225.52 212.984 222.607 210.824 219.644L208.011 221.69ZM216.147 233.198C218.148 236.116 220.063 238.98 221.888 241.789L224.805 239.896C222.963 237.06 221.034 234.174 219.02 231.229L216.147 233.198ZM223.803 244.765C225.681 247.72 227.46 250.615 229.139 253.442L232.13 251.668C230.432 248.804 228.635 245.886 226.739 242.9L223.803 244.765ZM230.932 256.505C232.729 259.618 234.399 262.654 235.941 265.608L239.027 263.997C237.462 260.998 235.765 257.921 233.945 254.767L230.932 256.505ZM237.448 268.54C239.095 271.82 240.584 274.992 241.909 278.069L245.104 276.69C243.751 273.554 242.236 270.318 240.557 266.978L237.448 268.54ZM243.179 281.105C244.559 284.499 245.73 287.767 246.692 290.898L250.018 289.877C249.024 286.646 247.822 283.288 246.406 279.798L243.179 281.105ZM247.608 294.07C248.557 297.568 249.228 300.895 249.628 304.044L253.081 303.604C252.659 300.296 251.956 296.815 250.971 293.162L247.608 294.07ZM249.964 307.534C250.195 311.105 250.036 314.427 249.501 317.499L252.927 318.102C253.512 314.758 253.685 311.159 253.435 307.311L249.964 307.534ZM248.779 320.675C247.872 323.92 246.474 326.856 244.595 329.488L247.427 331.507C249.542 328.549 251.112 325.25 252.128 321.615L248.779 320.675ZM242.553 332.02C240.439 334.348 237.87 336.404 234.852 338.187L236.618 341.182C239.939 339.222 242.776 336.948 245.126 334.357L242.553 332.02ZM231.903 339.771C229.08 341.15 225.931 342.33 222.45 343.31L223.394 346.659C227.074 345.62 230.419 344.368 233.427 342.898L231.903 339.771ZM219.233 344.136C216.106 344.867 212.739 345.452 209.136 345.897L209.563 349.346C213.288 348.892 216.778 348.284 220.027 347.522L219.233 344.136ZM205.737 346.26C202.484 346.569 199.053 346.764 195.441 346.85L195.527 350.326C199.216 350.24 202.729 350.04 206.064 349.727L205.737 346.26ZM192.01 346.9C188.684 346.914 185.221 346.846 181.618 346.687L181.464 350.163C185.126 350.322 188.648 350.394 192.024 350.376L192.01 346.9ZM178.224 346.514C175.252 346.342 172.193 346.115 169.044 345.829L168.731 349.296C171.921 349.582 175.016 349.813 178.024 349.986L178.224 346.514Z" fill="#E7E6E6"/>
<path d="M157.729 407.903L148.372 402.725L146.688 405.77L156.045 410.948L157.729 407.903ZM145.445 401.065C142.277 399.249 139.26 397.484 136.392 395.76L134.599 398.741C137.485 400.475 140.526 402.258 143.716 404.082L145.445 401.065ZM133.46 393.981C130.338 392.061 127.407 390.205 124.67 388.404L122.755 391.308C125.523 393.128 128.487 395.011 131.645 396.944L133.46 393.981ZM121.83 386.502C118.739 384.411 115.93 382.4 113.394 380.467L111.288 383.235C113.875 385.205 116.734 387.256 119.878 389.384L121.83 386.502ZM110.812 378.452C107.817 376.056 105.28 373.801 103.206 371.682L100.719 374.119C102.893 376.338 105.534 378.688 108.638 381.17L110.812 378.452ZM100.819 369.072C98.1917 365.959 96.7259 363.246 96.4219 360.941L92.9731 361.394C93.3679 364.376 95.0968 367.679 98.1599 371.314L100.819 369.072ZM96.6352 358.377C97.3567 356.23 99.5576 354.41 103.238 352.927L101.935 349.7C97.2614 351.588 94.398 354.111 93.3361 357.269L96.6352 358.377ZM106.56 351.792C109.31 351.003 112.581 350.358 116.38 349.859L115.93 346.41C111.955 346.932 108.515 347.608 105.598 348.452L106.56 351.792ZM119.706 349.478C122.837 349.16 126.268 348.933 130.002 348.793L129.871 345.317C126.063 345.462 122.56 345.693 119.356 346.015L119.706 349.478ZM133.528 348.688C136.759 348.616 140.19 348.607 143.825 348.652L143.87 345.171C140.194 345.126 136.723 345.14 133.451 345.212L133.528 348.688ZM147.364 348.715C150.65 348.788 154.085 348.911 157.679 349.074L157.838 345.598C154.221 345.435 150.754 345.312 147.446 345.239L147.364 348.715ZM161.155 349.246L167.136 349.591L167.336 346.115L161.355 345.77L161.155 349.246Z" fill="#E7E6E6"/>
<path d="M167.424 311.436L173.237 320.462L176.16 318.579L170.351 309.553L167.424 311.436ZM175.08 323.371L180.489 332.047L183.443 330.205L178.029 321.528L175.08 323.371ZM182.368 335.11L187.736 344.068L190.722 342.276L185.349 333.318L182.368 335.11ZM189.42 346.932C191.262 350.099 193.014 353.171 194.674 356.148L197.71 354.455C196.04 351.456 194.28 348.366 192.424 345.18L189.42 346.932ZM196.331 359.152C198.064 362.315 199.689 365.369 201.2 368.31L204.295 366.717C202.765 363.749 201.127 360.668 199.385 357.482L196.331 359.152ZM202.793 371.441C204.413 374.667 205.892 377.753 207.231 380.698L210.398 379.255C209.037 376.269 207.539 373.147 205.901 369.884L202.793 371.441ZM208.678 383.943C210.149 387.314 211.424 390.491 212.504 393.468L215.776 392.283C214.668 389.238 213.366 385.994 211.869 382.55L208.678 383.943ZM213.638 396.749C214.827 400.356 215.698 403.633 216.243 406.578L219.665 405.942C219.088 402.843 218.181 399.417 216.946 395.66L213.638 396.749ZM216.72 409.718C217.169 413.675 216.924 416.874 215.984 419.311L219.229 420.564C220.373 417.596 220.69 413.847 220.173 409.323L216.72 409.718ZM214.573 421.789C212.912 423.844 210.271 424.997 206.65 425.247L206.89 428.718C211.519 428.396 214.982 426.817 217.278 423.976L214.573 421.789ZM203.378 425.242C200.478 425.065 197.134 424.448 193.34 423.4L192.415 426.753C196.44 427.865 200.02 428.523 203.165 428.714L203.378 425.242ZM190.286 422.488C187.296 421.539 184.065 420.35 180.598 418.921L179.273 422.138C182.83 423.604 186.152 424.825 189.233 425.805L190.286 422.488ZM177.494 417.605C174.503 416.307 171.354 414.841 168.041 413.217L166.508 416.339C169.87 417.991 173.069 419.474 176.105 420.795L177.494 417.605ZM165.006 411.706C162.65 410.517 160.218 409.246 157.709 407.898L156.066 410.966C158.598 412.323 161.058 413.607 163.436 414.81L165.006 411.706Z" fill="#E7E6E6"/>
<path d="M2.26915 364.376L10.3103 357.464L8.0459 354.823L0.000198364 361.739L2.26915 364.376ZM12.9287 355.259L20.9517 348.634L18.7327 345.952L10.7142 352.577L12.9287 355.259ZM23.6744 346.433C26.3972 344.245 29.0881 342.122 31.7473 340.071L29.6191 337.316C26.9462 339.385 24.2371 341.518 21.4962 343.719L23.6744 346.433ZM34.5336 337.929C37.3652 335.769 40.1561 333.686 42.906 331.68L40.8594 328.871C38.0868 330.89 35.2733 332.987 32.4235 335.161L34.5336 337.929ZM45.6469 329.701C48.5648 327.609 51.4373 325.604 54.2644 323.689L52.3131 320.812C49.4588 322.745 46.5636 324.764 43.6185 326.874L45.6469 329.701ZM57.1006 321.787C60.0774 319.813 62.9998 317.935 65.8769 316.16L64.0481 313.197C61.1393 314.994 58.1851 316.891 55.1765 318.888L57.1006 321.787ZM68.8129 314.368C71.8669 312.525 74.8664 310.801 77.807 309.195L76.1371 306.141C73.1557 307.774 70.1153 309.521 67.0159 311.386L68.8129 314.368ZM80.8383 307.566C84.0012 305.896 87.0915 304.362 90.1138 302.969L88.6571 299.81C85.5804 301.231 82.4311 302.787 79.2138 304.489L80.8383 307.566ZM93.2268 301.571C96.5168 300.132 99.716 298.866 102.829 297.764L101.672 294.483C98.4771 295.613 95.2008 296.911 91.8336 298.381L93.2268 301.571ZM106.001 296.693C109.409 295.595 112.713 294.701 115.907 294.024L115.181 290.621C111.873 291.324 108.456 292.246 104.93 293.38L106.001 296.693ZM119.292 293.376C122.805 292.777 126.181 292.45 129.417 292.386L129.348 288.91C125.94 288.974 122.392 289.319 118.707 289.945L119.292 293.376ZM132.775 292.423C136.251 292.563 139.554 293.031 142.685 293.829L143.543 290.462C140.176 289.6 136.632 289.096 132.915 288.947L132.775 292.423ZM145.912 294.791C149.084 295.876 152.07 297.328 154.874 299.148L156.766 296.23C153.726 294.256 150.481 292.677 147.037 291.501L145.912 294.791ZM157.588 301.067C160.156 303.046 162.557 305.365 164.789 308.019L167.453 305.782C165.057 302.932 162.475 300.441 159.707 298.313L157.588 301.067ZM166.89 310.692L167.485 311.509L170.303 309.467L169.709 308.65L166.89 310.692Z" fill="#E7E6E6"/>
<path d="M250.941 279.204C249.739 277.226 247.946 275.792 246.498 274.045C242.982 269.725 239.86 265.128 237.141 260.263C235.272 257.009 233.62 253.592 231.514 250.534C229.699 247.897 228.138 245.111 226.291 242.515C225.983 242.071 225.624 241.671 225.792 240.904C226.804 241.662 227.616 242.593 228.224 243.7C230.067 247.04 232.29 250.098 234.891 252.884C236.048 254.119 237.005 255.489 237.763 257.005C239.932 261.339 243.136 264.865 246.694 268.468C246.376 267.338 245.859 266.308 245.142 265.377C243.254 262.841 241.747 260.077 240.059 257.418C236.855 252.335 233.761 247.153 230.167 242.338C224.848 235.2 220.256 227.59 215.323 220.198C212.469 215.919 209.319 211.862 206.524 207.524C205.145 205.377 203.434 203.381 202.431 201.071C200.761 197.259 198.442 193.778 196.999 189.88C196.881 189.563 196.523 189.181 196.881 188.859C197.244 188.542 197.734 188.746 198.052 188.955C199.395 189.853 200.956 189.835 202.445 190.057C203.025 190.175 203.602 190.144 204.169 189.967C204.736 189.79 205.226 189.486 205.639 189.054C205.875 188.787 206.166 188.605 206.511 188.505C206.851 188.406 207.196 188.406 207.536 188.505C208.14 188.655 208.748 188.719 209.369 188.696C209.987 188.673 210.59 188.56 211.175 188.36C211.765 188.16 212.31 187.879 212.814 187.521C213.317 187.162 213.762 186.736 214.143 186.25C215.241 184.92 216.748 184.957 217.914 185.247C219.462 185.637 220.946 185.533 222.003 184.762C223.519 183.65 225.075 183.573 226.727 183.627C227.684 183.695 228.619 183.577 229.527 183.26C230.434 182.946 231.242 182.461 231.95 181.812C232.504 181.313 233.148 181.131 233.879 181.272C234.931 181.404 235.975 181.581 237.028 181.671C238.394 181.785 239.701 181.685 240.776 180.628C241.552 179.933 242.455 179.647 243.485 179.784C245.323 179.888 247.084 179.561 248.763 178.808C249.875 178.327 251.036 178.032 252.243 177.928C253.832 177.787 255.279 177.546 256.468 176.212C257.244 175.345 258.574 175.695 259.667 175.745C260.761 175.79 261.519 175.686 261.809 174.515C261.945 173.961 262.436 173.862 262.898 173.807C263.575 173.744 264.287 173.716 264.968 173.657C266.03 173.548 266.751 173.008 266.638 171.869C266.524 170.726 266.892 170.803 267.704 171.152C270.232 172.264 272.768 171.987 275.296 171.08C275.795 170.98 276.167 170.708 276.408 170.254C276.657 169.532 277.147 169.596 277.719 169.587C279.961 169.514 282.139 169.129 284.267 168.43C286.582 167.713 287.158 166.869 287.222 164.536C287.244 163.601 287.875 163.774 288.379 163.787C290.911 163.842 293.384 163.674 295.608 162.249C295.671 162.19 295.775 162.181 295.857 162.131C297.55 161.137 297.577 160.956 296.22 159.576C295.98 159.368 295.83 159.109 295.762 158.8C296.266 159.059 296.738 159.277 297.205 159.544C298.589 160.225 299.397 159.681 299.37 158.092C299.397 157.725 299.401 157.357 299.388 156.99C299.27 155.901 299.76 155.243 300.799 155.406C302.718 155.71 304.62 156.146 306.526 156.522C308.436 156.985 310.365 157.089 312.312 156.84L310.22 154.349C310.578 154.349 310.887 154.467 311.154 154.703C314.109 156.495 316.568 156.327 319.15 153.967C319.926 153.232 321.247 153.064 321.587 151.821C321.614 151.739 321.918 151.685 322.086 151.703C325.267 151.944 328.339 151.404 331.43 150.795C332.396 150.618 333.354 150.55 334.325 150.451C335.119 150.432 335.886 150.274 336.621 149.965C336.952 149.793 337.324 149.593 337.284 149.162C337.243 148.731 336.862 148.713 336.571 148.585C334.865 147.923 333.054 147.782 331.285 147.437C330.386 147.269 329.429 147.31 328.571 146.716C329.034 145.981 329.778 146.031 330.427 145.999C334.82 145.786 339.221 145.618 343.587 145.032C345.692 144.751 347.789 144.361 349.881 143.98C350.394 143.952 350.761 143.703 350.979 143.235L344.708 142.482C344.104 142.409 343.501 142.387 342.906 142.269C342.452 142.173 341.699 142.346 341.676 141.692C341.654 141.166 342.312 140.957 342.797 140.794C345.093 140.018 347.449 139.578 349.872 139.469L351.342 139.41C351.056 138.743 350.503 138.788 350.058 138.684C346.182 137.758 342.23 137.881 338.291 137.881C329.606 137.894 320.938 137.586 312.289 136.796C311.731 136.742 310.769 136.909 310.732 136.306C310.692 135.48 311.517 135.031 312.312 134.808C313.147 134.627 313.972 134.636 314.798 134.845C317.14 135.33 319.495 134.827 322.059 135.076C321.746 134.718 321.356 134.559 320.879 134.609C316.332 133.955 311.753 133.969 307.175 133.901C299.937 133.783 292.699 133.588 285.479 133.043C276.68 132.372 267.94 131.201 259.245 129.844C255.116 129.186 250.914 129.204 246.793 128.56C238.907 127.325 230.961 126.831 223.024 126.254C217.937 125.855 212.845 125.728 207.749 125.887C205.154 126.064 202.749 126.835 200.543 128.21C198.052 129.64 195.429 130.765 192.674 131.587C189.262 132.603 185.84 133.629 182.469 134.79C181.175 135.235 180.785 134.817 180.749 133.647C180.64 130.674 179.469 127.793 179.605 124.857C179.764 121.394 178.085 118.531 177.291 115.4C176.306 111.484 174.704 107.79 173.284 104.023C172.209 101.155 170.811 98.4735 169.64 95.669C168.419 92.7103 167.839 89.4567 166.881 86.3527C166.622 85.5087 167.117 84.7191 167.19 83.8932C167.43 81.0661 167.417 78.2435 167.149 75.4164C167.022 73.9915 166.754 72.5439 168.093 71.3096C168.755 70.6788 168.646 69.4808 168.537 68.5007C168.143 64.7387 168.583 60.9814 168.755 57.2285C168.864 55.1365 169.772 53.0264 169.803 50.8392C169.872 46.51 169.132 42.258 168.311 38.0287C168.206 37.1392 168.233 36.2544 168.406 35.374C168.778 32.1657 168.215 29.03 168.029 25.8716C167.97 24.7417 167.525 23.7933 166.695 23.0264C166.373 22.7541 166.146 22.4228 166.019 22.019C165.896 21.6196 165.887 21.2158 166.001 20.8074C166.504 17.8895 166.554 14.9126 167.126 11.9948C167.562 9.77573 166.831 9.10865 164.549 9.53068C163.782 9.66228 163.936 9.13588 163.927 8.78193C163.872 7.16644 163.891 5.53279 163.85 3.91276C163.818 2.70114 163.691 1.51222 162.933 0.486651C162.416 -0.20311 161.962 -0.139579 161.554 0.550181C159.943 3.30922 158.345 6.06826 156.73 8.80915C156.576 9.03605 156.494 9.28563 156.485 9.56244C156.476 9.83472 156.544 10.0888 156.689 10.3248C157.243 11.3958 156.444 13.0475 155.296 13.0566C154.452 13.0702 154.279 13.5422 154.034 14.0595C153.163 15.8973 152.351 17.7352 151.448 19.5867C151.148 20.2129 150.785 20.8028 150.359 21.3519C150.05 21.7512 149.564 22.5272 149.197 21.3201C149.047 21.007 148.807 20.8074 148.471 20.7166C148.058 20.5442 147.522 20.3944 148.271 19.8635C148.562 19.6547 148.285 19.2372 148.112 18.9877C147.137 17.413 146.293 15.7703 145.58 14.0595C145.485 13.7645 145.317 13.5286 145.067 13.3471C144.818 13.161 144.536 13.0748 144.228 13.0748C143.47 13.0566 143.207 13.6647 143.066 14.2637C142.526 16.755 142.204 19.2735 142.1 21.8193C141.873 25.4269 141.741 29.0436 141.564 32.6513C141.546 33.0234 141.546 33.4091 141.487 33.7585C141.274 35.1925 141.038 35.2923 139.912 34.4392C138.787 33.5861 138.265 33.7857 137.938 35.2424C137.28 38.1194 136.84 40.9556 137.562 43.9733C139.336 51.302 140.82 58.7215 142.449 66.0956C142.73 67.0077 142.758 67.9198 142.517 68.841C141.251 72.258 142.172 75.7295 142.104 79.1829C142 84.1791 144.096 88.6671 144.999 93.4092C146.415 100.815 148.235 108.189 147.826 115.813C147.817 115.999 147.826 116.189 147.808 116.371C147.727 117.065 147.953 118.082 147.182 118.349C146.547 118.572 146.002 117.805 145.453 117.387C143.248 115.74 141.401 113.462 138.628 112.781C136.509 112.269 134.276 111.738 132.098 112.777C131.354 113.135 130.741 113.653 130.269 114.333C129.384 115.622 128.273 116.675 126.934 117.487C122.55 119.815 119.347 123.196 117.908 128.051C117.482 129.499 117.382 130.969 117.609 132.458C117.663 132.798 117.69 133.27 118.18 133.293C118.666 133.32 118.639 132.907 118.798 132.63C119.31 131.582 119.982 130.647 120.817 129.83C121.302 129.417 121.561 129.245 121.874 130.039C122.981 132.766 125.023 134.641 127.528 136.106C129.425 137.123 130.809 138.616 131.685 140.581C132.752 143.126 134.276 145.354 136.264 147.269C137.63 148.558 139.064 149.743 140.153 151.286C140.607 151.921 141.428 151.558 141.973 152.125C143.08 153.291 143.534 154.739 143.951 156.2C144.949 159.644 146.424 162.875 148.376 165.884C150.758 169.755 153.93 172.795 157.891 175.019C160.655 176.534 163.001 178.717 165.896 179.983C166.305 180.124 166.523 180.41 166.545 180.841C166.65 182.152 167.553 182.937 168.392 183.822C169.744 185.256 170.824 186.949 172.49 188.061C172.635 188.16 172.717 188.383 172.857 188.446C175.898 189.853 177.668 192.689 180.023 194.863C180.463 195.303 180.994 195.539 181.616 195.566C183.826 195.562 184.815 197.168 185.827 198.688C189.085 203.571 192.652 208.236 196.033 213.037C200.743 219.762 206.243 225.857 211.103 232.464C213.903 236.267 216.852 239.965 219.843 243.618C221.88 246.114 223.364 249.027 225.624 251.287C227.421 253.107 229.091 255.081 231.101 256.705C233.457 258.62 235.199 260.98 236.334 263.794C236.951 265.282 237.677 266.77 239.415 267.379C239.705 267.483 239.887 267.928 240.086 268.214C242.864 272.075 246.072 275.529 249.716 278.583C250.083 278.932 250.387 279.35 250.941 279.204Z" fill="#E7E6E6"/>
</svg>
