<svg width="246" height="548" viewBox="0 0 246 548" fill="none" xmlns="http://www.w3.org/2000/svg">
<path d="M-136.341 414.814C-133.238 418.658 -130.169 422.372 -127.143 425.96L-130.748 429.001C-133.799 425.387 -136.886 421.649 -140.009 417.78L-136.341 414.814ZM-124.126 429.507C-121.007 433.152 -117.929 436.665 -114.891 440.039L-118.393 443.196C-121.46 439.788 -124.563 436.25 -127.713 432.578L-124.126 429.507ZM-111.664 443.592C-108.455 447.088 -105.288 450.434 -102.175 453.625L-105.547 456.918C-108.702 453.691 -111.892 450.314 -115.137 446.782L-111.664 443.592ZM-98.7922 457.047C-95.3461 460.492 -91.9565 463.744 -88.6292 466.802L-91.8216 470.277C-95.2004 467.175 -98.6339 463.872 -102.126 460.383L-98.7922 457.047ZM-85.3189 469.803C-81.6004 473.112 -77.9688 476.174 -74.4047 478.989L-77.3322 482.688C-80.9641 479.817 -84.6693 476.697 -88.454 473.326L-85.3189 469.803ZM-70.8749 481.718C-66.9139 484.715 -63.046 487.395 -59.2832 489.754L-61.7874 493.751C-65.6699 491.316 -69.6455 488.563 -73.7185 485.484L-70.8749 481.718ZM-55.4509 492.067C-51.2019 494.537 -47.0817 496.583 -43.0976 498.212L-44.8858 502.579C-49.0699 500.866 -53.3811 498.724 -57.8194 496.152L-55.4509 492.067ZM-38.6456 499.876C-34.0499 501.432 -29.6442 502.39 -25.4331 502.766L-25.845 507.465C-30.4301 507.058 -35.2031 506.021 -40.1549 504.344L-38.6456 499.876ZM-21.0201 502.936C-16.4527 502.886 -12.1173 502.086 -8.0114 500.549L-6.36054 504.966C-10.9772 506.697 -15.8484 507.596 -20.9651 507.651L-21.0201 502.936ZM-3.97886 498.764C-0.188272 496.811 3.40499 494.169 6.79933 490.843L10.1021 494.206C6.36927 497.868 2.3968 500.784 -1.82126 502.953L-3.97886 498.764ZM9.90832 487.536C12.7053 484.324 15.3555 480.614 17.8604 476.399L21.9148 478.811C19.2626 483.266 16.4489 487.206 13.4678 490.63L9.90832 487.536ZM20.0709 472.476C22.1248 468.638 24.0729 464.434 25.9196 459.871L30.2863 461.64C28.3847 466.36 26.3639 470.716 24.2254 474.704L20.0709 472.476ZM27.5876 455.548C29.1334 451.395 30.5927 446.971 31.9731 442.271L36.4949 443.604C35.0875 448.405 33.5935 452.934 32.0131 457.192L27.5876 455.548ZM33.2423 437.796C34.4273 433.445 35.5531 428.887 36.6094 424.112L41.2156 425.13C40.1386 429.981 38.998 434.618 37.7896 439.033L33.2423 437.796ZM37.5747 419.607C38.3918 415.654 39.1679 411.569 39.8986 407.344L44.5486 408.151C43.8036 412.429 43.0207 416.563 42.1908 420.563L37.5747 419.607Z" fill="#E7E6E6"/>
<path d="M125.158 414.309L121.661 400.239L126.24 399.102L129.737 413.173L125.158 414.309ZM120.513 395.823C119.248 391.038 117.995 386.467 116.743 382.106L121.276 380.805C122.534 385.192 123.802 389.8 125.072 394.617L120.513 395.823ZM115.442 377.643C114.024 372.881 112.622 368.39 111.223 364.175L115.698 362.686C117.11 366.95 118.536 371.491 119.96 376.305L115.442 377.643ZM109.73 359.788C108.075 355.007 106.428 350.623 104.786 346.622L109.15 344.836C110.822 348.915 112.505 353.378 114.188 358.243L109.73 359.788ZM103.054 342.534C100.967 337.771 98.9037 333.658 96.8562 330.198L100.92 327.797C103.063 331.422 105.215 335.706 107.376 340.641L103.054 342.534ZM94.2767 326.157C91.122 321.624 88.0827 318.752 85.1705 317.545L86.9749 313.188C90.7407 314.751 94.4603 318.175 98.1455 323.461L94.2767 326.157ZM81.7381 316.925C78.674 317.117 75.5188 319.36 72.2841 323.659L68.5159 320.821C72.6282 315.363 76.937 312.498 81.4457 312.216L81.7381 316.925ZM69.6329 327.611C67.6339 330.935 65.642 334.994 63.6556 339.792L59.2968 337.994C61.3751 332.971 63.4675 328.704 65.5967 325.179L69.6329 327.611ZM61.9892 344.015C60.4745 348.004 58.9736 352.417 57.4789 357.258L52.973 355.866C54.4991 350.931 56.0315 346.425 57.5776 342.342L61.9892 344.015ZM56.105 361.839C54.8762 366.044 53.6605 370.534 52.4445 375.31L47.8705 374.148C49.1009 369.319 50.3369 364.777 51.58 360.518L56.105 361.839ZM51.2856 379.967C50.2279 384.295 49.1829 388.837 48.1358 393.601L43.528 392.589C44.5831 387.796 45.6392 383.212 46.7049 378.855L51.2856 379.967ZM47.1419 398.213L45.4948 406.167L40.8727 405.209L42.5197 397.255L47.1419 398.213Z" fill="#E7E6E6"/>
<path d="M-4.57223 393.156L5.2079 403.935L1.71625 407.101L-8.06546 396.328L-4.57223 393.156ZM8.37064 407.369L17.8349 417.497L14.3856 420.719L4.92292 410.585L8.37064 407.369ZM21.187 421.032L31.034 431.205L27.6389 434.487L17.7935 424.307L21.187 421.032ZM34.193 434.415C37.6945 437.939 41.103 441.311 44.4186 444.53L41.1367 447.912C37.7946 444.673 34.3655 441.282 30.8451 437.734L34.193 434.415ZM47.7714 447.753C51.3052 451.133 54.7345 454.332 58.0551 457.343L54.8833 460.837C51.5334 457.793 48.0732 454.567 44.5129 451.167L47.7714 447.753ZM61.5966 460.528C65.2533 463.781 68.7752 466.801 72.1623 469.588L69.1611 473.23C65.7285 470.399 62.1654 467.342 58.4675 464.052L61.5966 460.528ZM75.9033 472.622C79.8028 475.731 83.5151 478.515 87.0345 480.974L84.3354 484.843C80.7365 482.325 76.9445 479.481 72.9595 476.311L75.9033 472.622ZM90.933 483.611C95.2402 486.434 99.225 488.725 102.891 490.471L100.858 494.729C97.0016 492.887 92.8333 490.496 88.3459 487.561L90.933 483.611ZM106.836 492.197C111.86 494.174 116.136 494.975 119.657 494.6L120.158 499.289C115.87 499.745 110.85 498.846 105.107 496.581L106.836 492.197ZM123.396 493.622C126.671 492.168 129.107 489.114 130.705 484.459L135.167 485.992C133.12 491.941 129.838 495.921 125.312 497.931L123.396 493.622ZM131.847 480.173C132.633 476.313 132.998 471.717 132.956 466.381L137.673 466.346C137.716 472.007 137.322 476.927 136.468 481.112L131.847 480.173ZM132.834 462.062C132.641 457.813 132.218 453.165 131.562 448.123L136.241 447.517C136.912 452.69 137.345 457.468 137.547 461.847L132.834 462.062ZM130.928 443.596C130.278 439.225 129.464 434.586 128.498 429.678L133.125 428.765C134.108 433.748 134.929 438.458 135.593 442.897L130.928 443.596ZM127.585 425.172C126.854 421.671 126.044 418.04 125.159 414.28L129.753 413.206C130.641 416.998 131.46 420.669 132.201 424.205L127.585 425.172Z" fill="#E7E6E6"/>
<path d="M122.707 195.452L110.835 203.557L108.171 199.665L120.05 191.555L122.707 195.452ZM107.028 206.212L95.5362 214.394L92.8028 210.547L104.293 202.371L107.028 206.212ZM91.6986 217.187C87.8789 219.985 84.1535 222.764 80.5343 225.527L77.674 221.773C81.3217 218.999 85.0653 216.199 88.9093 213.382L91.6986 217.187ZM76.7517 228.424C72.9294 231.374 69.2225 234.298 65.6309 237.195L62.6705 233.53C66.2879 230.607 70.0207 227.658 73.8672 224.689L76.7517 228.424ZM62.0781 240.09C58.3147 243.177 54.6801 246.235 51.1803 249.266L48.0974 245.701C51.6305 242.641 55.2909 239.558 59.0877 236.442L62.0781 240.09ZM47.6952 252.313C44.0656 255.518 40.5799 258.686 37.2468 261.831L34.0079 258.396C37.3819 255.218 40.9025 252.015 44.573 248.775L47.6952 252.313ZM33.8692 265.047C30.3849 268.4 27.0741 271.723 23.9386 275.01L20.5252 271.752C23.7107 268.42 27.0655 265.052 30.5954 261.648L33.8692 265.047ZM20.7415 278.408C17.4448 281.964 14.3518 285.473 11.467 288.942L7.84202 285.926C10.7817 282.395 13.9251 278.817 17.2825 275.201L20.7415 278.408ZM8.54429 292.528C5.50605 296.332 2.72546 300.077 0.189072 303.767L-3.70141 301.1C-1.1007 297.313 1.74855 293.478 4.85547 289.584L8.54429 292.528ZM-2.32642 307.545C-4.96037 311.622 -7.29028 315.635 -9.29673 319.581L-13.4989 317.436C-11.417 313.351 -9.01164 309.199 -6.28875 304.98L-2.32642 307.545ZM-11.3344 323.787C-13.3513 328.176 -14.9638 332.483 -16.1824 336.698L-20.7105 335.389C-19.4315 330.948 -17.7347 326.422 -15.6216 321.816L-11.3344 323.787ZM-17.3131 341.108C-18.3486 345.709 -18.8958 350.2 -18.9486 354.58L-23.6589 354.522C-23.6065 349.81 -23.0226 344.992 -21.9146 340.072L-17.3131 341.108ZM-18.8209 359.143C-18.5136 363.677 -17.6597 368.097 -16.2608 372.408L-20.7459 373.863C-22.2641 369.188 -23.1936 364.385 -23.5242 359.462L-18.8209 359.143ZM-14.6992 376.636C-13.0095 380.693 -10.8152 384.651 -8.12216 388.506L-11.9866 391.209C-14.8778 387.072 -17.2343 382.816 -19.05 378.444L-14.6992 376.636ZM-5.35919 392.195L-4.49811 393.26L-8.16113 396.234L-9.02221 395.169L-5.35919 392.195Z" fill="#E7E6E6"/>
<path d="M35.0164 260.472C36.4229 259.127 38.1898 258.353 39.7448 257.25C43.5391 254.508 47.0731 251.456 50.3376 248.098C52.5629 245.864 54.6469 243.45 57.0212 241.425C59.0681 239.68 60.9412 237.757 63.0049 236.052C63.3521 235.758 63.73 235.512 63.7605 234.853C62.7742 235.248 61.9126 235.827 61.1782 236.593C58.9562 238.903 56.4861 240.902 53.7695 242.599C52.5617 243.349 51.4864 244.253 50.5416 245.318C47.8383 248.364 44.4709 250.53 40.7994 252.681C41.303 251.832 41.947 251.109 42.7313 250.51C44.8153 248.861 46.6393 246.946 48.588 245.154C52.2939 241.726 55.9332 238.192 59.8977 235.066C65.7673 230.428 71.1502 225.25 76.7619 220.322C80.0096 217.47 83.4483 214.862 86.6609 211.948C88.2475 210.506 90.0704 209.257 91.3869 207.6C93.5714 204.87 96.2107 202.549 98.2299 199.698C98.3948 199.466 98.7687 199.235 98.5477 198.895C98.3222 198.558 97.8799 198.618 97.5767 198.718C96.2909 199.155 95.0278 198.801 93.7712 198.658C93.2741 198.627 92.8132 198.476 92.3912 198.209C91.9693 197.942 91.6376 197.589 91.3962 197.149C91.2629 196.88 91.0666 196.67 90.8084 196.514C90.5538 196.359 90.2739 196.284 89.9759 196.291C89.4534 196.281 88.946 196.2 88.4463 196.047C87.9503 195.894 87.4851 195.67 87.0533 195.381C86.6179 195.091 86.2371 194.744 85.9062 194.343C85.5753 193.943 85.3071 193.5 85.1033 193.023C84.5011 191.705 83.2702 191.406 82.2604 191.389C80.9195 191.369 79.7377 190.961 79.0472 190.105C78.0587 188.873 76.8121 188.472 75.4594 188.157C74.6674 188.004 73.9343 187.705 73.2667 187.249C72.5981 186.798 72.048 186.228 71.6145 185.547C71.2737 185.022 70.7902 184.734 70.1665 184.69C69.2833 184.567 68.3976 184.484 67.5233 184.329C66.3899 184.124 65.3508 183.758 64.7078 182.666C64.2289 181.934 63.5581 181.506 62.6923 181.392C61.1778 181.077 59.8197 180.429 58.6206 179.452C57.8228 178.82 56.944 178.328 55.9869 177.981C54.7282 177.521 53.6055 177.011 52.9306 175.669C52.4893 174.797 51.334 174.791 50.4354 174.594C49.5378 174.393 48.9454 174.143 48.9643 173.13C48.9742 172.651 48.5981 172.463 48.2342 172.318C47.6992 172.12 47.1268 171.943 46.5871 171.747C45.7489 171.428 45.2806 170.832 45.6205 169.932C45.9613 169.029 45.6461 169.011 44.9108 169.118C42.6173 169.471 40.6184 168.695 38.7641 167.408C38.3806 167.219 38.1378 166.917 38.0413 166.496C37.9956 165.856 37.584 165.801 37.1219 165.669C35.318 165.123 33.6338 164.336 32.0583 163.306C30.3356 162.22 30.0514 161.41 30.5071 159.503C30.6921 158.739 30.1425 158.742 29.7307 158.643C27.6635 158.137 25.6925 157.463 24.1975 155.822C24.1588 155.761 24.076 155.731 24.0206 155.672C22.8628 154.498 22.8802 154.344 24.2816 153.52C24.5222 153.402 24.7 153.225 24.8224 152.989C24.3573 153.09 23.9268 153.164 23.4892 153.28C22.2177 153.531 21.6804 152.913 22.048 151.63C22.1058 151.326 22.1821 151.027 22.2731 150.731C22.6057 149.873 22.351 149.232 21.472 149.139C19.8477 148.968 18.2096 148.908 16.5806 148.799C14.9292 148.759 13.341 148.425 11.8151 147.799L14.055 146.231C13.764 146.153 13.4879 146.182 13.2192 146.315C10.4314 147.128 8.4715 146.457 6.88883 143.98C6.41885 143.214 5.38347 142.791 5.37765 141.707C5.37331 141.635 5.13836 141.525 4.99812 141.503C2.36369 141.006 -0.0125794 139.9 -2.38878 138.734C-3.13487 138.38 -3.89728 138.117 -4.66383 137.824C-5.30449 137.637 -5.89245 137.341 -6.42207 136.931C-6.65345 136.719 -6.91207 136.476 -6.78516 136.135C-6.65824 135.794 -6.34488 135.862 -6.0815 135.822C-4.55241 135.655 -3.05211 135.935 -1.54053 136.04C-0.774686 136.099 -0.00635299 136.34 0.819121 136.044C0.603299 135.347 -0.0116498 135.226 -0.53148 135.059C-4.05071 133.93 -7.58717 132.837 -11.0034 131.412C-12.6513 130.726 -14.2682 129.953 -15.8834 129.188C-16.2937 129.055 -16.5378 128.772 -16.6129 128.345L-11.3585 129.098C-10.8528 129.17 -10.358 129.283 -9.84976 129.317C-9.46069 129.338 -8.88673 129.642 -8.72619 129.116C-8.59328 128.694 -9.08199 128.381 -9.44059 128.143C-11.1357 127.014 -12.9517 126.144 -14.8949 125.529L-16.0756 125.161C-15.6984 124.682 -15.2589 124.839 -14.8752 124.851C-11.5282 124.943 -8.34651 125.902 -5.14924 126.759C1.89799 128.659 9.00056 130.293 16.193 131.534C16.6579 131.611 17.4023 131.956 17.5631 131.474C17.7758 130.813 17.2032 130.269 16.6069 129.915C15.9686 129.586 15.2963 129.414 14.5805 129.404C12.5742 129.289 10.772 128.368 8.63655 128.013C8.96868 127.79 9.32 127.746 9.69591 127.89C13.5289 128.348 17.2426 129.355 20.974 130.296C26.8748 131.774 32.7924 133.19 38.7713 134.318C46.0597 135.687 53.4087 136.638 60.7614 137.427C64.2564 137.791 67.6634 138.72 71.1482 139.093C77.8185 139.807 84.3759 141.133 90.9437 142.392C95.1597 143.174 99.3202 144.178 103.422 145.416C105.491 146.124 107.275 147.273 108.766 148.869C110.478 150.571 112.362 152.055 114.419 153.321C116.968 154.888 119.522 156.465 122.006 158.141C122.96 158.784 123.367 158.53 123.651 157.587C124.386 155.198 125.963 153.114 126.491 150.701C127.115 147.856 129.101 145.897 130.427 143.528C132.078 140.563 134.181 137.913 136.154 135.165C137.65 133.071 139.368 131.198 140.928 129.176C142.563 127.04 143.742 124.525 145.194 122.214C145.588 121.585 145.358 120.837 145.479 120.15C145.898 117.803 146.523 115.515 147.356 113.279C147.769 112.15 148.301 111.033 147.483 109.74C147.082 109.084 147.431 108.135 147.733 107.363C148.871 104.395 149.331 101.249 150.008 98.1658C150.374 96.444 150.096 94.5338 150.546 92.7514C151.433 89.2226 152.958 85.932 154.544 82.6776C154.823 81.9784 154.993 81.2542 155.044 80.5021C155.44 77.8169 156.579 75.394 157.417 72.8708C157.711 71.9664 158.278 71.2933 159.119 70.8514C159.44 70.7005 159.696 70.4809 159.887 70.1807C160.073 69.8832 160.168 69.5574 160.165 69.2012C160.391 66.7232 160.998 64.2959 161.168 61.8031C161.297 59.9071 162.035 59.5245 163.796 60.3636C164.39 60.6372 164.379 60.1763 164.464 59.891C164.859 58.5915 165.2 57.2615 165.585 55.9554C165.875 54.9788 166.237 54.0414 167.075 53.3737C167.645 52.9264 167.999 53.0766 168.181 53.7254C168.888 56.3153 169.585 58.9023 170.3 61.4785C170.376 61.6962 170.388 61.9166 170.335 62.1432C170.283 62.3662 170.173 62.5577 170.003 62.7176C169.321 63.4665 169.61 64.981 170.54 65.2381C171.222 65.4327 171.26 65.8533 171.346 66.3265C171.653 68.0078 171.913 69.6763 172.243 71.3756C172.35 71.9491 172.517 72.5069 172.744 73.0454C172.907 73.4366 173.132 74.1721 173.693 73.2722C173.883 73.0506 174.122 72.9409 174.414 72.9403C174.787 72.8901 175.254 72.885 174.762 72.2912C174.571 72.0586 174.887 71.7799 175.081 71.6148C176.215 70.5489 177.258 69.399 178.208 68.1653C178.35 67.9466 178.537 67.7916 178.779 67.6985C179.023 67.6018 179.27 67.593 179.52 67.6601C180.139 67.8102 180.221 68.361 180.205 68.8778C180.101 71.0175 179.815 73.1319 179.346 75.2211C178.745 78.1988 178.065 81.1631 177.424 84.13C177.358 84.436 177.274 84.7491 177.246 85.0456C177.108 86.2559 177.277 86.3883 178.376 85.9406C179.475 85.4928 179.856 85.7684 179.804 87.0219C179.712 89.5003 179.453 91.8982 178.211 94.1908C175.177 99.7538 172.358 105.454 169.432 111.085C169.005 111.764 168.785 112.498 168.78 113.299C169.064 116.348 167.561 118.965 166.866 121.783C165.864 125.861 163.186 129.048 161.421 132.701C158.661 138.405 155.58 143.994 154.254 150.272C154.221 150.425 154.172 150.577 154.147 150.729C154.062 151.31 153.657 152.086 154.225 152.471C154.692 152.789 155.301 152.285 155.838 152.066C157.986 151.208 159.981 149.761 162.379 149.812C164.211 149.856 166.139 149.911 167.681 151.228C168.207 151.681 168.592 152.234 168.827 152.889C169.265 154.128 169.938 155.224 170.848 156.175C173.9 159.018 175.765 162.459 175.877 166.713C175.908 167.981 175.67 169.196 175.162 170.355C175.044 170.619 174.919 170.997 174.516 170.908C174.116 170.825 174.228 170.496 174.159 170.236C173.971 169.274 173.629 168.369 173.129 167.524C172.825 167.084 172.652 166.887 172.225 167.464C170.733 169.437 168.668 170.514 166.316 171.159C164.555 171.571 163.107 172.482 161.969 173.887C160.55 175.721 158.827 177.198 156.797 178.32C155.408 179.069 153.987 179.719 152.767 180.734C152.261 181.151 151.673 180.678 151.108 181.02C149.955 181.726 149.272 182.802 148.615 183.897C147.056 186.476 145.156 188.778 142.918 190.796C140.142 193.42 136.906 195.198 133.207 196.141C130.634 196.77 128.255 198.032 125.629 198.43C125.267 198.455 125.028 198.64 124.916 198.985C124.546 200.026 123.642 200.467 122.768 201.003C121.359 201.873 120.114 203.012 118.52 203.552C118.381 203.602 118.266 203.764 118.138 203.785C115.364 204.266 113.311 206.183 110.926 207.435C110.473 207.697 109.991 207.773 109.48 207.66C107.687 207.175 106.535 208.264 105.383 209.278C101.676 212.533 97.7663 215.544 93.9779 218.705C88.6917 223.14 82.9018 226.891 77.5197 231.197C74.4199 233.674 71.2213 236.035 67.9993 238.35C65.8026 239.933 63.9644 241.975 61.6386 243.317C59.7841 244.404 57.9992 245.643 56.0141 246.524C53.6859 247.566 51.7582 249.103 50.2254 251.14C49.4007 252.214 48.4876 253.264 46.9446 253.38C46.6861 253.401 46.4421 253.723 46.2178 253.911C43.1236 256.442 39.7683 258.547 36.1462 260.234C35.7718 260.437 35.4342 260.71 35.0164 260.472Z" fill="#E7E6E6"/>
</svg>
