<svg width="401" height="547" viewBox="0 0 401 547" fill="none" xmlns="http://www.w3.org/2000/svg">
<path d="M18.6582 414.196C21.7618 418.04 24.8303 421.754 27.8561 425.342L24.2517 428.382C21.2009 424.768 18.1134 421.03 14.9908 417.162L18.6582 414.196ZM30.8737 428.889C33.9926 432.533 37.0704 436.046 40.1088 439.421L36.6068 442.578C33.5392 439.17 30.4364 435.631 27.2866 431.96L30.8737 428.889ZM43.3352 442.973C46.5446 446.47 49.7118 449.815 52.8249 453.006L49.452 456.3C46.2977 453.072 43.1072 449.695 39.8625 446.163L43.3352 442.973ZM56.2072 456.428C59.6533 459.874 63.043 463.126 66.3702 466.183L63.1778 469.659C59.7991 466.556 56.3655 463.254 52.8739 459.764L56.2072 456.428ZM69.6805 469.185C73.399 472.493 77.0306 475.555 80.5948 478.37L77.6672 482.07C74.0354 479.198 70.3301 476.078 66.5455 472.708L69.6805 469.185ZM84.1245 481.099C88.0856 484.097 91.9534 486.777 95.7163 489.135L93.212 493.133C89.3296 490.698 85.354 487.945 81.2809 484.866L84.1245 481.099ZM99.5485 491.449C103.798 493.918 107.918 495.965 111.902 497.593L110.114 501.961C105.93 500.247 101.618 498.105 97.1801 495.534L99.5485 491.449ZM116.354 499.257C120.95 500.813 125.355 501.771 129.566 502.148L129.154 506.846C124.569 506.439 119.796 505.402 114.845 503.725L116.354 499.257ZM133.979 502.318C138.547 502.268 142.882 501.467 146.988 499.931L148.639 504.348C144.022 506.079 139.151 506.977 134.034 507.033L133.979 502.318ZM151.021 498.145C154.811 496.193 158.404 493.55 161.799 490.224L165.102 493.587C161.369 497.249 157.396 500.166 153.178 502.335L151.021 498.145ZM164.908 486.917C167.705 483.705 170.355 479.995 172.86 475.781L176.914 478.192C174.262 482.647 171.448 486.587 168.467 490.011L164.908 486.917ZM175.07 471.857C177.124 468.019 179.072 463.815 180.919 459.253L185.286 461.022C183.384 465.741 181.363 470.098 179.225 474.085L175.07 471.857ZM182.587 454.929C184.133 450.777 185.592 446.353 186.973 441.652L191.494 442.985C190.087 447.786 188.593 452.316 187.013 456.574L182.587 454.929ZM188.242 437.177C189.427 432.826 190.553 428.268 191.609 423.494L196.215 424.512C195.138 429.363 193.997 434 192.789 438.415L188.242 437.177ZM192.574 418.988C193.391 415.035 194.167 410.95 194.898 406.726L199.548 407.532C198.803 411.81 198.02 415.944 197.19 419.945L192.574 418.988Z" fill="#E7E6E6"/>
<path d="M280.158 413.691L276.661 399.62L281.239 398.484L284.736 412.554L280.158 413.691ZM275.513 395.204C274.247 390.419 272.994 385.848 271.743 381.487L276.276 380.186C277.533 384.574 278.802 389.181 280.071 393.999L275.513 395.204ZM270.442 377.024C269.023 372.262 267.622 367.772 266.223 363.556L270.698 362.068C272.109 366.331 273.536 370.872 274.959 375.687L270.442 377.024ZM264.729 359.169C263.074 354.388 261.427 350.004 259.786 346.004L264.15 344.218C265.821 348.296 267.504 352.76 269.188 357.625L264.729 359.169ZM258.053 341.916C255.967 337.153 253.903 333.039 251.856 329.58L255.919 327.178C258.063 330.804 260.214 335.087 262.376 340.023L258.053 341.916ZM249.276 325.539C246.121 321.005 243.082 318.134 240.17 316.927L241.974 312.57C245.74 314.133 249.46 317.556 253.145 322.843L249.276 325.539ZM236.738 316.306C233.673 316.498 230.518 318.742 227.284 323.04L223.515 320.203C227.628 314.744 231.936 311.88 236.445 311.597L236.738 316.306ZM224.632 326.992C222.633 330.317 220.641 334.375 218.655 339.174L214.296 337.375C216.375 332.353 218.467 328.086 220.596 324.561L224.632 326.992ZM216.989 343.396C215.474 347.385 213.973 351.798 212.478 356.639L207.972 355.247C209.499 350.313 211.031 345.806 212.577 341.724L216.989 343.396ZM211.104 361.22C209.876 365.426 208.66 369.915 207.444 374.691L202.87 373.529C204.1 368.7 205.336 364.159 206.579 359.9L211.104 361.22ZM206.285 379.349C205.227 383.677 204.182 388.218 203.135 392.982L198.527 391.971C199.583 387.177 200.639 382.594 201.704 378.236L206.285 379.349ZM202.141 397.595L200.494 405.548L195.872 404.59L197.519 396.637L202.141 397.595Z" fill="#E7E6E6"/>
<path d="M150.427 392.537L160.207 403.317L156.716 406.483L146.934 395.709L150.427 392.537ZM163.37 406.75L172.834 416.878L169.385 420.1L159.922 409.966L163.37 406.75ZM176.186 420.413L186.033 430.587L182.638 433.868L172.793 423.689L176.186 420.413ZM189.192 433.796C192.694 437.32 196.102 440.692 199.418 443.912L196.136 447.293C192.794 444.054 189.365 440.664 185.845 437.116L189.192 433.796ZM202.771 447.135C206.305 450.515 209.734 453.714 213.055 456.725L209.883 460.219C206.533 457.175 203.073 453.948 199.512 450.548L202.771 447.135ZM216.596 459.909C220.253 463.163 223.775 466.183 227.162 468.969L224.161 472.611C220.728 469.781 217.165 466.724 213.467 463.434L216.596 459.909ZM230.903 472.004C234.802 475.112 238.515 477.897 242.034 480.356L239.335 484.225C235.736 481.706 231.944 478.862 227.959 475.692L230.903 472.004ZM245.932 482.992C250.24 485.815 254.224 488.106 257.89 489.853L255.858 494.11C252.001 492.268 247.833 489.877 243.345 486.943L245.932 482.992ZM261.835 491.578C266.86 493.555 271.135 494.357 274.656 493.982L275.158 498.67C270.87 499.126 265.85 498.227 260.107 495.962L261.835 491.578ZM278.396 493.003C281.671 491.549 284.107 488.495 285.704 483.841L290.166 485.374C288.12 491.322 284.837 495.302 280.311 497.312L278.396 493.003ZM286.846 479.554C287.632 475.695 287.998 471.099 287.956 465.763L292.672 465.727C292.716 471.388 292.321 476.308 291.467 480.493L286.846 479.554ZM287.833 461.443C287.64 457.194 287.217 452.546 286.562 447.504L291.24 446.898C291.911 452.071 292.344 456.85 292.547 461.229L287.833 461.443ZM285.928 442.978C285.277 438.606 284.463 433.968 283.498 429.059L288.125 428.146C289.108 433.129 289.928 437.84 290.593 442.279L285.928 442.978ZM282.584 424.554C281.854 421.052 281.043 417.421 280.159 413.662L284.752 412.587C285.641 416.379 286.46 420.051 287.2 423.587L282.584 424.554Z" fill="#E7E6E6"/>
<path d="M277.706 194.833L265.834 202.938L263.17 199.046L275.05 190.937L277.706 194.833ZM262.027 205.593L250.536 213.775L247.802 209.928L259.292 201.752L262.027 205.593ZM246.698 216.569C242.878 219.367 239.153 222.145 235.534 224.908L232.673 221.154C236.321 218.38 240.065 215.581 243.909 212.764L246.698 216.569ZM231.751 227.805C227.929 230.755 224.222 233.679 220.63 236.577L217.67 232.911C221.287 229.989 225.02 227.04 228.867 224.071L231.751 227.805ZM217.078 239.472C213.314 242.559 209.68 245.617 206.18 248.647L203.097 245.082C206.63 242.023 210.29 238.94 214.087 235.823L217.078 239.472ZM202.695 251.694C199.065 254.9 195.579 258.068 192.246 261.213L189.007 257.778C192.381 254.599 195.902 251.396 199.572 248.157L202.695 251.694ZM188.869 264.429C185.384 267.781 182.074 271.104 178.938 274.392L175.525 271.133C178.71 267.802 182.065 264.433 185.595 261.029L188.869 264.429ZM175.741 277.79C172.444 281.346 169.351 284.854 166.466 288.323L162.841 285.307C165.781 281.777 168.925 278.199 172.282 274.583L175.741 277.79ZM163.544 291.909C160.505 295.713 157.725 299.458 155.189 303.148L151.298 300.482C153.899 296.694 156.748 292.859 159.855 288.966L163.544 291.909ZM152.673 306.926C150.039 311.004 147.709 315.016 145.703 318.963L141.501 316.818C143.582 312.732 145.988 308.581 148.711 304.361L152.673 306.926ZM143.665 323.168C141.648 327.558 140.036 331.864 138.817 336.079L134.289 334.77C135.568 330.33 137.265 325.804 139.378 321.198L143.665 323.168ZM137.686 340.489C136.651 345.091 136.104 349.581 136.051 353.962L131.341 353.903C131.393 349.191 131.977 344.373 133.085 339.454L137.686 340.489ZM136.179 358.524C136.486 363.059 137.34 367.479 138.739 371.79L134.254 373.244C132.735 368.57 131.806 363.767 131.475 358.844L136.179 358.524ZM140.3 376.017C141.99 380.075 144.184 384.032 146.877 387.887L143.013 390.591C140.122 386.453 137.765 382.198 135.949 377.826L140.3 376.017ZM149.64 391.577L150.501 392.642L146.838 395.616L145.977 394.551L149.64 391.577Z" fill="#E7E6E6"/>
<path d="M190.016 259.853C191.422 258.509 193.189 257.735 194.744 256.631C198.539 253.89 202.073 250.837 205.337 247.48C207.562 245.245 209.646 242.831 212.021 240.806C214.068 239.061 215.941 237.139 218.004 235.434C218.352 235.14 218.729 234.894 218.76 234.235C217.774 234.63 216.912 235.208 216.178 235.975C213.956 238.285 211.486 240.284 208.769 241.98C207.561 242.73 206.486 243.634 205.541 244.7C202.838 247.746 199.47 249.911 195.799 252.062C196.302 251.214 196.946 250.49 197.731 249.891C199.815 248.243 201.639 246.327 203.587 244.536C207.293 241.107 210.933 237.574 214.897 234.447C220.767 229.81 226.15 224.631 231.761 219.704C235.009 216.851 238.448 214.243 241.66 211.33C243.247 209.887 245.07 208.639 246.386 206.982C248.571 204.251 251.21 201.93 253.229 199.08C253.394 198.848 253.768 198.616 253.547 198.277C253.322 197.94 252.879 197.999 252.576 198.099C251.29 198.537 250.027 198.182 248.771 198.039C248.274 198.009 247.813 197.857 247.391 197.59C246.969 197.323 246.637 196.97 246.396 196.53C246.262 196.262 246.066 196.051 245.808 195.895C245.553 195.74 245.273 195.665 244.975 195.672C244.453 195.662 243.945 195.582 243.446 195.428C242.95 195.275 242.485 195.052 242.053 194.763C241.617 194.472 241.237 194.125 240.906 193.725C240.575 193.324 240.307 192.881 240.103 192.404C239.501 191.086 238.27 190.788 237.26 190.77C235.919 190.75 234.737 190.343 234.047 189.487C233.058 188.255 231.812 187.853 230.459 187.538C229.667 187.385 228.934 187.086 228.266 186.631C227.598 186.179 227.047 185.61 226.614 184.929C226.273 184.403 225.79 184.116 225.166 184.071C224.283 183.949 223.397 183.866 222.523 183.71C221.389 183.505 220.35 183.14 219.707 182.048C219.228 181.315 218.558 180.887 217.692 180.773C216.177 180.458 214.819 179.81 213.62 178.834C212.822 178.201 211.943 177.709 210.986 177.362C209.728 176.902 208.605 176.392 207.93 175.051C207.489 174.178 206.333 174.173 205.435 173.976C204.537 173.775 203.945 173.525 203.964 172.511C203.974 172.032 203.598 171.845 203.234 171.7C202.699 171.501 202.126 171.324 201.587 171.128C200.748 170.809 200.28 170.214 200.62 169.314C200.961 168.41 200.646 168.393 199.91 168.5C197.617 168.853 195.618 168.076 193.764 166.79C193.38 166.6 193.137 166.298 193.041 165.878C192.995 165.238 192.583 165.183 192.121 165.051C190.317 164.504 188.633 163.717 187.058 162.687C185.335 161.602 185.051 160.791 185.507 158.884C185.692 158.121 185.142 158.123 184.73 158.025C182.663 157.518 180.692 156.844 179.197 155.204C179.158 155.142 179.075 155.112 179.02 155.054C177.862 153.879 177.88 153.726 179.281 152.901C179.522 152.784 179.699 152.607 179.822 152.371C179.357 152.471 178.926 152.545 178.489 152.661C177.217 152.913 176.68 152.295 177.047 151.012C177.105 150.707 177.182 150.408 177.273 150.113C177.605 149.254 177.35 148.614 176.471 148.52C174.847 148.349 173.209 148.289 171.58 148.181C169.929 148.141 168.34 147.806 166.815 147.18L169.054 145.613C168.763 145.535 168.487 145.564 168.219 145.697C165.431 146.509 163.471 145.838 161.888 143.361C161.418 142.596 160.383 142.172 160.377 141.089C160.373 141.017 160.138 140.906 159.998 140.884C157.363 140.388 154.987 139.281 152.611 138.116C151.865 137.762 151.102 137.498 150.336 137.206C149.695 137.018 149.107 136.723 148.577 136.312C148.346 136.1 148.087 135.857 148.214 135.516C148.341 135.175 148.655 135.243 148.918 135.203C150.447 135.037 151.947 135.316 153.459 135.421C154.225 135.48 154.993 135.722 155.819 135.426C155.603 134.728 154.988 134.607 154.468 134.44C150.949 133.312 147.412 132.218 143.996 130.793C142.348 130.107 140.731 129.334 139.116 128.57C138.706 128.436 138.462 128.154 138.387 127.727L143.641 128.479C144.147 128.552 144.641 128.665 145.15 128.698C145.539 128.719 146.113 129.023 146.273 128.498C146.406 128.075 145.917 127.763 145.559 127.525C143.864 126.395 142.048 125.526 140.105 124.91L138.924 124.543C139.301 124.063 139.741 124.221 140.124 124.233C143.471 124.324 146.653 125.283 149.85 126.14C156.897 128.04 164 129.675 171.192 130.915C171.657 130.992 172.402 131.338 172.563 130.856C172.775 130.194 172.203 129.65 171.606 129.297C170.968 128.968 170.296 128.796 169.58 128.785C167.574 128.67 165.771 127.749 163.636 127.394C163.968 127.171 164.319 127.127 164.695 127.271C168.528 127.73 172.242 128.737 175.973 129.677C181.874 131.156 187.792 132.572 193.771 133.7C201.059 135.069 208.408 136.019 215.761 136.809C219.256 137.173 222.663 138.102 226.148 138.475C232.818 139.188 239.375 140.515 245.943 141.773C250.159 142.556 254.32 143.56 258.422 144.797C260.49 145.505 262.275 146.655 263.766 148.25C265.477 149.953 267.361 151.437 269.419 152.702C271.967 154.27 274.522 155.846 277.006 157.523C277.959 158.165 278.367 157.911 278.651 156.969C279.386 154.58 280.963 152.495 281.491 150.082C282.115 147.237 284.101 145.278 285.426 142.909C287.077 139.945 289.181 137.295 291.153 134.546C292.65 132.452 294.368 130.579 295.928 128.558C297.562 126.421 298.741 123.907 300.194 121.595C300.587 120.967 300.358 120.218 300.478 119.532C300.898 117.185 301.523 114.897 302.355 112.66C302.768 111.531 303.3 110.414 302.482 109.121C302.082 108.465 302.431 107.516 302.732 106.744C303.871 103.777 304.331 100.631 305.007 97.5472C305.374 95.8254 305.096 93.9152 305.546 92.1329C306.432 88.604 307.957 85.3135 309.544 82.0591C309.822 81.3599 309.992 80.6357 310.044 79.8835C310.44 77.1984 311.578 74.7755 312.416 72.2522C312.71 71.3479 313.277 70.6748 314.118 70.2329C314.439 70.0819 314.695 69.8624 314.886 69.5622C315.072 69.2647 315.168 68.9388 315.164 68.5827C315.39 66.1046 315.997 63.6774 316.168 61.1846C316.297 59.2886 317.035 58.906 318.796 59.745C319.39 60.0187 319.379 59.5578 319.463 59.2725C319.859 57.973 320.199 56.643 320.585 55.3369C320.874 54.3603 321.236 53.4229 322.074 52.7552C322.644 52.3078 322.999 52.4581 323.18 53.1068C323.888 55.6968 324.584 58.2837 325.299 60.8599C325.375 61.0777 325.387 61.298 325.334 61.5247C325.283 61.7477 325.172 61.9391 325.003 62.0991C324.321 62.848 324.61 64.3625 325.54 64.6196C326.222 64.8142 326.259 65.2348 326.345 65.708C326.653 67.3893 326.913 69.0578 327.243 70.7571C327.35 71.3305 327.516 71.8883 327.743 72.4268C327.907 72.8181 328.132 73.5536 328.693 72.6537C328.882 72.4321 329.121 72.3224 329.413 72.3217C329.786 72.2716 330.253 72.2665 329.761 71.6727C329.571 71.44 329.886 71.1614 330.08 70.9963C331.215 69.9303 332.257 68.7805 333.208 67.5468C333.349 67.3281 333.537 67.173 333.779 67.08C334.022 66.9832 334.269 66.9744 334.52 67.0416C335.139 67.1917 335.22 67.7425 335.204 68.2593C335.1 70.399 334.814 72.5134 334.345 74.6025C333.745 77.5803 333.065 80.5446 332.424 83.5115C332.358 83.8175 332.274 84.1306 332.246 84.427C332.107 85.6374 332.277 85.7698 333.376 85.322C334.475 84.8743 334.855 85.1499 334.803 86.4034C334.712 88.8818 334.452 91.2797 333.21 93.5723C330.176 99.1352 327.358 104.835 324.432 110.466C324.005 111.146 323.784 111.88 323.779 112.68C324.064 115.729 322.561 118.347 321.865 121.165C320.863 125.243 318.185 128.43 316.421 132.083C313.661 137.786 310.58 143.376 309.253 149.653C309.22 149.806 309.171 149.959 309.147 150.11C309.062 150.691 308.657 151.467 309.225 151.852C309.692 152.171 310.301 151.667 310.837 151.447C312.986 150.59 314.98 149.143 317.379 149.193C319.211 149.238 321.138 149.292 322.68 150.61C323.207 151.063 323.591 151.616 323.826 152.271C324.264 153.509 324.938 154.606 325.848 155.556C328.9 158.399 330.765 161.84 330.877 166.095C330.908 167.362 330.669 168.578 330.161 169.736C330.043 170.001 329.918 170.378 329.516 170.29C329.115 170.206 329.227 169.877 329.159 169.618C328.97 168.655 328.629 167.75 328.129 166.906C327.824 166.465 327.652 166.269 327.225 166.845C325.733 168.818 323.668 169.895 321.316 170.54C319.555 170.953 318.107 171.864 316.968 173.268C315.549 175.103 313.827 176.58 311.797 177.702C310.408 178.451 308.986 179.1 307.767 180.116C307.26 180.533 306.672 180.059 306.107 180.401C304.955 181.107 304.271 182.184 303.615 183.279C302.055 185.858 300.155 188.159 297.917 190.177C295.141 192.801 291.905 194.579 288.206 195.522C285.633 196.152 283.254 197.413 280.629 197.811C280.266 197.836 280.027 198.021 279.915 198.366C279.545 199.408 278.642 199.849 277.768 200.384C276.358 201.254 275.113 202.393 273.52 202.934C273.38 202.983 273.265 203.146 273.137 203.167C270.363 203.647 268.31 205.565 265.926 206.817C265.473 207.078 264.99 207.154 264.48 207.041C262.687 206.557 261.534 207.646 260.382 208.659C256.676 211.914 252.766 214.925 248.977 218.087C243.691 222.521 237.901 226.272 232.519 230.578C229.419 233.056 226.221 235.416 222.999 237.731C220.802 239.314 218.964 241.356 216.638 242.699C214.784 243.785 212.999 245.024 211.014 245.906C208.685 246.948 206.758 248.484 205.225 250.521C204.4 251.595 203.487 252.646 201.944 252.761C201.686 252.783 201.442 253.104 201.217 253.293C198.123 255.823 194.768 257.929 191.146 259.615C190.771 259.819 190.434 260.092 190.016 259.853Z" fill="#E7E6E6"/>
</svg>
