<svg width="526" height="432" viewBox="0 0 526 432" fill="none" xmlns="http://www.w3.org/2000/svg">
<path d="M344.802 166.537L345.88 176.995C349.344 176.662 352.927 176.485 356.536 176.485C359.516 176.485 362.589 176.604 365.661 176.833L366.495 166.354C363.141 166.099 359.792 165.974 356.536 165.974C352.568 165.974 348.625 166.162 344.802 166.537Z" fill="#E7E6E6"/>
<path d="M303.391 179.552L308.839 188.62C314.474 185.396 320.479 182.787 326.677 180.849L323.396 170.839C316.448 173.006 309.714 175.938 303.391 179.552Z" fill="#E7E6E6"/>
<path d="M159.458 323.068C166.557 321.656 173.552 319.677 180.234 317.182L176.38 307.365C170.25 309.656 163.833 311.469 157.307 312.766L159.458 323.068Z" fill="#E7E6E6"/>
<path d="M271.073 207.656L279.542 214.151C283.771 208.901 288.307 204.125 293.026 199.979L285.812 192.172C280.641 196.724 275.687 201.932 271.073 207.656Z" fill="#E7E6E6"/>
<path d="M117.516 314.714L116.557 325.183C121.365 325.604 126.182 325.818 130.87 325.818C133.271 325.818 135.682 325.761 138.047 325.651L137.536 315.151C135.339 315.256 133.099 315.302 130.87 315.302C126.495 315.302 122.005 315.104 117.516 314.714Z" fill="#E7E6E6"/>
<path d="M210.583 287.833C205.375 292 199.885 295.745 194.266 298.958L199.724 308.026C205.823 304.531 211.771 300.479 217.411 295.964L210.583 287.833Z" fill="#E7E6E6"/>
<path d="M237.88 259.245C233.828 264.672 229.536 269.782 225.125 274.427L233.031 281.573C237.729 276.62 242.286 271.193 246.589 265.433L237.88 259.245Z" fill="#E7E6E6"/>
<path d="M74.7708 316.656C81.6354 318.833 88.5729 320.646 95.3854 322.057L97.6146 311.776C91.1719 310.438 84.6041 308.724 78.1041 306.656L74.7708 316.656Z" fill="#E7E6E6"/>
<path d="M423.651 192.568C429.635 195.214 435.771 198.209 441.885 201.469L447.052 192.245C440.703 188.854 434.328 185.74 428.094 182.995L423.651 192.568Z" fill="#E7E6E6"/>
<path d="M385.422 179.781C391.708 181.156 398.234 182.979 404.818 185.208L408.344 175.276C401.375 172.922 394.458 170.985 387.776 169.521L385.422 179.781Z" fill="#E7E6E6"/>
<mask id="mask0_383_84" style="mask-type:luminance" maskUnits="userSpaceOnUse" x="0" y="74" width="527" height="358">
<path d="M0 74.667H526.005V431.459H0V74.667Z" fill="white"/>
</mask>
<g mask="url(#mask0_383_84)">
<path d="M391.224 281.87L385.458 282.235L381.219 286.146L309.542 352.245L242.953 151.933L313.802 91.5055L413.427 95.2347L465.865 203.125C465.667 202.995 465.458 202.87 465.255 202.74L459.49 211.62C464.688 214.834 469.87 218.256 474.938 221.782L500.766 274.933L391.224 281.87ZM423.797 79.3389L308.073 75.0107L230.734 140.969L211.63 137.604C209.135 142.464 206.401 147.495 203.443 152.683L227.464 156.912L253.406 234.959C251.948 237.604 250.453 240.209 248.948 242.719L257.646 247.709L294.406 358.297L183.172 353.219L178.365 352.995L174.208 355.427L85.8906 407.078L55.2188 308.438L59.1823 299.62C56.2604 298.375 53.651 297.172 51.3802 296.084L19.2083 192.625L79.3854 153.771C76.5677 148.865 73.9479 144.094 71.5417 139.474L0 185.662L76.4323 431.459L182.427 369.469L308.609 375.235L392.255 298.104L526.005 289.636L423.797 79.3389Z" fill="#E7E6E6"/>
</g>
<mask id="mask1_383_84" style="mask-type:luminance" maskUnits="userSpaceOnUse" x="66" y="0" width="151" height="219">
<path d="M66.2656 0H216.932V218.458H66.2656V0Z" fill="white"/>
</mask>
<g mask="url(#mask1_383_84)">
<path d="M100.359 70.0574C100.359 47.5678 118.604 29.3334 141.104 29.3334C163.599 29.3334 181.844 47.5678 181.844 70.0574C181.844 92.5522 163.599 110.787 141.104 110.787C118.604 110.787 100.359 92.5522 100.359 70.0574ZM215.865 74.7345C215.865 33.4532 182.396 -0.00512695 141.104 -0.00512695C99.8125 -0.00512695 66.3333 33.4532 66.3333 74.7345C66.3333 122.948 141.104 217.193 141.104 217.193C141.104 217.193 215.865 122.948 215.865 74.7345Z" fill="#E7E6E6"/>
</g>
</svg>
