<svg width="451" height="473" viewBox="0 0 451 473" fill="none" xmlns="http://www.w3.org/2000/svg">
<mask id="mask0_383_109" style="mask-type:luminance" maskUnits="userSpaceOnUse" x="53" y="342" width="41" height="131">
<path d="M53.25 342.724H93.25V472.5H53.25V342.724Z" fill="white"/>
</mask>
<g mask="url(#mask0_383_109)">
<path d="M53.6563 452.953C53.6563 463.75 62.4115 472.494 73.2084 472.494C84.0104 472.494 92.7709 463.75 92.7709 452.953V343.562H53.6563V452.953Z" fill="#E7E6E6"/>
</g>
<mask id="mask1_383_109" style="mask-type:luminance" maskUnits="userSpaceOnUse" x="99" y="109" width="92" height="364">
<path d="M99.9167 109.391H190.583V472.5H99.9167V109.391Z" fill="white"/>
</mask>
<g mask="url(#mask1_383_109)">
<path d="M119.656 472.495C130.458 472.495 139.214 463.75 139.214 452.953V197.5C144.286 194.287 151.797 189.292 159.474 183.313C166.177 178.073 173.005 172.146 178.63 165.531C181.437 162.214 183.969 158.714 185.964 154.776C187.943 150.849 189.469 146.37 189.49 141.188C189.573 135.87 187.479 129.979 183.719 125.719C178.026 119.26 170.344 115.938 160.677 113.563C152.078 111.526 141.542 110.365 128.281 110.042C133.021 116.537 135.828 124.531 135.828 133.172C135.828 134.005 135.792 134.828 135.74 135.651C147.854 136.401 156.01 138.078 160.411 139.87C162.359 140.625 163.495 141.349 164.057 141.776C163.656 143.354 161.12 147.542 156.995 151.771C150.891 158.229 141.896 165.162 134.375 170.365V174.698C134.375 182.969 128.557 189.891 120.802 191.646C125.219 194.802 128.115 199.958 128.115 205.781V326.167C128.115 335.755 120.307 343.557 110.714 343.557H100.104V452.953C100.099 463.75 108.859 472.495 119.656 472.495Z" fill="#E7E6E6"/>
</g>
<path d="M129.12 147.255C130.99 142.937 132.026 138.177 132.026 133.172C132.026 113.531 116.094 97.604 96.4375 97.604C76.7813 97.604 60.8438 113.531 60.8438 133.172C60.8438 136.328 61.2604 139.385 62.0313 142.297H116.974C121.698 142.297 125.979 144.193 129.12 147.255Z" fill="#E7E6E6"/>
<path d="M123.365 326.172V205.781C123.365 198.797 117.698 193.141 110.708 193.141H99.8177V234.031H90.8542V193.141H36.8125V234.031H27.849V193.141H18.9636C11.9792 193.141 6.31253 198.797 6.31253 205.781V326.172C6.31253 333.156 11.9792 338.813 18.9636 338.813H110.708C117.698 338.813 123.365 333.156 123.365 326.172Z" fill="#E7E6E6"/>
<path d="M335.026 70.0625C335.026 47.5729 353.271 29.3385 375.771 29.3385C398.266 29.3385 416.51 47.5729 416.51 70.0625C416.51 92.5573 398.266 110.792 375.771 110.792C353.271 110.792 335.026 92.5573 335.026 70.0625ZM450.531 74.7396C450.531 33.4583 417.063 0 375.771 0C334.479 0 301 33.4583 301 74.7396C301 122.953 375.771 217.198 375.771 217.198C375.771 217.198 450.531 122.953 450.531 74.7396Z" fill="#E7E6E6"/>
<mask id="mask2_383_109" style="mask-type:luminance" maskUnits="userSpaceOnUse" x="0" y="146" width="131" height="43">
<path d="M0 146.724H130.583V188.057H0V146.724Z" fill="white"/>
</mask>
<g mask="url(#mask2_383_109)">
<path d="M116.969 187.343C123.958 187.343 129.625 181.682 129.625 174.698V159.682C129.625 152.698 123.958 147.036 116.969 147.036H12.7031C5.71354 147.036 0.046875 152.698 0.046875 159.682V174.698C0.046875 181.682 5.71354 187.343 12.7031 187.343H116.969ZM115.62 152.833C120.646 152.833 124.719 159.323 124.719 167.323C124.719 175.323 120.646 181.812 115.62 181.812C110.599 181.812 106.526 175.323 106.526 167.323C106.526 159.317 110.599 152.833 115.62 152.833Z" fill="#E7E6E6"/>
</g>
<rect width="303.636" height="0" transform="translate(163 453.392) rotate(-45.4526)" fill="#E7E6E6"/>
<line x1="159.793" y1="450.235" x2="187.571" y2="422.015" stroke="#E7E6E6" stroke-width="9"/>
<line x1="195.989" y1="413.463" x2="223.767" y2="385.243" stroke="#E7E6E6" stroke-width="9"/>
<line x1="232.185" y1="376.69" x2="259.963" y2="348.47" stroke="#E7E6E6" stroke-width="9"/>
<line x1="268.381" y1="339.918" x2="296.159" y2="311.698" stroke="#E7E6E6" stroke-width="9"/>
<line x1="304.577" y1="303.146" x2="332.355" y2="274.926" stroke="#E7E6E6" stroke-width="9"/>
<line x1="340.773" y1="266.374" x2="368.551" y2="238.153" stroke="#E7E6E6" stroke-width="9"/>
</svg>
