<svg width="545" height="442" viewBox="0 0 545 442" fill="none" xmlns="http://www.w3.org/2000/svg">
<mask id="mask0_367_427" style="mask-type:luminance" maskUnits="userSpaceOnUse" x="0" y="0" width="246" height="283">
<path d="M0.457275 0H245.431V282.954H0.457275V0Z" fill="white"/>
</mask>
<g mask="url(#mask0_367_427)">
<mask id="mask1_367_427" style="mask-type:luminance" maskUnits="userSpaceOnUse" x="-22" y="-31" width="320" height="314">
<path d="M-22 164.88L168.684 -30.2767L297.28 87.6787L106.596 282.835L-22 164.88Z" fill="white"/>
</mask>
<g mask="url(#mask1_367_427)">
<mask id="mask2_367_427" style="mask-type:luminance" maskUnits="userSpaceOnUse" x="-22" y="-31" width="320" height="314">
<path d="M-22 164.88L168.684 -30.2767L297.28 87.6787L106.596 282.835L-22 164.88Z" fill="white"/>
</mask>
<g mask="url(#mask2_367_427)">
<path d="M105.734 282.045C106.983 280.054 108.845 278.61 110.349 276.852C114.002 272.504 117.245 267.877 120.069 262.981C122.011 259.706 123.727 256.267 125.914 253.189C127.8 250.535 129.421 247.731 131.34 245.118C131.66 244.671 132.033 244.269 131.858 243.497C130.807 244.26 129.963 245.196 129.332 246.31C127.418 249.672 125.108 252.75 122.407 255.555C121.205 256.797 120.21 258.176 119.423 259.702C117.17 264.064 113.842 267.612 110.146 271.239C110.476 270.102 111.013 269.065 111.758 268.128C113.719 265.575 115.284 262.794 117.038 260.117C120.366 255.002 123.581 249.786 127.314 244.94C132.839 237.756 137.609 230.096 142.733 222.656C145.698 218.349 148.97 214.266 151.874 209.9C153.307 207.739 155.084 205.73 156.126 203.405C157.86 199.569 160.269 196.065 161.768 192.142C161.891 191.822 162.263 191.439 161.891 191.114C161.514 190.795 161.005 191 160.675 191.21C159.279 192.115 157.658 192.096 156.112 192.32C155.508 192.439 154.91 192.407 154.32 192.229C153.731 192.051 153.222 191.745 152.793 191.311C152.548 191.041 152.246 190.859 151.888 190.758C151.534 190.658 151.176 190.658 150.823 190.758C150.196 190.909 149.564 190.973 148.918 190.95C148.277 190.927 147.65 190.813 147.042 190.612C146.429 190.411 145.863 190.128 145.34 189.767C144.817 189.406 144.355 188.977 143.959 188.488C142.818 187.15 141.253 187.187 140.042 187.479C138.434 187.872 136.893 187.767 135.794 186.99C134.22 185.871 132.603 185.794 130.887 185.848C129.893 185.917 128.922 185.798 127.979 185.478C127.036 185.163 126.197 184.675 125.462 184.021C124.886 183.519 124.217 183.336 123.458 183.478C122.364 183.61 121.28 183.789 120.187 183.88C118.768 183.994 117.41 183.894 116.293 182.829C115.487 182.131 114.549 181.843 113.479 181.98C111.57 182.085 109.741 181.756 107.996 180.998C106.841 180.514 105.635 180.217 104.381 180.112C102.731 179.97 101.227 179.728 99.9921 178.385C99.186 177.513 97.8048 177.865 96.6688 177.915C95.5327 177.961 94.7455 177.856 94.4438 176.677C94.3024 176.12 93.7933 176.02 93.3124 175.965C92.6101 175.901 91.87 175.873 91.1629 175.814C90.0598 175.704 89.3103 175.161 89.4282 174.014C89.546 172.863 89.1642 172.941 88.3204 173.293C85.6947 174.412 83.0596 174.133 80.434 173.22C79.9154 173.119 79.5289 172.845 79.279 172.388C79.0198 171.662 78.5107 171.726 77.9167 171.717C75.588 171.644 73.3253 171.256 71.1145 170.552C68.7104 169.831 68.1117 168.981 68.0457 166.634C68.0222 165.693 67.3669 165.866 66.8437 165.88C64.2133 165.935 61.6442 165.766 59.3344 164.332C59.2684 164.272 59.1599 164.263 59.0751 164.213C57.3168 163.213 57.2885 163.03 58.698 161.642C58.9478 161.432 59.1034 161.171 59.1741 160.861C58.6508 161.121 58.1606 161.34 57.6751 161.61C56.2373 162.295 55.3982 161.747 55.4265 160.148C55.3982 159.778 55.3935 159.408 55.4076 159.038C55.5302 157.942 55.0211 157.28 53.9416 157.444C51.9476 157.75 49.9725 158.189 47.9926 158.568C46.0081 159.034 44.0046 159.139 41.9823 158.888L44.1555 156.38C43.7831 156.38 43.4625 156.499 43.1844 156.736C40.1156 158.54 37.5607 158.371 34.8784 155.996C34.0724 155.257 32.7006 155.088 32.3471 153.836C32.3188 153.754 32.0029 153.699 31.8285 153.717C28.524 153.959 25.3327 153.416 22.1225 152.804C21.1184 152.626 20.1238 152.557 19.115 152.457C18.2901 152.438 17.4934 152.279 16.7298 151.968C16.3856 151.795 15.9991 151.594 16.0415 151.16C16.084 150.726 16.4799 150.707 16.7816 150.58C18.5541 149.913 20.4349 149.771 22.2734 149.424C23.2067 149.255 24.2014 149.296 25.0923 148.698C24.6115 147.958 23.8384 148.008 23.1643 147.976C18.6012 147.762 14.0287 147.593 9.49387 147.003C7.3066 146.72 5.12876 146.327 2.95563 145.944C2.42296 145.916 2.04113 145.665 1.81486 145.195L8.32953 144.437C8.95648 144.363 9.58343 144.341 10.201 144.222C10.6724 144.126 11.4549 144.3 11.4784 143.642C11.502 143.112 10.8185 142.902 10.3141 142.738C7.92884 141.957 5.4823 141.513 2.96506 141.404L1.43774 141.344C1.73472 140.673 2.30982 140.719 2.77179 140.614C6.79749 139.682 10.9033 139.805 14.995 139.805C24.0175 139.819 33.0211 139.508 42.0059 138.714C42.5857 138.659 43.5851 138.828 43.6228 138.22C43.6652 137.389 42.8073 136.937 41.9823 136.713C41.115 136.531 40.257 136.54 39.3991 136.75C36.9667 137.238 34.5202 136.732 31.8568 136.983C32.1821 136.622 32.5875 136.462 33.0824 136.512C37.8058 135.855 42.5622 135.868 47.3185 135.8C54.8373 135.681 62.356 135.485 69.8559 134.937C78.9962 134.261 88.0753 133.082 97.1072 131.717C101.397 131.054 105.762 131.073 110.042 130.424C118.235 129.182 126.489 128.684 134.734 128.104C140.018 127.702 145.307 127.574 150.601 127.734C153.297 127.912 155.796 128.688 158.087 130.072C160.675 131.511 163.399 132.644 166.261 133.47C169.806 134.494 173.36 135.526 176.862 136.695C178.206 137.143 178.611 136.722 178.649 135.544C178.762 132.552 179.978 129.652 179.837 126.697C179.672 123.212 181.416 120.33 182.241 117.179C183.264 113.237 184.928 109.519 186.403 105.729C187.521 102.842 188.972 100.143 190.189 97.3202C191.457 94.3423 192.06 91.0676 193.055 87.9435C193.323 87.094 192.81 86.2993 192.734 85.468C192.484 82.6226 192.498 79.7817 192.777 76.9363C192.909 75.5022 193.187 74.0452 191.796 72.8029C191.108 72.168 191.221 70.9623 191.334 69.9757C191.744 66.1894 191.287 62.4077 191.108 58.6305C190.995 56.525 190.052 54.4012 190.019 52.1997C189.948 47.8425 190.717 43.563 191.57 39.3062C191.678 38.411 191.65 37.5204 191.471 36.6344C191.084 33.4053 191.669 30.2493 191.862 27.0704C191.923 25.9332 192.385 24.9786 193.248 24.2067C193.583 23.9327 193.818 23.5993 193.95 23.1928C194.078 22.7908 194.087 22.3844 193.969 21.9733C193.446 19.0365 193.394 16.0404 192.8 13.1036C192.348 10.8702 193.107 10.1988 195.478 10.6235C196.274 10.756 196.114 10.2262 196.123 9.86993C196.18 8.24397 196.161 6.59973 196.204 4.96921C196.237 3.74973 196.369 2.5531 197.156 1.52089C197.693 0.826656 198.165 0.890598 198.589 1.58483C200.262 4.36175 201.922 7.13868 203.6 9.89733C203.76 10.1257 203.845 10.3769 203.854 10.6555C203.864 10.9295 203.793 11.1853 203.642 11.4228C203.067 12.5007 203.897 14.1632 205.089 14.1723C205.966 14.186 206.145 14.661 206.4 15.1817C207.305 17.0315 208.149 18.8812 209.087 20.7447C209.398 21.375 209.775 21.9687 210.218 22.5214C210.539 22.9233 211.043 23.7043 211.425 22.4894C211.58 22.1743 211.83 21.9733 212.179 21.882C212.608 21.7084 213.164 21.5577 212.387 21.0233C212.085 20.8132 212.372 20.393 212.552 20.1418C213.565 18.557 214.442 16.9036 215.182 15.1817C215.281 14.8848 215.455 14.6473 215.715 14.4646C215.974 14.2774 216.266 14.1906 216.587 14.1906C217.374 14.1723 217.647 14.7844 217.793 15.3872C218.354 17.8947 218.689 20.4295 218.798 22.9918C219.033 26.6228 219.17 30.263 219.354 33.894C219.373 34.2685 219.373 34.6567 219.434 35.0084C219.655 36.4517 219.901 36.5521 221.07 35.6935C222.239 34.8348 222.781 35.0358 223.12 36.5019C223.804 39.3976 224.261 42.2522 223.511 45.2894C221.668 52.6656 220.127 60.1332 218.435 67.555C218.142 68.4731 218.114 69.3911 218.364 70.3183C219.679 73.7574 218.722 77.2514 218.793 80.7272C218.901 85.7558 216.723 90.2728 215.785 95.0457C214.315 102.5 212.424 109.921 212.849 117.594C212.858 117.782 212.849 117.974 212.867 118.156C212.952 118.855 212.717 119.878 213.518 120.148C214.178 120.371 214.744 119.6 215.314 119.179C217.605 117.521 219.523 115.229 222.404 114.544C224.605 114.027 226.924 113.493 229.187 114.539C229.96 114.9 230.597 115.42 231.087 116.106C232.006 117.403 233.161 118.462 234.552 119.28C239.105 121.623 242.433 125.026 243.928 129.913C244.371 131.369 244.474 132.849 244.239 134.347C244.182 134.69 244.154 135.165 243.645 135.188C243.14 135.215 243.169 134.8 243.004 134.521C242.471 133.466 241.773 132.525 240.906 131.703C240.402 131.287 240.133 131.114 239.808 131.913C238.657 134.658 236.536 136.544 233.934 138.019C231.964 139.043 230.526 140.545 229.616 142.523C228.508 145.085 226.924 147.328 224.86 149.255C223.441 150.552 221.951 151.744 220.82 153.297C220.348 153.937 219.495 153.571 218.93 154.142C217.779 155.316 217.308 156.773 216.874 158.244C215.837 161.71 214.305 164.962 212.278 167.99C209.803 171.886 206.508 174.946 202.393 177.184C199.522 178.71 197.085 180.907 194.078 182.181C193.653 182.322 193.427 182.61 193.404 183.044C193.295 184.364 192.357 185.154 191.485 186.045C190.08 187.488 188.958 189.192 187.228 190.311C187.077 190.411 186.993 190.635 186.846 190.699C183.688 192.115 181.85 194.969 179.403 197.157C178.946 197.6 178.394 197.838 177.749 197.865C175.453 197.86 174.425 199.477 173.374 201.007C169.989 205.922 166.284 210.617 162.772 215.449C157.879 222.218 152.166 228.352 147.117 235.002C144.209 238.829 141.145 242.552 138.038 246.228C135.922 248.74 134.38 251.672 132.033 253.947C130.166 255.778 128.431 257.765 126.343 259.4C123.896 261.328 122.086 263.703 120.908 266.534C120.267 268.033 119.513 269.531 117.707 270.143C117.405 270.248 117.217 270.695 117.009 270.983C114.124 274.87 110.792 278.346 107.006 281.419C106.625 281.771 106.309 282.191 105.734 282.045Z" fill="#FDD339"/>
</g>
</g>
</g>
<path d="M150.501 229.685C148.086 232.501 145.763 235.271 143.529 237.993L140.698 235.807C142.948 233.063 145.286 230.275 147.716 227.442L150.501 229.685ZM141.324 240.703C139.061 243.5 136.892 246.249 134.819 248.949L131.917 246.854C134.009 244.128 136.195 241.358 138.473 238.534L141.324 240.703ZM132.642 251.812C130.504 254.654 128.474 257.443 126.551 260.171L123.565 258.19C125.509 255.427 127.56 252.616 129.719 249.743L132.642 251.812ZM124.495 263.129C122.432 266.136 120.505 269.074 118.715 271.939L115.62 270.115C117.436 267.207 119.394 264.229 121.484 261.182L124.495 263.129ZM116.964 274.783C115.045 277.968 113.297 281.055 111.725 284.058L108.502 282.459C110.106 279.4 111.886 276.251 113.842 273.008L116.964 274.783ZM110.212 287.022C108.564 290.34 107.139 293.544 105.94 296.625L102.558 295.378C103.796 292.199 105.259 288.906 106.952 285.495L110.212 287.022ZM104.785 299.75C103.577 303.201 102.666 306.497 102.049 309.634L98.4973 308.962C99.1481 305.667 100.102 302.218 101.358 298.614L104.785 299.75ZM101.476 313.116C101.006 316.688 100.956 320.035 101.313 323.156L97.7226 323.535C97.3313 320.136 97.3846 316.51 97.8914 312.662L101.476 313.116ZM101.856 326.395C102.588 329.714 103.848 332.756 105.626 335.525L102.56 337.365C100.559 334.252 99.1435 330.834 98.3241 327.116L101.856 326.395ZM107.579 338.204C109.621 340.683 112.152 342.918 115.165 344.911L113.142 347.801C109.825 345.611 107.031 343.139 104.761 340.38L107.579 338.204ZM118.121 346.698C120.958 348.271 124.146 349.666 127.691 350.882L126.497 354.183C122.749 352.894 119.362 351.413 116.338 349.736L118.121 346.698ZM130.973 351.925C134.168 352.867 137.62 353.679 141.327 354.366L140.662 357.801C136.829 357.097 133.251 356.255 129.932 355.273L130.973 351.925ZM144.827 354.956C148.18 355.483 151.724 355.907 155.463 356.234L155.149 359.72C151.33 359.387 147.702 358.953 144.265 358.417L144.827 354.956ZM159.016 356.512C162.463 356.747 166.057 356.909 169.803 356.99L169.738 360.491C165.932 360.407 162.277 360.246 158.778 360.003L159.016 356.512ZM173.333 357.042C176.425 357.067 179.61 357.042 182.893 356.965L182.995 360.468C179.669 360.543 176.446 360.569 173.316 360.542L173.333 357.042Z" fill="#FDD339"/>
<path d="M190.624 420.066L200.658 415.488L202.207 418.658L192.173 423.236L190.624 420.066ZM203.799 414.014C207.2 412.402 210.442 410.83 213.526 409.288L215.192 412.402C212.089 413.951 208.822 415.54 205.397 417.16L203.799 414.014ZM216.68 407.697C220.04 405.976 223.199 404.307 226.152 402.68L227.95 405.724C224.963 407.368 221.769 409.062 218.371 410.794L216.68 407.697ZM229.219 400.959C232.558 399.063 235.599 397.231 238.353 395.458L240.358 398.379C237.549 400.185 234.453 402.055 231.056 403.983L229.219 400.959ZM241.16 393.606C244.419 391.399 247.194 389.303 249.481 387.312L251.902 389.925C249.505 392.009 246.616 394.195 243.238 396.481L241.16 393.606ZM252.123 384.85C255.048 381.898 256.742 379.27 257.206 376.975L260.752 377.66C260.151 380.628 258.145 383.831 254.736 387.279L252.123 384.85ZM257.15 374.385C256.541 372.181 254.376 370.207 250.657 368.472L252.215 365.318C256.939 367.525 259.745 370.25 260.642 373.493L257.15 374.385ZM247.287 367.111C244.487 366.135 241.136 365.27 237.231 364.516L237.919 361.082C242.007 361.871 245.529 362.779 248.499 363.821L247.287 367.111ZM233.808 363.912C230.582 363.385 227.04 362.929 223.178 362.539L223.538 359.056C227.476 359.455 231.093 359.921 234.393 360.458L233.808 363.912ZM219.529 362.199C216.185 361.912 212.629 361.674 208.858 361.478L209.035 357.979C212.848 358.178 216.446 358.423 219.833 358.713L219.529 362.199ZM205.184 361.306C201.774 361.161 198.205 361.055 194.468 360.98L194.528 357.478C198.288 357.555 201.89 357.662 205.324 357.809L205.184 361.306ZM190.854 360.922L184.631 360.87L184.648 357.366L190.871 357.417L190.854 360.922Z" fill="#FDD339"/>
<path d="M186.79 322.528L180.182 331.207L177.274 329.121L183.877 320.442L186.79 322.528ZM178.085 334.006L171.918 342.361L168.974 340.314L175.146 331.959L178.085 334.006ZM169.773 345.312L163.63 353.953L160.65 351.954L166.798 343.314L169.773 345.312ZM161.7 356.717C159.586 359.776 157.572 362.745 155.659 365.624L152.621 363.722C154.545 360.82 156.57 357.834 158.699 354.757L161.7 356.717ZM153.748 368.531C151.747 371.593 149.866 374.552 148.11 377.405L145.004 375.6C146.781 372.72 148.678 369.735 150.69 366.651L153.748 368.531ZM146.257 380.444C144.369 383.577 142.637 386.578 141.059 389.447L137.869 387.787C139.473 384.878 141.226 381.842 143.135 378.674L146.257 380.444ZM139.349 392.61C137.608 395.898 136.081 399.004 134.77 401.922L131.454 400.515C132.798 397.53 134.358 394.358 136.132 390.998L139.349 392.61ZM133.382 405.142C131.917 408.687 130.803 411.92 130.048 414.841L126.542 413.976C127.339 410.901 128.501 407.52 130.023 403.828L133.382 405.142ZM129.352 417.964C128.631 421.908 128.679 425.138 129.496 427.648L126.051 428.69C125.057 425.633 124.969 421.847 125.797 417.337L129.352 417.964ZM130.799 430.231C132.388 432.406 135.052 433.739 138.79 434.231L138.316 437.702C133.539 437.07 130.051 435.254 127.854 432.248L130.799 430.231ZM142.182 434.444C145.199 434.459 148.706 434.062 152.706 433.262L153.45 436.691C149.205 437.54 145.451 437.963 142.179 437.945L142.182 434.444ZM155.931 432.549C159.092 431.795 162.518 430.816 166.205 429.611L167.371 432.93C163.588 434.166 160.066 435.171 156.809 435.95L155.931 432.549ZM169.507 428.495C172.691 427.391 176.05 426.128 179.589 424.717L180.978 427.955C177.385 429.39 173.973 430.668 170.741 431.792L169.507 428.495ZM182.834 423.401C185.352 422.364 187.955 421.249 190.643 420.062L192.149 423.253C189.436 424.447 186.804 425.573 184.261 426.623L182.834 423.401Z" fill="#FDD339"/>
<path d="M354.589 386.69L346.698 379.213L349.216 376.711L357.111 384.192L354.589 386.69ZM344.126 376.824L336.236 369.635L338.709 367.089L346.595 374.277L344.126 376.824ZM333.555 367.243C330.874 364.865 328.221 362.553 325.597 360.316L327.981 357.691C330.618 359.947 333.289 362.27 335.988 364.663L333.555 367.243ZM322.846 357.979C320.05 355.621 317.291 353.344 314.57 351.146L316.873 348.461C319.617 350.674 322.398 352.967 325.212 355.339L322.846 357.979ZM311.856 348.976C308.966 346.681 306.118 344.475 303.31 342.364L305.519 339.604C308.353 341.735 311.224 343.956 314.141 346.272L311.856 348.976ZM300.493 340.265C297.534 338.084 294.626 336.003 291.757 334.029L293.844 331.175C296.744 333.173 299.684 335.275 302.674 337.481L300.493 340.265ZM288.829 332.034C285.782 329.98 282.784 328.048 279.839 326.239L281.767 323.283C284.752 325.122 287.792 327.079 290.884 329.159L288.829 332.034ZM276.802 324.401C273.63 322.514 270.526 320.767 267.482 319.167L269.196 316.092C272.294 317.723 275.458 319.496 278.684 321.419L276.802 324.401ZM264.345 317.556C261.027 315.892 257.793 314.408 254.637 313.093L256.048 309.875C259.287 311.222 262.599 312.744 265.995 314.444L264.345 317.556ZM251.417 311.806C247.955 310.476 244.588 309.359 241.32 308.467L242.292 305.097C245.676 306.024 249.159 307.176 252.741 308.55L251.417 311.806ZM237.852 307.59C234.25 306.755 230.771 306.202 227.421 305.923L227.716 302.436C231.244 302.727 234.901 303.309 238.68 304.183L237.852 307.59ZM223.937 305.736C220.325 305.646 216.87 305.895 213.573 306.489L212.901 303.05C216.447 302.408 220.153 302.138 224.016 302.235L223.937 305.736ZM210.166 307.241C206.808 308.119 203.619 309.379 200.594 311.02L198.821 307.964C202.1 306.183 205.565 304.813 209.211 303.862L210.166 307.241ZM197.657 312.768C194.867 314.584 192.229 316.753 189.743 319.271L187.126 316.847C189.794 314.144 192.631 311.814 195.638 309.86L197.657 312.768ZM187.393 321.816L186.724 322.597L183.934 320.358L184.603 319.578L187.393 321.816Z" fill="#FDD339"/>
<path d="M232.881 264.797L222.586 171.606H241.404L246.778 230.414L252.152 171.606H270.065L275.212 230.414L280.36 171.606H299.404L288.864 264.797H265.803L260.995 219.891L256.394 264.797H232.881Z" fill="#E7E6E6"/>
<path d="M304.658 180.064V166.837H324.25V180.064H304.658ZM304.658 264.797V185.38H324.25V264.797H304.658Z" fill="#E7E6E6"/>
<path d="M354.473 265.674C338.28 265.674 330.187 257.717 330.187 241.796L330.3 235.511H349.891L350.004 244.828C350.004 246.719 350.372 248.149 351.116 249.122C351.871 250.099 353.101 250.583 354.812 250.583C357.424 250.583 358.734 248.528 358.734 244.408C358.734 241.366 358.117 238.978 356.886 237.247C355.651 235.507 353.69 233.661 351.003 231.711L340.595 223.892C337.012 221.225 334.434 218.466 332.864 215.616C331.304 212.757 330.526 208.719 330.526 203.503C330.526 199.448 331.624 195.995 333.826 193.145C336.022 190.286 338.954 188.134 342.612 186.696C346.27 185.248 350.334 184.522 354.812 184.522C370.712 184.522 378.665 192.19 378.665 207.523V209.039H358.395V206.006C358.395 204.12 358.074 202.512 357.433 201.183C356.801 199.845 355.741 199.174 354.246 199.174C352.912 199.174 351.89 199.553 351.173 200.306C350.466 201.065 350.117 202.092 350.117 203.394C350.117 206.294 351.272 208.537 353.587 210.117L365.673 218.685C370.01 221.805 373.333 225.189 375.648 228.843C377.958 232.488 379.117 237.096 379.117 242.673C379.117 250.044 376.949 255.717 372.612 259.7C368.285 263.682 362.241 265.674 354.473 265.674Z" fill="#E7E6E6"/>
<path d="M408.106 265.674C399.668 265.674 393.625 263.436 389.967 258.951C386.309 254.456 384.48 247.765 384.48 238.873V206.975C384.48 199.667 386.639 194.104 390.966 190.277C395.303 186.44 401.356 184.522 409.124 184.522C424.859 184.522 432.732 192.008 432.732 206.975V212.729C432.732 218.516 432.661 223.216 432.524 226.833H404.071V242.234C404.071 244.988 404.363 247.144 404.957 248.702C405.56 250.25 406.833 251.022 408.785 251.022C410.279 251.022 411.34 250.592 411.971 249.725C412.598 248.848 412.971 247.852 413.084 246.728C413.197 245.609 413.254 243.965 413.254 241.796V234.104H432.732V238.653C432.732 247.911 430.884 254.73 427.188 259.115C423.502 263.49 417.143 265.674 408.106 265.674ZM413.254 217.388V207.194C413.254 201.485 411.802 198.626 408.898 198.626C405.603 198.626 403.958 201.485 403.958 207.194V217.388H413.254Z" fill="#E7E6E6"/>
<path d="M403.403 379.304C384.368 379.304 374.856 369.749 374.856 350.639V313.516C374.856 304.761 377.392 297.796 382.473 292.616C387.564 287.441 394.541 284.852 403.403 284.852C412.266 284.852 419.233 287.441 424.314 292.616C429.405 297.796 431.951 304.761 431.951 313.516V350.639C431.951 369.749 422.434 379.304 403.403 379.304ZM403.403 362.259C405.223 362.259 406.571 361.633 407.438 360.377C408.315 359.112 408.758 357.381 408.758 355.188V309.99C408.758 304.596 406.972 301.897 403.403 301.897C399.844 301.897 398.067 304.596 398.067 309.99V355.188C398.067 357.381 398.501 359.112 399.368 360.377C400.236 361.633 401.579 362.259 403.403 362.259Z" fill="#FDD339"/>
<path d="M458.804 379.304C451.676 379.304 446.783 377.248 444.134 373.129C441.48 369 440.156 362.852 440.156 354.677V285.856H463.103V350.274C463.103 350.858 463.103 352.439 463.103 355.006C463.103 357.577 463.508 359.386 464.329 360.432C465.158 361.482 466.44 362.003 468.175 362.003C470.523 362.003 472.003 361.062 472.606 359.171C473.219 357.271 473.53 354.558 473.53 351.023V350.274L473.643 285.856H496.327V378.299H473.53V368.452C471.956 372.325 470.127 375.102 468.043 376.782C465.955 378.463 462.877 379.304 458.804 379.304Z" fill="#FDD339"/>
<path d="M505.452 285.857H528.267V296.087C529.385 292.47 531.36 289.675 534.188 287.702C537.016 285.719 540.509 284.724 544.672 284.724V303.157C541.466 303.157 537.926 303.605 534.056 304.491C530.195 305.382 528.267 306.409 528.267 307.579V378.299H505.452V285.857Z" fill="#FDD339"/>
<path d="M334.07 378.299V290.661H320.777V269.834H369.783V290.661H356.489V378.299H334.07Z" fill="#FDD339"/>
</svg>
